{
.appVersion = "1075";
copyright = "Copyright 2018 Google Inc. All Rights Reserved.";
customParameters = (
{
name = glyphOrder;
value = (
.notdef,
NULL,
CR,
space,
uni00A0,
dotlessi,
caron,
breve,
dotaccent,
ring,
ogonek,
uni1400,
uni1401,
uni1402,
uni1403,
uni1404,
uni1405,
uni1406,
uni1407,
uni1408,
uni1409,
uni140A,
uni140B,
uni140C,
uni140D,
uni140E,
uni140F,
uni1410,
uni1411,
uni1412,
uni1413,
uni1414,
uni1415,
uni1416,
uni1417,
uni1418,
uni1419,
uni141A,
uni141B,
uni141C,
uni141D,
uni141E,
uni141F,
uni1420,
uni1421,
uni1422,
uni1423,
uni1424,
uni1425,
uni1426,
uni1427,
uni1428,
uni1429,
uni142A,
uni142B,
uni142C,
uni142D,
uni142E,
uni142F,
uni1430,
uni1431,
uni1432,
uni1433,
uni1434,
uni1435,
uni1436,
uni1437,
uni1438,
uni1439,
uni143A,
uni143B,
uni143C,
uni143D,
uni143E,
uni143F,
uni1440,
uni1441,
uni1442,
uni1443,
uni1444,
uni1445,
uni1446,
uni1447,
uni1448,
uni1449,
uni144A,
uni144B,
uni144C,
uni144D,
uni144E,
uni144F,
uni1450,
uni1451,
uni1452,
uni1453,
uni1454,
uni1455,
uni1456,
uni1457,
uni1458,
uni1459,
uni145A,
uni145B,
uni145C,
uni145D,
uni145E,
uni145F,
uni1460,
uni1461,
uni1462,
uni1463,
uni1464,
uni1465,
uni1466,
uni1467,
uni1468,
uni1469,
uni146A,
uni146B,
uni146C,
uni146D,
uni146E,
uni146F,
uni1470,
uni1471,
uni1472,
uni1473,
uni1474,
uni1475,
uni1476,
uni1477,
uni1478,
uni1479,
uni147A,
uni147B,
uni147C,
uni147D,
uni147E,
uni147F,
uni1480,
uni1481,
uni1482,
uni1483,
uni1484,
uni1485,
uni1486,
uni1487,
uni1488,
uni1489,
uni148A,
uni148B,
uni148C,
uni148D,
uni148E,
uni148F,
uni1490,
uni1491,
uni1492,
uni1493,
uni1494,
uni1495,
uni1496,
uni1497,
uni1498,
uni1499,
uni149A,
uni149B,
uni149C,
uni149D,
uni149E,
uni149F,
uni14A0,
uni14A1,
uni14A2,
uni14A3,
uni14A4,
uni14A5,
uni14A6,
uni14A7,
uni14A8,
uni14A9,
uni14AA,
uni14AB,
uni14AC,
uni14AD,
uni14AE,
uni14AF,
uni14B0,
uni14B1,
uni14B2,
uni14B3,
uni14B4,
uni14B5,
uni14B6,
uni14B7,
uni14B8,
uni14B9,
uni14BA,
uni14BB,
uni14BC,
uni14BD,
uni14BE,
uni14BF,
uni14C0,
uni14C1,
uni14C2,
uni14C3,
uni14C4,

glyphs = (
{
glyphname = .notdef;
lastChange = "2018-03-08 14:01:59 +0000";
layers = (
{
layerId = "2E7E08E9-F197-422C-8C87-7E7891F2A291";
paths = (
{
closed = 1;
nodes = (
"505 0 LINE",
"505 714 LINE",
"94 714 LINE",
"94 0 LINE"
);
},
{
closed = 1;
nodes = (
"145 663 LINE",
"454 663 LINE",
"454 51 LINE",
"145 51 LINE"
);
}
);
width = 600;
},
{
layerId = "E326D6A0-72EF-479E-B72E-1071BD8CDE1B";
paths = (
{
closed = 1;
nodes = (
"505 0 LINE",
"505 714 LINE",
"94 714 LINE",
"94 0 LINE"
);
},
{
closed = 1;
nodes = (
"145 663 LINE",
"454 663 LINE",
"454 51 LINE",
"145 51 LINE"
);
}
);
width = 600;
},
{
layerId = "2D9103A3-690A-4A3E-A4A3-539A9A9AB4B9";
paths = (
{
closed = 1;
nodes = (
"505 0 LINE",
"505 714 LINE",
"94 714 LINE",
"94 0 LINE"
);
},
{
closed = 1;
nodes = (
"145 663 LINE",
"454 663 LINE",
"454 51 LINE",
"145 51 LINE"
);
}
);
width = 600;
},
{
layerId = "FA7FA507-24BC-4772-BCBB-4BDCA0277846";
paths = (
{
closed = 1;
nodes = (
"505 0 LINE",
"505 714 LINE",
"94 714 LINE",
"94 0 LINE"
);
},
{
closed = 1;
nodes = (
"145 663 LINE",
"454 663 LINE",
"454 51 LINE",
"145 51 LINE"
);
}
);
width = 600;
}
);
note = .notdef;
},
{
glyphname = dotlessi;
lastChange = "2018-03-08 14:01:59 +0000";
layers = (
{
layerId = "2E7E08E9-F197-422C-8C87-7E7891F2A291";
paths = (
{
closed = 1;
nodes = (
"121 0 LINE",
"121 528 LINE",
"95 528 LINE",
"95 0 LINE"
);
}
);
width = 216;
},
{
layerId = "E326D6A0-72EF-479E-B72E-1071BD8CDE1B";
paths = (
{
closed = 1;
nodes = (
"173 0 LINE",
"173 536 LINE",
"85 536 LINE",
"85 0 LINE"
);
}
);
width = 258;
},
{
layerId = "2D9103A3-690A-4A3E-A4A3-539A9A9AB4B9";
paths = (
{
closed = 1;
nodes = (
"258 0 LINE",
"258 553 LINE",
"67 553 LINE",
"67 0 LINE"
);
}
);
width = 325;
},
{
layerId = "FA7FA507-24BC-4772-BCBB-4BDCA0277846";
paths = (
{
closed = 1;
nodes = (
"226 0 LINE",
"226 546 LINE",
"77 546 LINE",
"77 0 LINE"
);
}
);
width = 303;
}
);
note = dotlessi;
unicode = 0131;
},
{
glyphname = caron;
lastChange = "2018-03-08 14:01:59 +0000";
layers = (
{
layerId = "2E7E08E9-F197-422C-8C87-7E7891F2A291";
paths = (
{
closed = 1;
nodes = (
"176 606 LINE",
"200 647 OFFCURVE",
"255 716 OFFCURVE",
"292 757 CURVE",
"292 763 LINE",
"271 763 LINE",
"234 726 OFFCURVE",
"193 676 OFFCURVE",
"165 638 CURVE",
"137 676 OFFCURVE",
"98 726 OFFCURVE",
"61 763 CURVE",
"40 763 LINE",
"40 757 LINE",
"77 716 OFFCURVE",
"130 647 OFFCURVE",
"154 606 CURVE"
);
}
);
width = 332;
},
{
layerId = "E326D6A0-72EF-479E-B72E-1071BD8CDE1B";
paths = (
{
closed = 1;
nodes = (
"253 606 LINE",
"277 651 OFFCURVE",
"340 715 OFFCURVE",
"378 753 CURVE",
"378 766 LINE",
"316 766 LINE",
"281 743 OFFCURVE",
"243 710 OFFCURVE",
"207 674 CURVE",
"174 710 OFFCURVE",
"135 743 OFFCURVE",
"100 766 CURVE",
"40 766 LINE",
"40 753 LINE",
"76 716 OFFCURVE",
"137 651 OFFCURVE",
"163 606 CURVE"
);
}
);
width = 418;
},
{
layerId = "2D9103A3-690A-4A3E-A4A3-539A9A9AB4B9";
paths = (
{
closed = 1;
nodes = (
"358 606 LINE",
"389 652 OFFCURVE",
"449 718 OFFCURVE",
"483 752 CURVE",
"483 766 LINE",
"359 766 LINE",
"324 746 OFFCURVE",
"296 723 OFFCURVE",
"261 693 CURVE",
"226 723 OFFCURVE",
"201 744 OFFCURVE",
"166 766 CURVE",
"40 766 LINE",
"40 752 LINE",
"78 716 OFFCURVE",
"136 652 OFFCURVE",
"166 606 CURVE"
);
}
);
width = 523;
},
{
layerId = "FA7FA507-24BC-4772-BCBB-4BDCA0277846";
paths = (
{
closed = 1;
nodes = (
"315 606 LINE",
"343 652 OFFCURVE",
"404 717 OFFCURVE",
"440 752 CURVE",
"440 766 LINE",
"341 766 LINE",
"306 745 OFFCURVE",
"274 718 OFFCURVE",
"239 685 CURVE",
"205 718 OFFCURVE",
"174 744 OFFCURVE",
"139 766 CURVE",
"40 766 LINE",
"40 752 LINE",
"77 716 OFFCURVE",
"136 652 OFFCURVE",
"165 606 CURVE"
);
}
);
width = 480;
}
);
note = caron;
unicode = 02C7;
},
{
glyphname = breve;
lastChange = "2018-03-08 14:01:59 +0000";
layers = (
{
layerId = "2E7E08E9-F197-422C-8C87-7E7891F2A291";
paths = (
{
closed = 1;
nodes = (
"234 606 OFFCURVE",
"276 645 OFFCURVE",
"285 718 CURVE",
"260 718 LINE",
"254 665 OFFCURVE",
"227 630 OFFCURVE",
"162 630 CURVE SMOOTH",
"101 630 OFFCURVE",
"70 665 OFFCURVE",
"65 718 CURVE",
"40 718 LINE",
"46 645 OFFCURVE",
"90 606 OFFCURVE",
"162 606 CURVE SMOOTH"
);
}
);
width = 325;
},
{
layerId = "E326D6A0-72EF-479E-B72E-1071BD8CDE1B";
paths = (
{
closed = 1;
nodes = (
"289 606 OFFCURVE",
"344 660 OFFCURVE",
"351 740 CURVE",
"296 740 LINE",
"289 688 OFFCURVE",
"247 677 OFFCURVE",
"195 677 CURVE SMOOTH",
"134 677 OFFCURVE",
"100 685 OFFCURVE",
"94 740 CURVE",
"40 740 LINE",
"45 658 OFFCURVE",
"94 606 OFFCURVE",
"193 606 CURVE SMOOTH"
);
}
);
width = 391;
},
{
layerId = "2D9103A3-690A-4A3E-A4A3-539A9A9AB4B9";
paths = (
{
closed = 1;
nodes = (
"357 606 OFFCURVE",
"428 678 OFFCURVE",
"435 787 CURVE",
"328 787 LINE",
"314 735 OFFCURVE",
"279 723 OFFCURVE",
"236 723 CURVE SMOOTH",
"181 723 OFFCURVE",
"157 731 OFFCURVE",
"143 787 CURVE",
"40 787 LINE",
"45 675 OFFCURVE",
"109 606 OFFCURVE",
"236 606 CURVE SMOOTH"
);
}
);
width = 475;
},
{
layerId = "FA7FA507-24BC-4772-BCBB-4BDCA0277846";
paths = (
{
closed = 1;
nodes = (
"329 606 OFFCURVE",
"394 671 OFFCURVE",
"401 768 CURVE",
"315 768 LINE",
"304 716 OFFCURVE",
"266 704 OFFCURVE",
"219 704 CURVE SMOOTH",
"162 704 OFFCURVE",
"134 712 OFFCURVE",
"123 768 CURVE",
"40 768 LINE",
"45 668 OFFCURVE",
"103 606 OFFCURVE",
"218 606 CURVE SMOOTH"
);
}
);
width = 441;
}
);
note = breve;
unicode = 02D8;
},
{
glyphname = dotaccent;
lastChange = "2018-03-08 14:01:59 +0000";
layers = (
{
layerId = "2E7E08E9-F197-422C-8C87-7E7891F2A291";
paths = (
{
closed = 1;
nodes = (
"89 659 OFFCURVE",
"92 673 OFFCURVE",
"92 690 CURVE SMOOTH",
"92 706 OFFCURVE",
"89 721 OFFCURVE",
"65 721 CURVE SMOOTH",
"45 721 OFFCURVE",
"40 706 OFFCURVE",
"40 690 CURVE SMOOTH",
"40 673 OFFCURVE",
"45 659 OFFCURVE",
"65 659 CURVE SMOOTH"
);
}
);
width = 132;
},
{
layerId = "E326D6A0-72EF-479E-B72E-1071BD8CDE1B";
paths = (
{
closed = 1;
nodes = (
"119 625 OFFCURVE",
"143 643 OFFCURVE",
"143 681 CURVE SMOOTH",
"143 720 OFFCURVE",
"119 737 OFFCURVE",
"92 737 CURVE SMOOTH",
"63 737 OFFCURVE",
"40 720 OFFCURVE",
"40 681 CURVE SMOOTH",
"40 643 OFFCURVE",
"63 625 OFFCURVE",
"92 625 CURVE SMOOTH"
);
}
);
width = 183;
},
{
layerId = "2D9103A3-690A-4A3E-A4A3-539A9A9AB4B9";
paths = (
{
closed = 1;
nodes = (
"196 607 OFFCURVE",
"243 625 OFFCURVE",
"243 691 CURVE SMOOTH",
"243 759 OFFCURVE",
"196 776 OFFCURVE",
"141 776 CURVE SMOOTH",
"85 776 OFFCURVE",
"40 759 OFFCURVE",
"40 691 CURVE SMOOTH",
"40 625 OFFCURVE",
"85 607 OFFCURVE",
"141 607 CURVE SMOOTH"
);
}
);
width = 283;
},
{
layerId = "FA7FA507-24BC-4772-BCBB-4BDCA0277846";
paths = (
{
closed = 1;
nodes = (
"164 614 OFFCURVE",
"202 632 OFFCURVE",
"202 687 CURVE SMOOTH",
"202 743 OFFCURVE",
"164 760 OFFCURVE",
"121 760 CURVE SMOOTH",
"76 760 OFFCURVE",
"40 743 OFFCURVE",
"40 687 CURVE SMOOTH",
"40 632 OFFCURVE",
"76 614 OFFCURVE",
"121 614 CURVE SMOOTH"
);
}
);
width = 242;
}
);
note = dotaccent;
unicode = 02D9;
},
{
glyphname = ring;
lastChange = "2018-03-08 14:01:59 +0000";
layers = (
{
layerId = "2E7E08E9-F197-422C-8C87-7E7891F2A291";
paths = (
{
closed = 1;
nodes = (
"196 611 OFFCURVE",
"241 652 OFFCURVE",
"241 711 CURVE SMOOTH",
"241 766 OFFCURVE",
"196 811 OFFCURVE",
"141 811 CURVE SMOOTH",
"86 811 OFFCURVE",
"40 768 OFFCURVE",
"40 711 CURVE SMOOTH",
"40 651 OFFCURVE",
"87 611 OFFCURVE",
"141 611 CURVE SMOOTH"
);
},
{
closed = 1;
nodes = (
"96 635 OFFCURVE",
"64 669 OFFCURVE",
"64 711 CURVE SMOOTH",
"64 753 OFFCURVE",
"97 787 OFFCURVE",
"141 787 CURVE SMOOTH",
"182 787 OFFCURVE",
"217 753 OFFCURVE",
"217 711 CURVE SMOOTH",
"217 669 OFFCURVE",
"186 635 OFFCURVE",
"141 635 CURVE SMOOTH"
);
}
);
width = 281;
},
{
layerId = "E326D6A0-72EF-479E-B72E-1071BD8CDE1B";
paths = (
{
closed = 1;
nodes = (
"213 606 OFFCURVE",
"260 645 OFFCURVE",
"260 713 CURVE SMOOTH",
"260 778 OFFCURVE",
"212 817 OFFCURVE",
"149 817 CURVE SMOOTH",
"84 817 OFFCURVE",
"40 778 OFFCURVE",
"40 712 CURVE SMOOTH",
"40 645 OFFCURVE",
"84 606 OFFCURVE",
"149 606 CURVE SMOOTH"
);
},
{
closed = 1;
nodes = (
"113 656 OFFCURVE",
"93 677 OFFCURVE",
"93 712 CURVE SMOOTH",
"93 747 OFFCURVE",
"117 768 OFFCURVE",
"149 768 CURVE SMOOTH",
"181 768 OFFCURVE",
"205 747 OFFCURVE",
"205 712 CURVE SMOOTH",
"205 677 OFFCURVE",
"182 656 OFFCURVE",
"149 656 CURVE SMOOTH"
);
}
);
width = 300;
},
{
layerId = "2D9103A3-690A-4A3E-A4A3-539A9A9AB4B9";
paths = (
{
closed = 1;
nodes = (
"243 604 OFFCURVE",
"302 651 OFFCURVE",
"302 728 CURVE SMOOTH",
"302 804 OFFCURVE",
"242 851 OFFCURVE",
"169 851 CURVE SMOOTH",
"92 851 OFFCURVE",
"40 804 OFFCURVE",
"40 727 CURVE SMOOTH",
"40 651 OFFCURVE",
"92 604 OFFCURVE",
"169 604 CURVE SMOOTH"
);
},
{
closed = 1;
nodes = (
"142 686 OFFCURVE",
"128 703 OFFCURVE",
"128 727 CURVE SMOOTH",
"128 752 OFFCURVE",
"146 768 OFFCURVE",
"169 768 CURVE SMOOTH",
"192 768 OFFCURVE",
"210 752 OFFCURVE",
"210 727 CURVE SMOOTH",
"210 703 OFFCURVE",
"192 686 OFFCURVE",
"169 686 CURVE SMOOTH"
);
}
);
width = 342;
},
{
layerId = "FA7FA507-24BC-4772-BCBB-4BDCA0277846";
paths = (
{
closed = 1;
nodes = (
"231 605 OFFCURVE",
"285 649 OFFCURVE",
"285 722 CURVE SMOOTH",
"285 793 OFFCURVE",
"230 837 OFFCURVE",
"161 837 CURVE SMOOTH",
"89 837 OFFCURVE",
"40 793 OFFCURVE",
"40 721 CURVE SMOOTH",
"40 649 OFFCURVE",
"89 605 OFFCURVE",
"161 605 CURVE SMOOTH"
);
},
{
closed = 1;
nodes = (
"130 674 OFFCURVE",
"114 692 OFFCURVE",
"114 721 CURVE SMOOTH",
"114 750 OFFCURVE",
"134 768 OFFCURVE",
"161 768 CURVE SMOOTH",
"187 768 OFFCURVE",
"208 750 OFFCURVE",
"208 721 CURVE SMOOTH",
"208 692 OFFCURVE",
"188 674 OFFCURVE",
"161 674 CURVE SMOOTH"
);
}
);
width = 325;
}
);
note = ring;
unicode = 02DA;
},
{
glyphname = ogonek;
lastChange = "2018-03-08 14:01:59 +0000";
layers = (
{
layerId = "2E7E08E9-F197-422C-8C87-7E7891F2A291";
paths = (
{
closed = 1;
nodes = (
"143 -217 OFFCURVE",
"161 -213 OFFCURVE",
"172 -209 CURVE",
"172 -185 LINE",
"161 -189 OFFCURVE",
"143 -192 OFFCURVE",
"124 -192 CURVE SMOOTH",
"85 -192 OFFCURVE",
"66 -170 OFFCURVE",
"66 -131 CURVE SMOOTH",
"66 -80 OFFCURVE",
"112 -36 OFFCURVE",
"158 0 CURVE",
"140 11 LINE",
"70 -41 OFFCURVE",
"40 -87 OFFCURVE",
"40 -135 CURVE SMOOTH",
"40 -190 OFFCURVE",
"76 -217 OFFCURVE",
"122 -217 CURVE SMOOTH"
);
}
);
width = 212;
},
{
layerId = "E326D6A0-72EF-479E-B72E-1071BD8CDE1B";
paths = (
{
closed = 1;
nodes = (
"169 -220 OFFCURVE",
"186 -216 OFFCURVE",
"205 -211 CURVE",
"205 -155 LINE",
"194 -157 OFFCURVE",
"179 -161 OFFCURVE",
"157 -161 CURVE SMOOTH",
"129 -161 OFFCURVE",
"112 -146 OFFCURVE",
"112 -116 CURVE SMOOTH",
"112 -75 OFFCURVE",
"135 -43 OFFCURVE",
"180 0 CURVE",
"132 15 LINE",
"92 -13 OFFCURVE",
"40 -69 OFFCURVE",
"40 -126 CURVE SMOOTH",
"40 -185 OFFCURVE",
"72 -220 OFFCURVE",
"143 -220 CURVE SMOOTH"
);
}
);
width = 245;
},
{
layerId = "2D9103A3-690A-4A3E-A4A3-539A9A9AB4B9";
paths = (
{
closed = 1;
nodes = (
"211 -240 OFFCURVE",
"238 -234 OFFCURVE",
"260 -227 CURVE",
"260 -119 LINE",
"246 -125 OFFCURVE",
"219 -130 OFFCURVE",
"202 -130 CURVE SMOOTH",
"179 -130 OFFCURVE",
"164 -121 OFFCURVE",
"164 -97 CURVE SMOOTH",
"164 -67 OFFCURVE",
"184 -43 OFFCURVE",
"229 0 CURVE",
"154 25 LINE",
"65 -35 OFFCURVE",
"40 -82 OFFCURVE",
"40 -127 CURVE SMOOTH",
"40 -197 OFFCURVE",
"99 -240 OFFCURVE",
"175 -240 CURVE SMOOTH"
);
}
);
width = 300;
},
{
layerId = "FA7FA507-24BC-4772-BCBB-4BDCA0277846";
paths = (
{
closed = 1;
nodes = (
"194 -232 OFFCURVE",
"217 -227 OFFCURVE",
"237 -220 CURVE",
"237 -134 LINE",
"225 -138 OFFCURVE",
"203 -143 OFFCURVE",
"184 -143 CURVE SMOOTH",
"159 -143 OFFCURVE",
"143 -131 OFFCURVE",
"143 -105 CURVE SMOOTH",
"143 -70 OFFCURVE",
"164 -43 OFFCURVE",
"209 0 CURVE",
"145 21 LINE",
"76 -26 OFFCURVE",
"40 -77 OFFCURVE",
"40 -127 CURVE SMOOTH",
"40 -192 OFFCURVE",
"88 -232 OFFCURVE",
"162 -232 CURVE SMOOTH"
);
}
);
width = 277;
}
);
note = ogonek;
unicode = 02DB;
},
{
glyphname = uni1400;
lastChange = "2018-03-08 14:01:59 +0000";
layers = (
{
layerId = "2E7E08E9-F197-422C-8C87-7E7891F2A291";
paths = (
{
closed = 1;
nodes = (
"407 418 LINE",
"407 439 LINE",
"49 439 LINE",
"49 418 LINE"
);
},
{
closed = 1;
nodes = (
"407 294 LINE",
"407 315 LINE",
"49 315 LINE",
"49 294 LINE"
);
}
);
width = 456;
},
{
layerId = "E326D6A0-72EF-479E-B72E-1071BD8CDE1B";
paths = (
{
closed = 1;
nodes = (
"407 406 LINE",
"407 474 LINE",
"39 474 LINE",
"39 406 LINE"
);
},
{
closed = 1;
nodes = (
"407 260 LINE",
"407 327 LINE",
"39 327 LINE",
"39 260 LINE"
);
}
);
width = 446;
},
{
layerId = "2D9103A3-690A-4A3E-A4A3-539A9A9AB4B9";
paths = (
{
closed = 1;
nodes = (
"407 408 LINE",
"407 514 LINE",
"39 514 LINE",
"39 408 LINE"
);
},
{
closed = 1;
nodes = (
"407 240 LINE",
"407 345 LINE",
"39 345 LINE",
"39 240 LINE"
);
}
);
width = 446;
},
{
layerId = "FA7FA507-24BC-4772-BCBB-4BDCA0277846";
paths = (
{
closed = 1;
nodes = (
"417 407 LINE",
"417 498 LINE",
"49 498 LINE",
"49 407 LINE"
);
},
{
closed = 1;
nodes = (
"417 248 LINE",
"417 338 LINE",
"49 338 LINE",
"49 248 LINE"
);
}
);
width = 466;
}
);
note = uni1400;
unicode = 1400;
},
{
glyphname = uni1401;
lastChange = "2018-03-08 14:01:59 +0000";
layers = (
{
layerId = "2E7E08E9-F197-422C-8C87-7E7891F2A291";
paths = (
{
closed = 1;
nodes = (
"410 -12 LINE",
"738 701 LINE",
"738 714 LINE",
"59 714 LINE",
"59 701 LINE",
"387 -12 LINE"
);
},
{
closed = 1;
nodes = (
"93 689 LINE",
"704 689 LINE",
"398 16 LINE"
);
}
);
width = 797;
},
{
layerId = "E326D6A0-72EF-479E-B72E-1071BD8CDE1B";
paths = (
{
closed = 1;
nodes = (
"398 -12 LINE",
"728 704 LINE",
"728 714 LINE",
"49 714 LINE",
"49 704 LINE",
"378 -12 LINE"
);
},
{
closed = 1;
nodes = (
"163 643 LINE",
"613 643 LINE",
"388 139 LINE"
);
}
);
width = 777;
},
{
layerId = "2D9103A3-690A-4A3E-A4A3-539A9A9AB4B9";
paths = (
{
closed = 1;
nodes = (
"449 -12 LINE",
"803 669 LINE",
"803 714 LINE",
"39 714 LINE",
"39 669 LINE",
"393 -12 LINE"
);
},
{
closed = 1;
nodes = (
"282 558 LINE",
"560 558 LINE",
"421 279 LINE"
);
}
);
width = 842;
},
{
layerId = "FA7FA507-24BC-4772-BCBB-4BDCA0277846";
paths = (
{
closed = 1;
nodes = (
"431 -12 LINE",
"778 683 LINE",
"778 714 LINE",
"49 714 LINE",
"49 683 LINE",
"396 -12 LINE"
);
},
{
closed = 1;
nodes = (
"245 593 LINE",
"583 593 LINE",
"414 241 LINE"
);
}
);
width = 827;
}
);
note = uni1401;
unicode = 1401;
},
{
glyphname = uni1403;
lastChange = "2018-03-08 14:01:59 +0000";
layers = (
{
layerId = "2E7E08E9-F197-422C-8C87-7E7891F2A291";
paths = (
{
closed = 1;
nodes = (
"738 0 LINE",
"738 13 LINE",
"410 726 LINE",
"387 726 LINE",
"59 13 LINE",
"59 0 LINE"
);
},
{
closed = 1;
nodes = (
"398 698 LINE",
"704 25 LINE",
"93 25 LINE"
);
}
);
width = 797;
},
{
layerId = "E326D6A0-72EF-479E-B72E-1071BD8CDE1B";
paths = (
{
closed = 1;
nodes = (
"728 0 LINE",
"728 10 LINE",
"398 726 LINE",
"378 726 LINE",
"49 10 LINE",
"49 0 LINE"
);
},
{
closed = 1;
nodes = (
"388 575 LINE",
"613 71 LINE",
"163 71 LINE"
);
}
);
width = 777;
},
{
layerId = "2D9103A3-690A-4A3E-A4A3-539A9A9AB4B9";
paths = (
{
closed = 1;
nodes = (
"803 0 LINE",
"803 45 LINE",
"449 726 LINE",
"393 726 LINE",
"39 45 LINE",
"39 0 LINE"
);
},
{
closed = 1;
nodes = (
"421 435 LINE",
"560 156 LINE",
"282 156 LINE"
);
}
);
width = 842;
},
{
layerId = "FA7FA507-24BC-4772-BCBB-4BDCA0277846";
paths = (
{
closed = 1;
nodes = (
"778 0 LINE",
"778 31 LINE",
"431 726 LINE",
"396 726 LINE",
"49 31 LINE",
"49 0 LINE"
);
},
{
closed = 1;
nodes = (
"414 473 LINE",
"583 121 LINE",
"245 121 LINE"
);
}
);
width = 827;
}
);
leftMetricsKey = "=uni1401";
note = uni1403;
rightMetricsKey = "=uni1401";
unicode = 1403;
},
{
glyphname = uni1405;
lastChange = "2018-03-08 14:01:59 +0000";
layers = (
{
layerId = "2E7E08E9-F197-422C-8C87-7E7891F2A291";
paths = (
{
closed = 1;
nodes = (
"89 -11 LINE",
"703 348 LINE",
"703 366 LINE",
"89 725 LINE",
"79 725 LINE",
"79 -11 LINE"
);
},
{
closed = 1;
nodes = (
"105 686 LINE",
"669 357 LINE",
"105 28 LINE"
);
}
);
width = 752;
},
{
layerId = "E326D6A0-72EF-479E-B72E-1071BD8CDE1B";
paths = (
{
closed = 1;
nodes = (
"79 -10 LINE",
"693 350 LINE",
"693 364 LINE",
"79 725 LINE",
"69 725 LINE",
"69 -10 LINE"
);
},
{
closed = 1;
nodes = (
"147 597 LINE",
"567 357 LINE",
"147 117 LINE"
);
}
);
width = 732;
},
{
layerId = "2D9103A3-690A-4A3E-A4A3-539A9A9AB4B9";
paths = (
{
closed = 1;
nodes = (
"104 -10 LINE",
"699 336 LINE",
"699 381 LINE",
"104 725 LINE",
"59 725 LINE",
"59 -10 LINE"
);
},
{
closed = 1;
nodes = (
"213 485 LINE",
"450 358 LINE",
"213 231 LINE"
);
}
);
width = 728;
},
{
layerId = "FA7FA507-24BC-4772-BCBB-4BDCA0277846";
paths = (
{
closed = 1;
nodes = (
"100 -10 LINE",
"703 342 LINE",
"703 374 LINE",
"100 725 LINE",
"69 725 LINE",
"69 -10 LINE"
);
},
{
closed = 1;
nodes = (
"192 524 LINE",
"486 358 LINE",
"192 191 LINE"
);
}
);
width = 742;
}
);
note = uni1405;
unicode = 1405;
},
{
glyphname = uni140A;
lastChange = "2018-03-08 15:40:10 +0000";
layers = (
{
layerId = "2E7E08E9-F197-422C-8C87-7E7891F2A291";
paths = (
{
closed = 1;
nodes = (
"673 -11 LINE",
"673 725 LINE",
"663 725 LINE",
"49 366 LINE",
"49 348 LINE",
"663 -11 LINE"
);
},
{
closed = 1;
nodes = (
"83 357 LINE",
"647 686 LINE",
"647 28 LINE"
);
}
);
width = 752;
},
{
layerId = "E326D6A0-72EF-479E-B72E-1071BD8CDE1B";
paths = (
{
closed = 1;
nodes = (
"663 -10 LINE",
"663 725 LINE",
"653 725 LINE",
"39 364 LINE",
"39 350 LINE",
"653 -10 LINE"
);
},
{
closed = 1;
nodes = (
"165 357 LINE",
"584 597 LINE",
"584 117 LINE"
);
}
);
width = 732;
},
{
layerId = "2D9103A3-690A-4A3E-A4A3-539A9A9AB4B9";
paths = (
{
closed = 1;
nodes = (
"669 -10 LINE",
"669 725 LINE",
"624 725 LINE",
"29 381 LINE",
"29 336 LINE",
"624 -10 LINE"
);
},
{
closed = 1;
nodes = (
"278 358 LINE",
"515 485 LINE",
"515 231 LINE"
);
}
);
width = 728;
},
{
layerId = "FA7FA507-24BC-4772-BCBB-4BDCA0277846";
paths = (
{
closed = 1;
nodes = (
"673 -10 LINE",
"673 725 LINE",
"642 725 LINE",
"39 374 LINE",
"39 342 LINE",
"642 -10 LINE"
);
},
{
closed = 1;
nodes = (
"255 358 LINE",
"549 524 LINE",
"549 191 LINE"
);
}
);
width = 742;
}
);
note = uni140A;
unicode = 140A;
},
{
glyphname = uni141C;
lastChange = "2018-03-08 14:01:59 +0000";
layers = (
{
layerId = "2E7E08E9-F197-422C-8C87-7E7891F2A291";
paths = (
{
closed = 1;
nodes = (
"245 341 OFFCURVE",
"274 383 OFFCURVE",
"292 448 CURVE",
"310 383 OFFCURVE",
"339 341 OFFCURVE",
"408 341 CURVE SMOOTH",
"500 341 OFFCURVE",
"535 421 OFFCURVE",
"535 530 CURVE SMOOTH",
"535 714 LINE",
"511 714 LINE",
"511 530 LINE SMOOTH",
"511 431 OFFCURVE",
"478 363 OFFCURVE",
"408 363 CURVE SMOOTH",
"335 363 OFFCURVE",
"304 431 OFFCURVE",
"304 530 CURVE SMOOTH",
"304 714 LINE",
"280 714 LINE",
"280 530 LINE SMOOTH",
"280 431 OFFCURVE",
"249 363 OFFCURVE",
"176 363 CURVE SMOOTH",
"106 363 OFFCURVE",
"73 431 OFFCURVE",
"73 530 CURVE SMOOTH",
"73 714 LINE",
"49 714 LINE",
"49 530 LINE SMOOTH",
"49 421 OFFCURVE",
"84 341 OFFCURVE",
"176 341 CURVE SMOOTH"
);
}
);
width = 584;
},
{
layerId = "E326D6A0-72EF-479E-B72E-1071BD8CDE1B";
paths = (
{
closed = 1;
nodes = (
"226 334 OFFCURVE",
"264 358 OFFCURVE",
"295 407 CURVE",
"327 358 OFFCURVE",
"366 334 OFFCURVE",
"412 334 CURVE SMOOTH",
"505 334 OFFCURVE",
"552 405 OFFCURVE",
"552 545 CURVE SMOOTH",
"552 714 LINE",
"477 714 LINE",
"477 557 LINE SMOOTH",
"477 478 OFFCURVE",
"466 402 OFFCURVE",
"408 402 CURVE SMOOTH",
"345 402 OFFCURVE",
"333 477 OFFCURVE",
"333 557 CURVE SMOOTH",
"333 714 LINE",
"258 714 LINE",
"258 557 LINE SMOOTH",
"258 481 OFFCURVE",
"247 402 OFFCURVE",
"188 402 CURVE SMOOTH",
"140 402 OFFCURVE",
"114 453 OFFCURVE",
"114 540 CURVE SMOOTH",
"114 714 LINE",
"39 714 LINE",
"39 543 LINE SMOOTH",
"39 405 OFFCURVE",
"87 334 OFFCURVE",
"183 334 CURVE SMOOTH"
);
}
);
width = 591;
},
{
layerId = "2D9103A3-690A-4A3E-A4A3-539A9A9AB4B9";
paths = (
{
closed = 1;
nodes = (
"233 355 OFFCURVE",
"262 370 OFFCURVE",
"292 404 CURVE",
"323 368 OFFCURVE",
"352 355 OFFCURVE",
"400 355 CURVE SMOOTH",
"525 355 OFFCURVE",
"553 447 OFFCURVE",
"553 579 CURVE SMOOTH",
"553 714 LINE",
"435 714 LINE",
"435 541 LINE SMOOTH",
"435 485 OFFCURVE",
"417 463 OFFCURVE",
"392 463 CURVE SMOOTH",
"367 463 OFFCURVE",
"350 485 OFFCURVE",
"350 541 CURVE SMOOTH",
"350 714 LINE",
"232 714 LINE",
"232 541 LINE SMOOTH",
"232 485 OFFCURVE",
"215 463 OFFCURVE",
"189 463 CURVE SMOOTH",
"165 463 OFFCURVE",
"147 485 OFFCURVE",
"147 541 CURVE SMOOTH",
"147 714 LINE",
"29 714 LINE",
"29 569 LINE SMOOTH",
"29 422 OFFCURVE",
"79 355 OFFCURVE",
"183 355 CURVE SMOOTH"
);
}
);
width = 582;
},
{
layerId = "FA7FA507-24BC-4772-BCBB-4BDCA0277846";
paths = (
{
closed = 1;
nodes = (
"234 351 OFFCURVE",
"267 369 OFFCURVE",
"296 409 CURVE",
"327 368 OFFCURVE",
"360 351 OFFCURVE",
"407 351 CURVE SMOOTH",
"517 351 OFFCURVE",
"553 433 OFFCURVE",
"553 567 CURVE SMOOTH",
"553 714 LINE",
"454 714 LINE",
"454 549 LINE SMOOTH",
"454 484 OFFCURVE",
"439 441 OFFCURVE",
"401 441 CURVE SMOOTH",
"361 441 OFFCURVE",
"346 484 OFFCURVE",
"346 549 CURVE SMOOTH",
"346 714 LINE",
"246 714 LINE",
"246 549 LINE SMOOTH",
"246 486 OFFCURVE",
"232 441 OFFCURVE",
"193 441 CURVE SMOOTH",
"159 441 OFFCURVE",
"138 474 OFFCURVE",
"138 542 CURVE SMOOTH",
"138 714 LINE",
"39 714 LINE",
"39 560 LINE SMOOTH",
"39 419 OFFCURVE",
"88 351 OFFCURVE",
"187 351 CURVE SMOOTH"
);
}
);
width = 592;
}
);
note = uni141C;
unicode = 141C;
},
{
glyphname = uni141D;
lastChange = "2018-03-08 14:01:59 +0000";
layers = (
{
layerId = "2E7E08E9-F197-422C-8C87-7E7891F2A291";
paths = (
{
closed = 1;
nodes = (
"429 526 OFFCURVE",
"472 569 OFFCURVE",
"472 622 CURVE SMOOTH",
"472 675 OFFCURVE",
"429 718 OFFCURVE",
"376 718 CURVE SMOOTH",
"323 718 OFFCURVE",
"280 675 OFFCURVE",
"280 622 CURVE SMOOTH",
"280 569 OFFCURVE",
"323 526 OFFCURVE",
"376 526 CURVE SMOOTH"
);
},
{
closed = 1;
nodes = (
"198 356 OFFCURVE",
"241 399 OFFCURVE",
"241 452 CURVE SMOOTH",
"241 505 OFFCURVE",
"198 548 OFFCURVE",
"145 548 CURVE SMOOTH",
"92 548 OFFCURVE",
"49 505 OFFCURVE",
"49 452 CURVE SMOOTH",
"49 399 OFFCURVE",
"92 356 OFFCURVE",
"145 356 CURVE SMOOTH"
);
},
{
closed = 1;
nodes = (
"104 378 OFFCURVE",
"72 411 OFFCURVE",
"72 452 CURVE SMOOTH",
"72 493 OFFCURVE",
"104 526 OFFCURVE",
"145 526 CURVE SMOOTH",
"186 526 OFFCURVE",
"218 493 OFFCURVE",
"218 452 CURVE SMOOTH",
"218 411 OFFCURVE",
"186 378 OFFCURVE",
"145 378 CURVE SMOOTH"
);
},
{
closed = 1;
nodes = (
"335 548 OFFCURVE",
"303 581 OFFCURVE",
"303 622 CURVE SMOOTH",
"303 663 OFFCURVE",
"335 696 OFFCURVE",
"376 696 CURVE SMOOTH",
"417 696 OFFCURVE",
"449 663 OFFCURVE",
"449 622 CURVE SMOOTH",
"449 581 OFFCURVE",
"417 548 OFFCURVE",
"376 548 CURVE SMOOTH"
);
}
);
width = 521;
},
{
layerId = "E326D6A0-72EF-479E-B72E-1071BD8CDE1B";
paths = (
{
closed = 1;
nodes = (
"464 507 OFFCURVE",
"515 554 OFFCURVE",
"515 616 CURVE SMOOTH",
"515 677 OFFCURVE",
"465 726 OFFCURVE",
"405 726 CURVE SMOOTH",
"342 726 OFFCURVE",
"295 675 OFFCURVE",
"295 616 CURVE SMOOTH",
"295 555 OFFCURVE",
"344 507 OFFCURVE",
"405 507 CURVE SMOOTH"
);
},
{
closed = 1;
nodes = (
"208 332 OFFCURVE",
"258 379 OFFCURVE",
"258 441 CURVE SMOOTH",
"258 502 OFFCURVE",
"209 551 OFFCURVE",
"148 551 CURVE SMOOTH",
"86 551 OFFCURVE",
"39 500 OFFCURVE",
"39 441 CURVE SMOOTH",
"39 380 OFFCURVE",
"87 332 OFFCURVE",
"148 332 CURVE SMOOTH"
);
},
{
closed = 1;
nodes = (
"117 384 OFFCURVE",
"91 410 OFFCURVE",
"91 441 CURVE SMOOTH",
"91 473 OFFCURVE",
"117 499 OFFCURVE",
"148 499 CURVE SMOOTH",
"180 499 OFFCURVE",
"206 473 OFFCURVE",
"206 441 CURVE SMOOTH",
"206 410 OFFCURVE",
"180 384 OFFCURVE",
"148 384 CURVE SMOOTH"
);
},
{
closed = 1;
nodes = (
"374 559 OFFCURVE",
"348 585 OFFCURVE",
"348 616 CURVE SMOOTH",
"348 648 OFFCURVE",
"373 673 OFFCURVE",
"405 673 CURVE SMOOTH",
"437 673 OFFCURVE",
"462 648 OFFCURVE",
"462 616 CURVE SMOOTH",
"462 584 OFFCURVE",
"437 559 OFFCURVE",
"405 559 CURVE SMOOTH"
);
}
);
width = 554;
},
{
layerId = "2D9103A3-690A-4A3E-A4A3-539A9A9AB4B9";
paths = (
{
closed = 1;
nodes = (
"539 459 OFFCURVE",
"599 518 OFFCURVE",
"599 591 CURVE SMOOTH",
"599 665 OFFCURVE",
"539 724 OFFCURVE",
"466 724 CURVE SMOOTH",
"392 724 OFFCURVE",
"333 665 OFFCURVE",
"333 591 CURVE SMOOTH",
"333 518 OFFCURVE",
"392 459 OFFCURVE",
"466 459 CURVE SMOOTH"
);
},
{
closed = 1;
nodes = (
"235 347 OFFCURVE",
"295 406 OFFCURVE",
"295 479 CURVE SMOOTH",
"295 553 OFFCURVE",
"235 612 OFFCURVE",
"162 612 CURVE SMOOTH",
"88 612 OFFCURVE",
"29 553 OFFCURVE",
"29 479 CURVE SMOOTH",
"29 406 OFFCURVE",
"88 347 OFFCURVE",
"162 347 CURVE SMOOTH"
);
},
{
closed = 1;
nodes = (
"137 429 OFFCURVE",
"116 450 OFFCURVE",
"116 479 CURVE SMOOTH",
"116 509 OFFCURVE",
"137 529 OFFCURVE",
"162 529 CURVE SMOOTH",
"188 529 OFFCURVE",
"208 509 OFFCURVE",
"208 479 CURVE SMOOTH",
"208 450 OFFCURVE",
"188 429 OFFCURVE",
"162 429 CURVE SMOOTH"
);
},
{
closed = 1;
nodes = (
"440 541 OFFCURVE",
"420 562 OFFCURVE",
"420 591 CURVE SMOOTH",
"420 621 OFFCURVE",
"440 641 OFFCURVE",
"466 641 CURVE SMOOTH",
"491 641 OFFCURVE",
"512 621 OFFCURVE",
"512 591 CURVE SMOOTH",
"512 562 OFFCURVE",
"491 541 OFFCURVE",
"466 541 CURVE SMOOTH"
);
}
);
width = 628;
},
{
layerId = "FA7FA507-24BC-4772-BCBB-4BDCA0277846";
paths = (
{
closed = 1;
nodes = (
"508 482 OFFCURVE",
"564 535 OFFCURVE",
"564 603 CURVE SMOOTH",
"564 671 OFFCURVE",
"509 725 OFFCURVE",
"442 725 CURVE SMOOTH",
"373 725 OFFCURVE",
"320 670 OFFCURVE",
"320 603 CURVE SMOOTH",
"320 536 OFFCURVE",
"374 482 OFFCURVE",
"442 482 CURVE SMOOTH"
);
},
{
closed = 1;
nodes = (
"228 345 OFFCURVE",
"282 398 OFFCURVE",
"282 466 CURVE SMOOTH",
"282 534 OFFCURVE",
"228 588 OFFCURVE",
"161 588 CURVE SMOOTH",
"92 588 OFFCURVE",
"39 533 OFFCURVE",
"39 466 CURVE SMOOTH",
"39 399 OFFCURVE",
"93 345 OFFCURVE",
"161 345 CURVE SMOOTH"
);
},
{
closed = 1;
nodes = (
"133 414 OFFCURVE",
"111 437 OFFCURVE",
"111 466 CURVE SMOOTH",
"111 497 OFFCURVE",
"133 519 OFFCURVE",
"161 519 CURVE SMOOTH",
"188 519 OFFCURVE",
"211 497 OFFCURVE",
"211 466 CURVE SMOOTH",
"211 437 OFFCURVE",
"188 414 OFFCURVE",
"161 414 CURVE SMOOTH"
);
},
{
closed = 1;
nodes = (
"414 551 OFFCURVE",
"392 573 OFFCURVE",
"392 603 CURVE SMOOTH",
"392 633 OFFCURVE",
"414 655 OFFCURVE",
"442 655 CURVE SMOOTH",
"470 655 OFFCURVE",
"492 633 OFFCURVE",
"492 603 CURVE SMOOTH",
"492 573 OFFCURVE",
"470 551 OFFCURVE",
"442 551 CURVE SMOOTH"
);
}
);
width = 603;
}
);
note = uni141D;
unicode = 141D;
},
{
glyphname = uni141E;
lastChange = "2018-03-08 14:01:59 +0000";
layers = (
{
layerId = "2E7E08E9-F197-422C-8C87-7E7891F2A291";
paths = (
{
closed = 1;
nodes = (
"491 342 LINE",
"491 348 LINE",
"270 725 LINE",
"259 725 LINE",
"39 348 LINE",
"39 342 LINE"
);
},
{
closed = 1;
nodes = (
"265 687 LINE",
"453 364 LINE",
"76 364 LINE"
);
}
);
width = 530;
},
{
layerId = "E326D6A0-72EF-479E-B72E-1071BD8CDE1B";
paths = (
{
closed = 1;
nodes = (
"462 342 LINE",
"462 364 LINE",
"256 736 LINE",
"235 736 LINE",
"29 364 LINE",
"29 342 LINE"
);
},
{
closed = 1;
nodes = (
"245 606 LINE",
"355 409 LINE",
"136 409 LINE"
);
}
);
width = 491;
},
{
layerId = "2D9103A3-690A-4A3E-A4A3-539A9A9AB4B9";
paths = (
{
closed = 1;
nodes = (
"499 307 LINE",
"499 330 LINE",
"271 726 LINE",
"248 726 LINE",
"19 330 LINE",
"19 307 LINE"
);
},
{
closed = 1;
nodes = (
"259 540 LINE",
"328 412 LINE",
"190 412 LINE"
);
}
);
width = 518;
},
{
layerId = "FA7FA507-24BC-4772-BCBB-4BDCA0277846";
paths = (
{
closed = 1;
nodes = (
"484 332 LINE",
"484 355 LINE",
"268 736 LINE",
"246 736 LINE",
"29 355 LINE",
"29 332 LINE"
);
},
{
closed = 1;
nodes = (
"256 575 LINE",
"342 420 LINE",
"172 420 LINE"
);
}
);
width = 513;
}
);
note = uni141E;
unicode = 141E;
},
{
glyphname = uni141F;
lastChange = "2018-03-08 14:01:59 +0000";
layers = (
{
layerId = "2E7E08E9-F197-422C-8C87-7E7891F2A291";
paths = (
{
closed = 1;
nodes = (
"57 352 LINE",
"233 714 LINE",
"205 714 LINE",
"29 352 LINE"
);
}
);
width = 262;
},
{
layerId = "E326D6A0-72EF-479E-B72E-1071BD8CDE1B";
paths = (
{
closed = 1;
nodes = (
"112 342 LINE",
"288 714 LINE",
"204 714 LINE",
"29 342 LINE"
);
}
);
width = 317;
},
{
layerId = "2D9103A3-690A-4A3E-A4A3-539A9A9AB4B9";
paths = (
{
closed = 1;
nodes = (
"137 317 LINE",
"347 714 LINE",
"229 714 LINE",
"19 317 LINE"
);
}
);
width = 366;
},
{
layerId = "FA7FA507-24BC-4772-BCBB-4BDCA0277846";
paths = (
{
closed = 1;
nodes = (
"132 332 LINE",
"325 714 LINE",
"222 714 LINE",
"29 332 LINE"
);
}
);
width = 354;
}
);
note = uni141F;
unicode = 141F;
},
{
glyphname = uni1420;
lastChange = "2018-03-08 14:01:59 +0000";
layers = (
{
layerId = "2E7E08E9-F197-422C-8C87-7E7891F2A291";
paths = (
{
closed = 1;
nodes = (
"233 352 LINE",
"57 714 LINE",
"29 714 LINE",
"205 352 LINE"
);
}
);
width = 262;
},
{
layerId = "E326D6A0-72EF-479E-B72E-1071BD8CDE1B";
paths = (
{
closed = 1;
nodes = (
"283 342 LINE",
"108 714 LINE",
"24 714 LINE",
"200 342 LINE"
);
}
);
width = 307;
},
{
layerId = "2D9103A3-690A-4A3E-A4A3-539A9A9AB4B9";
paths = (
{
closed = 1;
nodes = (
"347 317 LINE",
"137 714 LINE",
"19 714 LINE",
"229 317 LINE"
);
}
);
width = 366;
},
{
layerId = "FA7FA507-24BC-4772-BCBB-4BDCA0277846";
paths = (
{
closed = 1;
nodes = (
"320 332 LINE",
"127 714 LINE",
"24 714 LINE",
"218 332 LINE"
);
}
);
width = 344;
}
);
note = uni1420;
unicode = 1420;
},
{
glyphname = uni1421;
lastChange = "2018-03-08 14:01:59 +0000";
layers = (
{
layerId = "2E7E08E9-F197-422C-8C87-7E7891F2A291";
paths = (
{
closed = 1;
nodes = (
"304 393 OFFCURVE",
"337 455 OFFCURVE",
"337 572 CURVE SMOOTH",
"337 714 LINE",
"313 714 LINE",
"313 582 LINE SMOOTH",
"313 462 OFFCURVE",
"282 413 OFFCURVE",
"193 413 CURVE SMOOTH",
"104 413 OFFCURVE",
"73 462 OFFCURVE",
"73 582 CURVE SMOOTH",
"73 714 LINE",
"49 714 LINE",
"49 572 LINE SMOOTH",
"49 455 OFFCURVE",
"82 393 OFFCURVE",
"193 393 CURVE SMOOTH"
);
}
);
width = 386;
},
{
layerId = "E326D6A0-72EF-479E-B72E-1071BD8CDE1B";
paths = (
{
closed = 1;
nodes = (
"313 383 OFFCURVE",
"365 437 OFFCURVE",
"365 567 CURVE SMOOTH",
"365 714 LINE",
"290 714 LINE",
"290 574 LINE SMOOTH",
"290 488 OFFCURVE",
"261 451 OFFCURVE",
"201 451 CURVE SMOOTH",
"142 451 OFFCURVE",
"114 490 OFFCURVE",
"114 574 CURVE SMOOTH",
"114 714 LINE",
"39 714 LINE",
"39 567 LINE SMOOTH",
"39 438 OFFCURVE",
"91 383 OFFCURVE",
"201 383 CURVE SMOOTH"
);
}
);
width = 404;
},
{
layerId = "2D9103A3-690A-4A3E-A4A3-539A9A9AB4B9";
paths = (
{
closed = 1;
nodes = (
"353 355 OFFCURVE",
"392 440 OFFCURVE",
"392 579 CURVE SMOOTH",
"392 714 LINE",
"273 714 LINE",
"273 541 LINE SMOOTH",
"273 485 OFFCURVE",
"246 463 OFFCURVE",
"210 463 CURVE SMOOTH",
"175 463 OFFCURVE",
"148 485 OFFCURVE",
"148 541 CURVE SMOOTH",
"148 714 LINE",
"29 714 LINE",
"29 569 LINE SMOOTH",
"29 418 OFFCURVE",
"90 355 OFFCURVE",
"210 355 CURVE SMOOTH"
);
}
);
width = 421;
},
{
layerId = "FA7FA507-24BC-4772-BCBB-4BDCA0277846";
paths = (
{
closed = 1;
nodes = (
"339 371 OFFCURVE",
"382 442 OFFCURVE",
"382 576 CURVE SMOOTH",
"382 714 LINE",
"283 714 LINE",
"283 556 LINE SMOOTH",
"283 489 OFFCURVE",
"255 461 OFFCURVE",
"210 461 CURVE SMOOTH",
"166 461 OFFCURVE",
"138 489 OFFCURVE",
"138 556 CURVE SMOOTH",
"138 714 LINE",
"39 714 LINE",
"39 570 LINE SMOOTH",
"39 430 OFFCURVE",
"95 371 OFFCURVE",
"210 371 CURVE SMOOTH"
);
}
);
width = 421;
}
);
note = uni1421;
unicode = 1421;
},
{
glyphname = uni1422;
lastChange = "2018-03-08 14:01:59 +0000";
layers = (
{
layerId = "2E7E08E9-F197-422C-8C87-7E7891F2A291";
paths = (
{
closed = 1;
nodes = (
"73 400 LINE",
"73 532 LINE SMOOTH",
"73 652 OFFCURVE",
"104 701 OFFCURVE",
"193 701 CURVE SMOOTH",
"282 701 OFFCURVE",
"313 652 OFFCURVE",
"313 532 CURVE SMOOTH",
"313 400 LINE",
"337 400 LINE",
"337 542 LINE SMOOTH",
"337 659 OFFCURVE",
"304 721 OFFCURVE",
"193 721 CURVE SMOOTH",
"82 721 OFFCURVE",
"49 659 OFFCURVE",
"49 542 CURVE SMOOTH",
"49 400 LINE"
);
}
);
width = 386;
},
{
layerId = "E326D6A0-72EF-479E-B72E-1071BD8CDE1B";
paths = (
{
closed = 1;
nodes = (
"114 391 LINE",
"114 530 LINE SMOOTH",
"114 615 OFFCURVE",
"142 654 OFFCURVE",
"201 654 CURVE SMOOTH",
"261 654 OFFCURVE",
"290 616 OFFCURVE",
"290 530 CURVE SMOOTH",
"290 391 LINE",
"365 391 LINE",
"365 537 LINE SMOOTH",
"365 667 OFFCURVE",
"314 721 OFFCURVE",
"201 721 CURVE SMOOTH",
"91 721 OFFCURVE",
"39 667 OFFCURVE",
"39 537 CURVE SMOOTH",
"39 391 LINE"
);
}
);
width = 404;
},
{
layerId = "2D9103A3-690A-4A3E-A4A3-539A9A9AB4B9";
paths = (
{
closed = 1;
nodes = (
"148 367 LINE",
"148 540 LINE SMOOTH",
"148 596 OFFCURVE",
"175 618 OFFCURVE",
"210 618 CURVE SMOOTH",
"246 618 OFFCURVE",
"273 596 OFFCURVE",
"273 540 CURVE SMOOTH",
"273 367 LINE",
"392 367 LINE",
"392 502 LINE SMOOTH",
"392 641 OFFCURVE",
"353 726 OFFCURVE",
"210 726 CURVE SMOOTH",
"90 726 OFFCURVE",
"29 663 OFFCURVE",
"29 512 CURVE SMOOTH",
"29 367 LINE"
);
}
);
width = 421;
},
{
layerId = "FA7FA507-24BC-4772-BCBB-4BDCA0277846";
paths = (
{
closed = 1;
nodes = (
"138 381 LINE",
"138 538 LINE SMOOTH",
"138 606 OFFCURVE",
"166 634 OFFCURVE",
"210 634 CURVE SMOOTH",
"255 634 OFFCURVE",
"283 606 OFFCURVE",
"283 538 CURVE SMOOTH",
"283 381 LINE",
"382 381 LINE",
"382 519 LINE SMOOTH",
"382 653 OFFCURVE",
"339 724 OFFCURVE",
"210 724 CURVE SMOOTH",
"95 724 OFFCURVE",
"39 665 OFFCURVE",
"39 525 CURVE SMOOTH",
"39 381 LINE"
);
}
);
width = 421;
}
);
note = uni1422;
unicode = 1422;
},
{
glyphname = uni1423;
lastChange = "2018-03-08 14:01:59 +0000";
layers = (
{
layerId = "2E7E08E9-F197-422C-8C87-7E7891F2A291";
paths = (
{
closed = 1;
nodes = (
"141 382 LINE SMOOTH",
"261 382 OFFCURVE",
"320 437 OFFCURVE",
"320 548 CURVE SMOOTH",
"320 659 OFFCURVE",
"261 714 OFFCURVE",
"141 714 CURVE SMOOTH",
"49 714 LINE",
"49 692 LINE",
"140 692 LINE SMOOTH",
"263 692 OFFCURVE",
"296 634 OFFCURVE",
"296 548 CURVE SMOOTH",
"296 462 OFFCURVE",
"263 404 OFFCURVE",
"140 404 CURVE SMOOTH",
"49 404 LINE",
"49 382 LINE"
);
}
);
width = 369;
},
{
layerId = "E326D6A0-72EF-479E-B72E-1071BD8CDE1B";
paths = (
{
closed = 1;
nodes = (
"92 342 LINE SMOOTH",
"256 342 OFFCURVE",
"324 400 OFFCURVE",
"324 537 CURVE SMOOTH",
"324 659 OFFCURVE",
"250 714 OFFCURVE",
"102 714 CURVE SMOOTH",
"39 714 LINE",
"39 646 LINE",
"103 646 LINE SMOOTH",
"207 646 OFFCURVE",
"249 611 OFFCURVE",
"249 537 CURVE SMOOTH",
"249 447 OFFCURVE",
"215 409 OFFCURVE",
"84 409 CURVE SMOOTH",
"39 409 LINE",
"39 342 LINE"
);
}
);
width = 363;
},
{
layerId = "2D9103A3-690A-4A3E-A4A3-539A9A9AB4B9";
paths = (
{
closed = 1;
nodes = (
"111 317 LINE SMOOTH",
"283 317 OFFCURVE",
"359 379 OFFCURVE",
"359 518 CURVE SMOOTH",
"359 655 OFFCURVE",
"285 714 OFFCURVE",
"123 714 CURVE SMOOTH",
"29 714 LINE",
"29 606 LINE",
"130 606 LINE SMOOTH",
"211 606 OFFCURVE",
"241 579 OFFCURVE",
"241 517 CURVE SMOOTH",
"241 454 OFFCURVE",
"211 425 OFFCURVE",
"114 425 CURVE SMOOTH",
"29 425 LINE",
"29 317 LINE"
);
}
);
width = 388;
},
{
layerId = "FA7FA507-24BC-4772-BCBB-4BDCA0277846";
paths = (
{
closed = 1;
nodes = (
"109 332 LINE SMOOTH",
"275 332 OFFCURVE",
"347 392 OFFCURVE",
"347 528 CURVE SMOOTH",
"347 657 OFFCURVE",
"274 714 OFFCURVE",
"119 714 CURVE SMOOTH",
"39 714 LINE",
"39 624 LINE",
"124 624 LINE SMOOTH",
"214 624 OFFCURVE",
"248 594 OFFCURVE",
"248 528 CURVE SMOOTH",
"248 454 OFFCURVE",
"217 422 OFFCURVE",
"107 422 CURVE SMOOTH",
"39 422 LINE",
"39 332 LINE"
);
}
);
width = 386;
}
);
note = uni1423;
unicode = 1423;
},
{
glyphname = uni1424;
lastChange = "2018-03-08 14:01:59 +0000";
layers = (
{
layerId = "2E7E08E9-F197-422C-8C87-7E7891F2A291";
paths = (
{
closed = 1;
nodes = (
"295 401 OFFCURVE",
"366 472 OFFCURVE",
"366 558 CURVE SMOOTH",
"366 644 OFFCURVE",
"293 714 OFFCURVE",
"207 714 CURVE SMOOTH",
"122 714 OFFCURVE",
"49 644 OFFCURVE",
"49 558 CURVE SMOOTH",
"49 472 OFFCURVE",
"120 401 OFFCURVE",
"207 401 CURVE SMOOTH"
);
},
{
closed = 1;
nodes = (
"133 423 OFFCURVE",
"73 485 OFFCURVE",
"73 559 CURVE SMOOTH",
"73 633 OFFCURVE",
"135 693 OFFCURVE",
"207 693 CURVE SMOOTH",
"279 693 OFFCURVE",
"342 633 OFFCURVE",
"342 559 CURVE SMOOTH",
"342 486 OFFCURVE",
"281 423 OFFCURVE",
"207 423 CURVE SMOOTH"
);
}
);
width = 415;
},
{
layerId = "E326D6A0-72EF-479E-B72E-1071BD8CDE1B";
paths = (
{
closed = 1;
nodes = (
"306 383 OFFCURVE",
"382 459 OFFCURVE",
"382 552 CURVE SMOOTH",
"382 646 OFFCURVE",
"304 721 OFFCURVE",
"210 721 CURVE SMOOTH",
"118 721 OFFCURVE",
"39 646 OFFCURVE",
"39 552 CURVE SMOOTH",
"39 459 OFFCURVE",
"116 383 OFFCURVE",
"210 383 CURVE SMOOTH"
);
},
{
closed = 1;
nodes = (
"156 453 OFFCURVE",
"114 499 OFFCURVE",
"114 553 CURVE SMOOTH",
"114 608 OFFCURVE",
"158 652 OFFCURVE",
"210 652 CURVE SMOOTH",
"263 652 OFFCURVE",
"307 607 OFFCURVE",
"307 553 CURVE SMOOTH",
"307 500 OFFCURVE",
"264 453 OFFCURVE",
"210 453 CURVE SMOOTH"
);
}
);
width = 421;
},
{
layerId = "2D9103A3-690A-4A3E-A4A3-539A9A9AB4B9";
paths = (
{
closed = 1;
nodes = (
"358 315 OFFCURVE",
"441 406 OFFCURVE",
"441 518 CURVE SMOOTH",
"441 631 OFFCURVE",
"357 721 OFFCURVE",
"235 721 CURVE SMOOTH",
"113 721 OFFCURVE",
"29 631 OFFCURVE",
"29 518 CURVE SMOOTH",
"29 406 OFFCURVE",
"112 315 OFFCURVE",
"235 315 CURVE SMOOTH"
);
},
{
closed = 1;
nodes = (
"177 423 OFFCURVE",
"147 467 OFFCURVE",
"147 518 CURVE SMOOTH",
"147 571 OFFCURVE",
"179 613 OFFCURVE",
"235 613 CURVE SMOOTH",
"292 613 OFFCURVE",
"323 570 OFFCURVE",
"323 519 CURVE SMOOTH",
"323 468 OFFCURVE",
"293 423 OFFCURVE",
"235 423 CURVE SMOOTH"
);
}
);
width = 470;
},
{
layerId = "FA7FA507-24BC-4772-BCBB-4BDCA0277846";
paths = (
{
closed = 1;
nodes = (
"339 348 OFFCURVE",
"418 431 OFFCURVE",
"418 534 CURVE SMOOTH",
"418 638 OFFCURVE",
"338 721 OFFCURVE",
"228 721 CURVE SMOOTH",
"120 721 OFFCURVE",
"39 638 OFFCURVE",
"39 534 CURVE SMOOTH",
"39 431 OFFCURVE",
"119 348 OFFCURVE",
"228 348 CURVE SMOOTH"
);
},
{
closed = 1;
nodes = (
"173 439 OFFCURVE",
"138 483 OFFCURVE",
"138 535 CURVE SMOOTH",
"138 588 OFFCURVE",
"175 630 OFFCURVE",
"228 630 CURVE SMOOTH",
"283 630 OFFCURVE",
"319 587 OFFCURVE",
"319 535 CURVE SMOOTH",
"319 484 OFFCURVE",
"284 439 OFFCURVE",
"228 439 CURVE SMOOTH"
);
}
);
width = 457;
}
);
note = uni1424;
unicode = 1424;
},
{
glyphname = uni1425;
lastChange = "2018-03-08 14:01:59 +0000";
layers = (
{
layerId = "2E7E08E9-F197-422C-8C87-7E7891F2A291";
paths = (
{
closed = 1;
nodes = (
"185 352 LINE",
"361 714 LINE",
"333 714 LINE",
"157 352 LINE"
);
},
{
closed = 1;
nodes = (
"57 352 LINE",
"233 714 LINE",
"205 714 LINE",
"29 352 LINE"
);
}
);
width = 390;
},
{
layerId = "E326D6A0-72EF-479E-B72E-1071BD8CDE1B";
paths = (
{
closed = 1;
nodes = (
"261 342 LINE",
"437 714 LINE",
"353 714 LINE",
"178 342 LINE"
);
},
{
closed = 1;
nodes = (
"107 342 LINE",
"283 714 LINE",
"199 714 LINE",
"24 342 LINE"
);
}
);
width = 461;
},
{
layerId = "2D9103A3-690A-4A3E-A4A3-539A9A9AB4B9";
paths = (
{
closed = 1;
nodes = (
"320 317 LINE",
"530 714 LINE",
"412 714 LINE",
"202 317 LINE"
);
},
{
closed = 1;
nodes = (
"137 317 LINE",
"347 714 LINE",
"229 714 LINE",
"19 317 LINE"
);
}
);
width = 549;
},
{
layerId = "FA7FA507-24BC-4772-BCBB-4BDCA0277846";
paths = (
{
closed = 1;
nodes = (
"295 332 LINE",
"488 714 LINE",
"386 714 LINE",
"192 332 LINE"
);
},
{
closed = 1;
nodes = (
"127 332 LINE",
"320 714 LINE",
"218 714 LINE",
"24 332 LINE"
);
}
);
width = 512;
}
);
note = uni1425;
unicode = 1425;
},
{
glyphname = uni1426;
lastChange = "2018-03-08 14:01:59 +0000";
layers = (
{
layerId = "2E7E08E9-F197-422C-8C87-7E7891F2A291";
paths = (
{
closed = 1;
nodes = (
"226 352 LINE",
"226 714 LINE",
"202 714 LINE",
"202 352 LINE"
);
},
{
closed = 1;
nodes = (
"73 352 LINE",
"73 714 LINE",
"49 714 LINE",
"49 352 LINE"
);
}
);
width = 275;
},
{
layerId = "E326D6A0-72EF-479E-B72E-1071BD8CDE1B";
paths = (
{
closed = 1;
nodes = (
"266 342 LINE",
"266 714 LINE",
"190 714 LINE",
"190 342 LINE"
);
},
{
closed = 1;
nodes = (
"114 342 LINE",
"114 714 LINE",
"39 714 LINE",
"39 342 LINE"
);
}
);
width = 305;
},
{
layerId = "2D9103A3-690A-4A3E-A4A3-539A9A9AB4B9";
paths = (
{
closed = 1;
nodes = (
"335 317 LINE",
"335 714 LINE",
"217 714 LINE",
"217 317 LINE"
);
},
{
closed = 1;
nodes = (
"147 317 LINE",
"147 714 LINE",
"29 714 LINE",
"29 317 LINE"
);
}
);
width = 364;
},
{
layerId = "FA7FA507-24BC-4772-BCBB-4BDCA0277846";
paths = (
{
closed = 1;
nodes = (
"309 332 LINE",
"309 714 LINE",
"210 714 LINE",
"210 332 LINE"
);
},
{
closed = 1;
nodes = (
"138 332 LINE",
"138 714 LINE",
"39 714 LINE",
"39 332 LINE"
);
}
);
width = 348;
}
);
note = uni1426;
unicode = 1426;
},
{
glyphname = uni1427;
lastChange = "2018-03-08 14:01:59 +0000";
layers = (
{
layerId = "2E7E08E9-F197-422C-8C87-7E7891F2A291";
paths = (
{
closed = 1;
nodes = (
"111 324 OFFCURVE",
"126 338 OFFCURVE",
"126 357 CURVE SMOOTH",
"126 375 OFFCURVE",
"111 390 OFFCURVE",
"93 390 CURVE SMOOTH",
"74 390 OFFCURVE",
"59 375 OFFCURVE",
"59 357 CURVE SMOOTH",
"59 338 OFFCURVE",
"74 324 OFFCURVE",
"93 324 CURVE SMOOTH"
);
}
);
width = 185;
},
{
layerId = "E326D6A0-72EF-479E-B72E-1071BD8CDE1B";
paths = (
{
closed = 1;
nodes = (
"141 300 OFFCURVE",
"167 327 OFFCURVE",
"167 359 CURVE SMOOTH",
"167 392 OFFCURVE",
"141 418 OFFCURVE",
"108 418 CURVE SMOOTH",
"75 418 OFFCURVE",
"49 392 OFFCURVE",
"49 359 CURVE SMOOTH",
"49 327 OFFCURVE",
"75 300 OFFCURVE",
"108 300 CURVE SMOOTH"
);
}
);
width = 216;
},
{
layerId = "2D9103A3-690A-4A3E-A4A3-539A9A9AB4B9";
paths = (
{
closed = 1;
nodes = (
"169 274 OFFCURVE",
"207 311 OFFCURVE",
"207 358 CURVE SMOOTH",
"207 404 OFFCURVE",
"169 442 OFFCURVE",
"123 442 CURVE SMOOTH",
"76 442 OFFCURVE",
"39 404 OFFCURVE",
"39 358 CURVE SMOOTH",
"39 311 OFFCURVE",
"76 274 OFFCURVE",
"123 274 CURVE SMOOTH"
);
}
);
width = 246;
},
{
layerId = "FA7FA507-24BC-4772-BCBB-4BDCA0277846";
paths = (
{
closed = 1;
nodes = (
"164 285 OFFCURVE",
"197 318 OFFCURVE",
"197 358 CURVE SMOOTH",
"197 399 OFFCURVE",
"164 432 OFFCURVE",
"123 432 CURVE SMOOTH",
"82 432 OFFCURVE",
"49 399 OFFCURVE",
"49 358 CURVE SMOOTH",
"49 318 OFFCURVE",
"82 285 OFFCURVE",
"123 285 CURVE SMOOTH"
);
}
);
width = 246;
}
);
note = uni1427;
unicode = 1427;
},
{
glyphname = uni1428;
lastChange = "2018-03-08 14:01:59 +0000";
layers = (
{
layerId = "2E7E08E9-F197-422C-8C87-7E7891F2A291";
paths = (
{
closed = 1;
nodes = (
"406 522 LINE",
"406 544 LINE",
"49 544 LINE",
"49 522 LINE"
);
}
);
width = 455;
},
{
layerId = "E326D6A0-72EF-479E-B72E-1071BD8CDE1B";
paths = (
{
closed = 1;
nodes = (
"407 500 LINE",
"407 568 LINE",
"39 568 LINE",
"39 500 LINE"
);
}
);
width = 446;
},
{
layerId = "2D9103A3-690A-4A3E-A4A3-539A9A9AB4B9";
paths = (
{
closed = 1;
nodes = (
"407 485 LINE",
"407 591 LINE",
"39 591 LINE",
"39 485 LINE"
);
}
);
width = 446;
},
{
layerId = "FA7FA507-24BC-4772-BCBB-4BDCA0277846";
paths = (
{
closed = 1;
nodes = (
"407 491 LINE",
"407 582 LINE",
"39 582 LINE",
"39 491 LINE"
);
}
);
width = 446;
}
);
note = uni1428;
unicode = 1428;
},
{
glyphname = uni1429;
lastChange = "2018-03-08 14:01:59 +0000";
layers = (
{
layerId = "2E7E08E9-F197-422C-8C87-7E7891F2A291";
paths = (
{
closed = 1;
nodes = (
"239 352 LINE",
"239 522 LINE",
"405 522 LINE",
"405 544 LINE",
"239 544 LINE",
"239 714 LINE",
"215 714 LINE",
"215 544 LINE",
"49 544 LINE",
"49 522 LINE",
"215 522 LINE",
"215 352 LINE"
);
}
);
width = 454;
},
{
layerId = "E326D6A0-72EF-479E-B72E-1071BD8CDE1B";
paths = (
{
closed = 1;
nodes = (
"261 342 LINE",
"261 500 LINE",
"407 500 LINE",
"407 568 LINE",
"261 568 LINE",
"261 714 LINE",
"186 714 LINE",
"186 568 LINE",
"39 568 LINE",
"39 500 LINE",
"186 500 LINE",
"186 342 LINE"
);
}
);
width = 446;
},
{
layerId = "2D9103A3-690A-4A3E-A4A3-539A9A9AB4B9";
paths = (
{
closed = 1;
nodes = (
"269 328 LINE",
"269 474 LINE",
"401 474 LINE",
"401 580 LINE",
"269 580 LINE",
"269 714 LINE",
"153 714 LINE",
"153 580 LINE",
"19 580 LINE",
"19 474 LINE",
"153 474 LINE",
"153 328 LINE"
);
}
);
width = 420;
},
{
layerId = "FA7FA507-24BC-4772-BCBB-4BDCA0277846";
paths = (
{
closed = 1;
nodes = (
"278 334 LINE",
"278 485 LINE",
"415 485 LINE",
"415 575 LINE",
"278 575 LINE",
"278 714 LINE",
"179 714 LINE",
"179 575 LINE",
"39 575 LINE",
"39 485 LINE",
"179 485 LINE",
"179 334 LINE"
);
}
);
width = 454;
}
);
note = uni1429;
unicode = 1429;
},
{
glyphname = uni142A;
lastChange = "2018-03-08 14:01:59 +0000";
layers = (
{
layerId = "2E7E08E9-F197-422C-8C87-7E7891F2A291";
paths = (
{
closed = 1;
nodes = (
"208 352 LINE",
"208 692 LINE",
"343 692 LINE",
"343 714 LINE",
"49 714 LINE",
"49 692 LINE",
"184 692 LINE",
"184 352 LINE"
);
}
);
width = 392;
},
{
layerId = "E326D6A0-72EF-479E-B72E-1071BD8CDE1B";
paths = (
{
closed = 1;
nodes = (
"251 342 LINE",
"251 646 LINE",
"388 646 LINE",
"388 714 LINE",
"39 714 LINE",
"39 646 LINE",
"176 646 LINE",
"176 342 LINE"
);
}
);
width = 427;
},
{
layerId = "2D9103A3-690A-4A3E-A4A3-539A9A9AB4B9";
paths = (
{
closed = 1;
nodes = (
"269 325 LINE",
"269 608 LINE",
"392 608 LINE",
"392 714 LINE",
"29 714 LINE",
"29 608 LINE",
"153 608 LINE",
"153 325 LINE"
);
}
);
width = 421;
},
{
layerId = "FA7FA507-24BC-4772-BCBB-4BDCA0277846";
paths = (
{
closed = 1;
nodes = (
"268 332 LINE",
"268 624 LINE",
"396 624 LINE",
"396 714 LINE",
"39 714 LINE",
"39 624 LINE",
"169 624 LINE",
"169 332 LINE"
);
}
);
width = 435;
}
);
note = uni142A;
unicode = 142A;
},
{
glyphname = uni142F;
lastChange = "2018-03-08 14:01:59 +0000";
layers = (
{
layerId = "2E7E08E9-F197-422C-8C87-7E7891F2A291";
paths = (
{
closed = 1;
nodes = (
"410 -12 LINE",
"738 701 LINE",
"738 714 LINE",
"715 714 LINE",
"398 16 LINE",
"82 714 LINE",
"59 714 LINE",
"59 701 LINE",
"387 -12 LINE"
);
}
);
width = 797;
},
{
layerId = "E326D6A0-72EF-479E-B72E-1071BD8CDE1B";
paths = (
{
closed = 1;
nodes = (
"398 -12 LINE",
"728 704 LINE",
"728 714 LINE",
"645 714 LINE",
"388 139 LINE",
"132 714 LINE",
"49 714 LINE",
"49 704 LINE",
"378 -12 LINE"
);
}
);
width = 777;
},
{
layerId = "2D9103A3-690A-4A3E-A4A3-539A9A9AB4B9";
paths = (
{
closed = 1;
nodes = (
"440 -12 LINE",
"797 669 LINE",
"797 714 LINE",
"628 714 LINE",
"418 299 LINE",
"208 714 LINE",
"39 714 LINE",
"39 669 LINE",
"395 -12 LINE"
);
}
);
width = 836;
},
{
layerId = "FA7FA507-24BC-4772-BCBB-4BDCA0277846";
paths = (
{
closed = 1;
nodes = (
"429 -12 LINE",
"775 683 LINE",
"775 714 LINE",
"641 714 LINE",
"412 233 LINE",
"183 714 LINE",
"49 714 LINE",
"49 683 LINE",
"394 -12 LINE"
);
}
);
width = 824;
}
);
note = uni142F;
unicode = 142F;
},
{
glyphname = uni1431;
lastChange = "2018-03-08 14:01:59 +0000";
layers = (
{
layerId = "2E7E08E9-F197-422C-8C87-7E7891F2A291";
paths = (
{
closed = 1;
nodes = (
"82 0 LINE",
"398 698 LINE",
"715 0 LINE",
"738 0 LINE",
"738 13 LINE",
"410 726 LINE",
"387 726 LINE",
"59 13 LINE",
"59 0 LINE"
);
}
);
width = 797;
},
{
layerId = "E326D6A0-72EF-479E-B72E-1071BD8CDE1B";
paths = (
{
closed = 1;
nodes = (
"132 0 LINE",
"388 575 LINE",
"645 0 LINE",
"728 0 LINE",
"728 10 LINE",
"398 726 LINE",
"378 726 LINE",
"49 10 LINE",
"49 0 LINE"
);
}
);
width = 777;
},
{
layerId = "2D9103A3-690A-4A3E-A4A3-539A9A9AB4B9";
paths = (
{
closed = 1;
nodes = (
"208 0 LINE",
"418 415 LINE",
"628 0 LINE",
"797 0 LINE",
"797 45 LINE",
"440 726 LINE",
"395 726 LINE",
"39 45 LINE",
"39 0 LINE"
);
}
);
width = 836;
},
{
layerId = "FA7FA507-24BC-4772-BCBB-4BDCA0277846";
paths = (
{
closed = 1;
nodes = (
"183 0 LINE",
"420 481 LINE",
"657 0 LINE",
"791 0 LINE",
"791 31 LINE",
"437 726 LINE",
"402 726 LINE",
"49 31 LINE",
"49 0 LINE"
);
}
);
width = 839;
}
);
note = uni1431;
unicode = 1431;
},
{
glyphname = uni1433;
lastChange = "2018-03-08 14:01:59 +0000";
layers = (
{
layerId = "2E7E08E9-F197-422C-8C87-7E7891F2A291";
paths = (
{
closed = 1;
nodes = (
"69 -12 LINE",
"683 348 LINE",
"683 366 LINE",
"69 725 LINE",
"59 725 LINE",
"59 702 LINE",
"649 357 LINE",
"59 12 LINE",
"59 -12 LINE"
);
}
);
width = 732;
},
{
layerId = "E326D6A0-72EF-479E-B72E-1071BD8CDE1B";
paths = (
{
closed = 1;
nodes = (
"59 -10 LINE",
"672 350 LINE",
"672 364 LINE",
"59 725 LINE",
"49 725 LINE",
"49 641 LINE",
"547 357 LINE",
"49 74 LINE",
"49 -10 LINE"
);
}
);
width = 711;
},
{
layerId = "2D9103A3-690A-4A3E-A4A3-539A9A9AB4B9";
paths = (
{
closed = 1;
nodes = (
"84 -10 LINE",
"679 336 LINE",
"679 379 LINE",
"84 725 LINE",
"39 725 LINE",
"39 568 LINE",
"429 357 LINE",
"39 148 LINE",
"39 -10 LINE"
);
}
);
width = 708;
},
{
layerId = "FA7FA507-24BC-4772-BCBB-4BDCA0277846";
paths = (
{
closed = 1;
nodes = (
"79 -10 LINE",
"683 342 LINE",
"683 374 LINE",
"79 725 LINE",
"49 725 LINE",
"49 593 LINE",
"467 358 LINE",
"49 121 LINE",
"49 -10 LINE"
);
}
);
width = 722;
}
);
note = uni1433;
unicode = 1433;
},
{
glyphname = uni1438;
lastChange = "2018-03-08 14:01:59 +0000";
layers = (
{
layerId = "2E7E08E9-F197-422C-8C87-7E7891F2A291";
paths = (
{
closed = 1;
nodes = (
"673 -12 LINE",
"673 12 LINE",
"83 357 LINE",
"673 702 LINE",
"673 725 LINE",
"663 725 LINE",
"49 366 LINE",
"49 348 LINE",
"663 -12 LINE"
);
}
);
width = 732;
},
{
layerId = "E326D6A0-72EF-479E-B72E-1071BD8CDE1B";
paths = (
{
closed = 1;
nodes = (
"663 -10 LINE",
"663 74 LINE",
"165 357 LINE",
"663 641 LINE",
"663 725 LINE",
"653 725 LINE",
"39 364 LINE",
"39 350 LINE",
"653 -10 LINE"
);
}
);
width = 712;
},
{
layerId = "2D9103A3-690A-4A3E-A4A3-539A9A9AB4B9";
paths = (
{
closed = 1;
nodes = (
"669 -10 LINE",
"669 148 LINE",
"279 357 LINE",
"669 568 LINE",
"669 725 LINE",
"624 725 LINE",
"29 379 LINE",
"29 336 LINE",
"624 -10 LINE"
);
}
);
width = 708;
},
{
layerId = "FA7FA507-24BC-4772-BCBB-4BDCA0277846";
paths = (
{
closed = 1;
nodes = (
"673 -10 LINE",
"673 121 LINE",
"255 358 LINE",
"673 593 LINE",
"673 725 LINE",
"643 725 LINE",
"39 374 LINE",
"39 342 LINE",
"643 -10 LINE"
);
}
);
width = 722;
}
);
note = uni1438;
unicode = 1438;
},
{
glyphname = uni1449;
lastChange = "2018-03-08 14:01:59 +0000";
layers = (
{
layerId = "2E7E08E9-F197-422C-8C87-7E7891F2A291";
paths = (
{
closed = 1;
nodes = (
"330 361 LINE",
"63 531 LINE",
"330 700 LINE",
"330 726 LINE",
"29 535 LINE",
"29 526 LINE",
"330 336 LINE"
);
}
);
width = 379;
},
{
layerId = "E326D6A0-72EF-479E-B72E-1071BD8CDE1B";
paths = (
{
closed = 1;
nodes = (
"331 415 LINE",
"145 529 LINE",
"331 644 LINE",
"331 727 LINE",
"29 536 LINE",
"29 523 LINE",
"331 332 LINE"
);
}
);
width = 370;
},
{
layerId = "2D9103A3-690A-4A3E-A4A3-539A9A9AB4B9";
paths = (
{
closed = 1;
nodes = (
"388 448 LINE",
"218 540 LINE",
"388 632 LINE",
"388 753 LINE",
"19 555 LINE",
"19 525 LINE",
"388 327 LINE"
);
}
);
width = 417;
},
{
layerId = "FA7FA507-24BC-4772-BCBB-4BDCA0277846";
paths = (
{
closed = 1;
nodes = (
"371 434 LINE",
"194 535 LINE",
"371 637 LINE",
"371 742 LINE",
"29 547 LINE",
"29 524 LINE",
"371 329 LINE"
);
}
);
width = 410;
}
);
note = uni1449;
unicode = 1449;
},
{
glyphname = uni144A;
lastChange = "2018-03-08 14:01:59 +0000";
layers = (
{
layerId = "2E7E08E9-F197-422C-8C87-7E7891F2A291";
paths = (
{
closed = 1;
nodes = (
"93 352 LINE",
"93 714 LINE",
"69 714 LINE",
"69 352 LINE"
);
}
);
width = 162;
},
{
layerId = "E326D6A0-72EF-479E-B72E-1071BD8CDE1B";
paths = (
{
closed = 1;
nodes = (
"134 342 LINE",
"134 714 LINE",
"59 714 LINE",
"59 342 LINE"
);
}
);
width = 193;
},
{
layerId = "2D9103A3-690A-4A3E-A4A3-539A9A9AB4B9";
paths = (
{
closed = 1;
nodes = (
"165 325 LINE",
"165 714 LINE",
"49 714 LINE",
"49 325 LINE"
);
}
);
width = 214;
},
{
layerId = "FA7FA507-24BC-4772-BCBB-4BDCA0277846";
paths = (
{
closed = 1;
nodes = (
"158 332 LINE",
"158 714 LINE",
"59 714 LINE",
"59 332 LINE"
);
}
);
width = 217;
}
);
note = uni144A;
unicode = 144A;
},
{
glyphname = uni144B;
lastChange = "2018-03-08 14:01:59 +0000";
layers = (
{
layerId = "2E7E08E9-F197-422C-8C87-7E7891F2A291";
paths = (
{
closed = 1;
nodes = (
"268 342 LINE",
"268 488 LINE SMOOTH",
"268 558 OFFCURVE",
"230 600 OFFCURVE",
"169 600 CURVE SMOOTH",
"130 600 OFFCURVE",
"88 586 OFFCURVE",
"64 572 CURVE",
"64 545 LINE",
"85 560 OFFCURVE",
"123 577 OFFCURVE",
"164 577 CURVE SMOOTH",
"215 577 OFFCURVE",
"244 546 OFFCURVE",
"244 480 CURVE SMOOTH",
"244 342 LINE"
);
},
{
closed = 1;
nodes = (
"73 342 LINE",
"73 714 LINE",
"49 714 LINE",
"49 342 LINE"
);
}
);
width = 317;
},
{
layerId = "E326D6A0-72EF-479E-B72E-1071BD8CDE1B";
paths = (
{
closed = 1;
nodes = (
"313 342 LINE",
"313 502 LINE SMOOTH",
"313 566 OFFCURVE",
"270 608 OFFCURVE",
"202 608 CURVE SMOOTH",
"167 608 OFFCURVE",
"130 598 OFFCURVE",
"96 579 CURVE",
"96 512 LINE",
"131 530 OFFCURVE",
"149 539 OFFCURVE",
"181 539 CURVE SMOOTH",
"220 539 OFFCURVE",
"237 521 OFFCURVE",
"237 473 CURVE SMOOTH",
"237 342 LINE"
);
},
{
closed = 1;
nodes = (
"114 342 LINE",
"114 714 LINE",
"39 714 LINE",
"39 342 LINE"
);
}
);
width = 352;
},
{
layerId = "2D9103A3-690A-4A3E-A4A3-539A9A9AB4B9";
paths = (
{
closed = 1;
nodes = (
"373 326 LINE",
"373 503 LINE SMOOTH",
"373 589 OFFCURVE",
"317 625 OFFCURVE",
"244 625 CURVE SMOOTH",
"204 625 OFFCURVE",
"157 613 OFFCURVE",
"117 589 CURVE",
"117 490 LINE",
"149 514 OFFCURVE",
"177 519 OFFCURVE",
"204 519 CURVE SMOOTH",
"232 519 OFFCURVE",
"257 505 OFFCURVE",
"257 452 CURVE SMOOTH",
"257 326 LINE"
);
},
{
closed = 1;
nodes = (
"145 326 LINE",
"145 714 LINE",
"29 714 LINE",
"29 326 LINE"
);
}
);
width = 402;
},
{
layerId = "FA7FA507-24BC-4772-BCBB-4BDCA0277846";
paths = (
{
closed = 1;
nodes = (
"355 333 LINE",
"355 503 LINE SMOOTH",
"355 580 OFFCURVE",
"304 618 OFFCURVE",
"233 618 CURVE SMOOTH",
"195 618 OFFCURVE",
"152 607 OFFCURVE",
"114 585 CURVE",
"114 499 LINE",
"148 521 OFFCURVE",
"172 527 OFFCURVE",
"201 527 CURVE SMOOTH",
"233 527 OFFCURVE",
"255 512 OFFCURVE",
"255 461 CURVE SMOOTH",
"255 333 LINE"
);
},
{
closed = 1;
nodes = (
"138 333 LINE",
"138 714 LINE",
"39 714 LINE",
"39 333 LINE"
);
}
);
width = 394;
}
);
note = uni144B;
unicode = 144B;
},
{
glyphname = uni144C;
lastChange = "2018-03-08 14:01:59 +0000";
layers = (
{
layerId = "2E7E08E9-F197-422C-8C87-7E7891F2A291";
paths = (
{
closed = 1;
nodes = (
"590 -10 OFFCURVE",
"680 123 OFFCURVE",
"680 338 CURVE SMOOTH",
"680 714 LINE",
"654 714 LINE",
"654 338 LINE SMOOTH",
"654 136 OFFCURVE",
"576 15 OFFCURVE",
"380 15 CURVE SMOOTH",
"185 15 OFFCURVE",
"105 139 OFFCURVE",
"105 339 CURVE SMOOTH",
"105 714 LINE",
"79 714 LINE",
"79 339 LINE SMOOTH",
"79 123 OFFCURVE",
"171 -10 OFFCURVE",
"379 -10 CURVE SMOOTH"
);
}
);
width = 759;
},
{
layerId = "E326D6A0-72EF-479E-B72E-1071BD8CDE1B";
paths = (
{
closed = 1;
nodes = (
"630 -12 OFFCURVE",
"697 119 OFFCURVE",
"697 388 CURVE SMOOTH",
"697 714 LINE",
"619 714 LINE",
"619 393 LINE SMOOTH",
"619 176 OFFCURVE",
"582 59 OFFCURVE",
"380 59 CURVE SMOOTH",
"185 59 OFFCURVE",
"146 173 OFFCURVE",
"146 393 CURVE SMOOTH",
"146 714 LINE",
"68 714 LINE",
"68 388 LINE SMOOTH",
"68 128 OFFCURVE",
"134 -12 OFFCURVE",
"380 -12 CURVE SMOOTH"
);
}
);
width = 766;
},
{
layerId = "2D9103A3-690A-4A3E-A4A3-539A9A9AB4B9";
paths = (
{
closed = 1;
nodes = (
"672 -12 OFFCURVE",
"751 158 OFFCURVE",
"751 442 CURVE SMOOTH",
"751 714 LINE",
"560 714 LINE",
"560 379 LINE SMOOTH",
"560 215 OFFCURVE",
"508 151 OFFCURVE",
"405 151 CURVE SMOOTH",
"302 151 OFFCURVE",
"250 215 OFFCURVE",
"250 379 CURVE SMOOTH",
"250 714 LINE",
"59 714 LINE",
"59 420 LINE SMOOTH",
"59 116 OFFCURVE",
"180 -12 OFFCURVE",
"404 -12 CURVE SMOOTH"
);
}
);
width = 810;
},
{
layerId = "FA7FA507-24BC-4772-BCBB-4BDCA0277846";
paths = (
{
closed = 1;
nodes = (
"660 -12 OFFCURVE",
"734 142 OFFCURVE",
"734 420 CURVE SMOOTH",
"734 714 LINE",
"589 714 LINE",
"589 385 LINE SMOOTH",
"589 199 OFFCURVE",
"543 113 OFFCURVE",
"400 113 CURVE SMOOTH",
"259 113 OFFCURVE",
"212 198 OFFCURVE",
"212 385 CURVE SMOOTH",
"212 714 LINE",
"68 714 LINE",
"68 407 LINE SMOOTH",
"68 121 OFFCURVE",
"166 -12 OFFCURVE",
"399 -12 CURVE SMOOTH"
);
}
);
width = 803;
}
);
note = uni144C;
unicode = 144C;
},
{
glyphname = uni144E;
lastChange = "2018-03-08 14:01:59 +0000";
layers = (
{
layerId = "2E7E08E9-F197-422C-8C87-7E7891F2A291";
paths = (
{
closed = 1;
nodes = (
"105 0 LINE",
"105 377 LINE SMOOTH",
"105 577 OFFCURVE",
"185 701 OFFCURVE",
"380 701 CURVE SMOOTH",
"576 701 OFFCURVE",
"654 580 OFFCURVE",
"654 378 CURVE SMOOTH",
"654 0 LINE",
"680 0 LINE",
"680 378 LINE SMOOTH",
"680 593 OFFCURVE",
"590 726 OFFCURVE",
"379 726 CURVE SMOOTH",
"171 726 OFFCURVE",
"79 593 OFFCURVE",
"79 377 CURVE SMOOTH",
"79 0 LINE"
);
}
);
width = 759;
},
{
layerId = "E326D6A0-72EF-479E-B72E-1071BD8CDE1B";
paths = (
{
closed = 1;
nodes = (
"146 0 LINE",
"146 321 LINE SMOOTH",
"146 541 OFFCURVE",
"185 655 OFFCURVE",
"380 655 CURVE SMOOTH",
"582 655 OFFCURVE",
"619 538 OFFCURVE",
"619 321 CURVE SMOOTH",
"619 0 LINE",
"697 0 LINE",
"697 326 LINE SMOOTH",
"697 595 OFFCURVE",
"630 726 OFFCURVE",
"380 726 CURVE SMOOTH",
"134 726 OFFCURVE",
"68 586 OFFCURVE",
"68 326 CURVE SMOOTH",
"68 0 LINE"
);
}
);
width = 766;
},
{
layerId = "2D9103A3-690A-4A3E-A4A3-539A9A9AB4B9";
paths = (
{
closed = 1;
nodes = (
"250 0 LINE",
"250 335 LINE SMOOTH",
"250 499 OFFCURVE",
"302 563 OFFCURVE",
"405 563 CURVE SMOOTH",
"508 563 OFFCURVE",
"560 499 OFFCURVE",
"560 335 CURVE SMOOTH",
"560 0 LINE",
"751 0 LINE",
"751 272 LINE SMOOTH",
"751 556 OFFCURVE",
"672 726 OFFCURVE",
"404 726 CURVE SMOOTH",
"180 726 OFFCURVE",
"59 598 OFFCURVE",
"59 294 CURVE SMOOTH",
"59 0 LINE"
);
}
);
width = 810;
},
{
layerId = "FA7FA507-24BC-4772-BCBB-4BDCA0277846";
paths = (
{
closed = 1;
nodes = (
"212 0 LINE",
"212 329 LINE SMOOTH",
"212 516 OFFCURVE",
"259 601 OFFCURVE",
"400 601 CURVE SMOOTH",
"543 601 OFFCURVE",
"589 515 OFFCURVE",
"589 329 CURVE SMOOTH",
"589 0 LINE",
"734 0 LINE",
"734 294 LINE SMOOTH",
"734 572 OFFCURVE",
"660 726 OFFCURVE",
"399 726 CURVE SMOOTH",
"166 726 OFFCURVE",
"68 593 OFFCURVE",
"68 307 CURVE SMOOTH",
"68 0 LINE"
);
}
);
width = 803;
}
);
leftMetricsKey = "=uni144C";
note = uni144E;
rightMetricsKey = "=uni144C";
unicode = 144E;
},
{
glyphname = uni1450;
lastChange = "2018-03-08 14:01:59 +0000";
layers = (
{
layerId = "2E7E08E9-F197-422C-8C87-7E7891F2A291";
paths = (
{
closed = 1;
nodes = (
"198 0 LINE SMOOTH",
"464 0 OFFCURVE",
"578 121 OFFCURVE",
"578 358 CURVE SMOOTH",
"578 595 OFFCURVE",
"464 714 OFFCURVE",
"198 714 CURVE SMOOTH",
"59 714 LINE",
"59 689 LINE",
"188 689 LINE SMOOTH",
"450 689 OFFCURVE",
"551 579 OFFCURVE",
"551 357 CURVE SMOOTH",
"551 135 OFFCURVE",
"450 25 OFFCURVE",
"188 25 CURVE SMOOTH",
"59 25 LINE",
"59 0 LINE"
);
}
);
width = 657;
},
{
layerId = "E326D6A0-72EF-479E-B72E-1071BD8CDE1B";
paths = (
{
closed = 1;
nodes = (
"185 0 LINE SMOOTH",
"462 0 OFFCURVE",
"613 87 OFFCURVE",
"613 357 CURVE SMOOTH",
"613 627 OFFCURVE",
"462 714 OFFCURVE",
"185 714 CURVE SMOOTH",
"49 714 LINE",
"49 643 LINE",
"195 643 LINE SMOOTH",
"439 643 OFFCURVE",
"533 572 OFFCURVE",
"533 357 CURVE SMOOTH",
"533 142 OFFCURVE",
"439 71 OFFCURVE",
"195 71 CURVE SMOOTH",
"49 71 LINE",
"49 0 LINE"
);
}
);
width = 682;
},
{
layerId = "2D9103A3-690A-4A3E-A4A3-539A9A9AB4B9";
paths = (
{
closed = 1;
nodes = (
"197 0 LINE SMOOTH",
"484 0 OFFCURVE",
"645 97 OFFCURVE",
"645 357 CURVE SMOOTH",
"645 618 OFFCURVE",
"482 714 OFFCURVE",
"197 714 CURVE SMOOTH",
"39 714 LINE",
"39 558 LINE",
"195 558 LINE SMOOTH",
"356 558 OFFCURVE",
"451 503 OFFCURVE",
"451 357 CURVE SMOOTH",
"451 210 OFFCURVE",
"356 156 OFFCURVE",
"195 156 CURVE SMOOTH",
"39 156 LINE",
"39 0 LINE"
);
}
);
width = 704;
},
{
layerId = "FA7FA507-24BC-4772-BCBB-4BDCA0277846";
paths = (
{
closed = 1;
nodes = (
"186 0 LINE SMOOTH",
"493 0 OFFCURVE",
"638 87 OFFCURVE",
"638 357 CURVE SMOOTH",
"638 628 OFFCURVE",
"491 714 OFFCURVE",
"186 714 CURVE SMOOTH",
"49 714 LINE",
"49 593 LINE",
"207 593 LINE SMOOTH",
"399 593 OFFCURVE",
"491 526 OFFCURVE",
"491 357 CURVE SMOOTH",
"491 188 OFFCURVE",
"400 121 OFFCURVE",
"207 121 CURVE SMOOTH",
"49 121 LINE",
"49 0 LINE"
);
}
);
width = 707;
}
);
note = uni1450;
unicode = 1450;
},
{
glyphname = uni1455;
lastChange = "2018-03-08 14:01:59 +0000";
layers = (
{
layerId = "2E7E08E9-F197-422C-8C87-7E7891F2A291";
paths = (
{
closed = 1;
nodes = (
"598 0 LINE",
"598 25 LINE",
"469 25 LINE SMOOTH",
"207 25 OFFCURVE",
"106 135 OFFCURVE",
"106 357 CURVE SMOOTH",
"106 579 OFFCURVE",
"207 689 OFFCURVE",
"469 689 CURVE SMOOTH",
"598 689 LINE",
"598 714 LINE",
"459 714 LINE SMOOTH",
"193 714 OFFCURVE",
"79 595 OFFCURVE",
"79 358 CURVE SMOOTH",
"79 121 OFFCURVE",
"193 0 OFFCURVE",
"459 0 CURVE SMOOTH"
);
}
);
width = 657;
},
{
layerId = "E326D6A0-72EF-479E-B72E-1071BD8CDE1B";
paths = (
{
closed = 1;
nodes = (
"633 0 LINE",
"633 71 LINE",
"487 71 LINE SMOOTH",
"243 71 OFFCURVE",
"149 142 OFFCURVE",
"149 357 CURVE SMOOTH",
"149 572 OFFCURVE",
"243 643 OFFCURVE",
"487 643 CURVE SMOOTH",
"633 643 LINE",
"633 714 LINE",
"497 714 LINE SMOOTH",
"220 714 OFFCURVE",
"69 627 OFFCURVE",
"69 357 CURVE SMOOTH",
"69 87 OFFCURVE",
"220 0 OFFCURVE",
"497 0 CURVE SMOOTH"
);
}
);
width = 682;
},
{
layerId = "2D9103A3-690A-4A3E-A4A3-539A9A9AB4B9";
paths = (
{
closed = 1;
nodes = (
"665 0 LINE",
"665 156 LINE",
"509 156 LINE SMOOTH",
"348 156 OFFCURVE",
"253 210 OFFCURVE",
"253 357 CURVE SMOOTH",
"253 503 OFFCURVE",
"348 558 OFFCURVE",
"509 558 CURVE SMOOTH",
"665 558 LINE",
"665 714 LINE",
"507 714 LINE SMOOTH",
"222 714 OFFCURVE",
"59 618 OFFCURVE",
"59 357 CURVE SMOOTH",
"59 97 OFFCURVE",
"220 0 OFFCURVE",
"507 0 CURVE SMOOTH"
);
}
);
width = 704;
},
{
layerId = "FA7FA507-24BC-4772-BCBB-4BDCA0277846";
paths = (
{
closed = 1;
nodes = (
"658 0 LINE",
"658 121 LINE",
"500 121 LINE SMOOTH",
"307 121 OFFCURVE",
"216 188 OFFCURVE",
"216 357 CURVE SMOOTH",
"216 526 OFFCURVE",
"308 593 OFFCURVE",
"500 593 CURVE SMOOTH",
"658 593 LINE",
"658 714 LINE",
"521 714 LINE SMOOTH",
"216 714 OFFCURVE",
"69 628 OFFCURVE",
"69 357 CURVE SMOOTH",
"69 87 OFFCURVE",
"214 0 OFFCURVE",
"521 0 CURVE SMOOTH"
);
}
);
width = 707;
}
);
note = uni1455;
unicode = 1455;
},
{
glyphname = uni1466;
lastChange = "2018-03-08 14:01:59 +0000";
layers = (
{
layerId = "2E7E08E9-F197-422C-8C87-7E7891F2A291";
paths = (
{
closed = 1;
nodes = (
"264 364 LINE",
"127 364 OFFCURVE",
"74 421 OFFCURVE",
"74 528 CURVE SMOOTH",
"74 635 OFFCURVE",
"127 692 OFFCURVE",
"264 692 CURVE",
"264 714 LINE",
"118 714 OFFCURVE",
"49 656 OFFCURVE",
"49 528 CURVE SMOOTH",
"49 400 OFFCURVE",
"118 342 OFFCURVE",
"264 342 CURVE"
);
}
);
width = 313;
},
{
layerId = "E326D6A0-72EF-479E-B72E-1071BD8CDE1B";
paths = (
{
closed = 1;
nodes = (
"271 409 LINE",
"147 411 OFFCURVE",
"114 449 OFFCURVE",
"114 537 CURVE SMOOTH",
"114 611 OFFCURVE",
"157 646 OFFCURVE",
"271 646 CURVE",
"271 714 LINE",
"113 714 OFFCURVE",
"39 657 OFFCURVE",
"39 537 CURVE SMOOTH",
"39 400 OFFCURVE",
"106 342 OFFCURVE",
"271 342 CURVE"
);
}
);
width = 310;
},
{
layerId = "2D9103A3-690A-4A3E-A4A3-539A9A9AB4B9";
paths = (
{
closed = 1;
nodes = (
"306 425 LINE",
"191 425 OFFCURVE",
"148 441 OFFCURVE",
"148 517 CURVE SMOOTH",
"148 593 OFFCURVE",
"185 606 OFFCURVE",
"306 606 CURVE",
"306 714 LINE",
"111 714 OFFCURVE",
"29 667 OFFCURVE",
"29 518 CURVE SMOOTH",
"29 370 OFFCURVE",
"112 317 OFFCURVE",
"306 317 CURVE"
);
}
);
width = 335;
},
{
layerId = "FA7FA507-24BC-4772-BCBB-4BDCA0277846";
paths = (
{
closed = 1;
nodes = (
"294 422 LINE",
"177 423 OFFCURVE",
"138 447 OFFCURVE",
"138 528 CURVE SMOOTH",
"138 602 OFFCURVE",
"178 624 OFFCURVE",
"294 624 CURVE",
"294 714 LINE",
"117 714 OFFCURVE",
"39 663 OFFCURVE",
"39 528 CURVE SMOOTH",
"39 386 OFFCURVE",
"114 332 OFFCURVE",
"294 332 CURVE"
);
}
);
width = 333;
}
);
note = uni1466;
unicode = 1466;
},
{
glyphname = uni146B;
lastChange = "2018-03-08 14:01:59 +0000";
layers = (
{
layerId = "2E7E08E9-F197-422C-8C87-7E7891F2A291";
paths = (
{
closed = 1;
nodes = (
"504 0 LINE",
"504 470 LINE SMOOTH",
"504 629 OFFCURVE",
"422 726 OFFCURVE",
"281 726 CURVE SMOOTH",
"142 726 OFFCURVE",
"69 631 OFFCURVE",
"69 477 CURVE SMOOTH",
"69 313 OFFCURVE",
"151 213 OFFCURVE",
"292 213 CURVE SMOOTH",
"397 213 OFFCURVE",
"456 269 OFFCURVE",
"478 339 CURVE",
"478 0 LINE"
);
},
{
closed = 1;
nodes = (
"169 238 OFFCURVE",
"96 323 OFFCURVE",
"96 476 CURVE SMOOTH",
"96 620 OFFCURVE",
"160 701 OFFCURVE",
"281 701 CURVE SMOOTH",
"410 701 OFFCURVE",
"478 610 OFFCURVE",
"478 470 CURVE SMOOTH",
"478 467 LINE SMOOTH",
"478 316 OFFCURVE",
"407 238 OFFCURVE",
"291 238 CURVE SMOOTH"
);
}
);
width = 583;
},
{
layerId = "E326D6A0-72EF-479E-B72E-1071BD8CDE1B";
paths = (
{
closed = 1;
nodes = (
"523 0 LINE",
"523 458 LINE SMOOTH",
"523 635 OFFCURVE",
"443 726 OFFCURVE",
"291 726 CURVE SMOOTH",
"142 726 OFFCURVE",
"59 633 OFFCURVE",
"59 472 CURVE SMOOTH",
"59 315 OFFCURVE",
"148 213 OFFCURVE",
"292 213 CURVE SMOOTH",
"353 213 OFFCURVE",
"400 227 OFFCURVE",
"445 260 CURVE",
"445 0 LINE"
);
},
{
closed = 1;
nodes = (
"194 284 OFFCURVE",
"137 354 OFFCURVE",
"137 476 CURVE SMOOTH",
"137 587 OFFCURVE",
"193 655 OFFCURVE",
"292 655 CURVE SMOOTH",
"383 655 OFFCURVE",
"445 585 OFFCURVE",
"445 492 CURVE SMOOTH",
"445 440 LINE SMOOTH",
"445 351 OFFCURVE",
"381 284 OFFCURVE",
"302 284 CURVE SMOOTH"
);
}
);
width = 592;
},
{
layerId = "2D9103A3-690A-4A3E-A4A3-539A9A9AB4B9";
paths = (
{
closed = 1;
nodes = (
"609 0 LINE",
"609 457 LINE SMOOTH",
"609 593 OFFCURVE",
"539 726 OFFCURVE",
"332 726 CURVE SMOOTH",
"125 726 OFFCURVE",
"49 593 OFFCURVE",
"49 463 CURVE SMOOTH",
"49 320 OFFCURVE",
"141 200 OFFCURVE",
"319 200 CURVE SMOOTH",
"365 200 OFFCURVE",
"398 208 OFFCURVE",
"418 217 CURVE",
"418 0 LINE"
);
},
{
closed = 1;
nodes = (
"269 361 OFFCURVE",
"243 404 OFFCURVE",
"243 465 CURVE SMOOTH",
"243 526 OFFCURVE",
"270 565 OFFCURVE",
"331 565 CURVE SMOOTH",
"392 565 OFFCURVE",
"418 527 OFFCURVE",
"418 474 CURVE SMOOTH",
"418 443 LINE SMOOTH",
"418 412 OFFCURVE",
"400 361 OFFCURVE",
"332 361 CURVE SMOOTH"
);
}
);
width = 668;
},
{
layerId = "FA7FA507-24BC-4772-BCBB-4BDCA0277846";
paths = (
{
closed = 1;
nodes = (
"580 0 LINE",
"580 457 LINE SMOOTH",
"580 610 OFFCURVE",
"506 726 OFFCURVE",
"321 726 CURVE SMOOTH",
"138 726 OFFCURVE",
"59 609 OFFCURVE",
"59 467 CURVE SMOOTH",
"59 318 OFFCURVE",
"150 205 OFFCURVE",
"314 205 CURVE SMOOTH",
"366 205 OFFCURVE",
"405 216 OFFCURVE",
"435 235 CURVE",
"435 0 LINE"
);
},
{
closed = 1;
nodes = (
"244 329 OFFCURVE",
"206 384 OFFCURVE",
"206 470 CURVE SMOOTH",
"206 551 OFFCURVE",
"245 602 OFFCURVE",
"321 602 CURVE SMOOTH",
"394 602 OFFCURVE",
"435 551 OFFCURVE",
"435 481 CURVE SMOOTH",
"435 442 LINE SMOOTH",
"435 387 OFFCURVE",
"398 329 OFFCURVE",
"326 329 CURVE SMOOTH"
);
}
);
width = 649;
}
);
note = uni146B;
unicode = 146B;
},
{
glyphname = uni146D;
lastChange = "2018-03-08 14:01:59 +0000";
layers = (
{
layerId = "2E7E08E9-F197-422C-8C87-7E7891F2A291";
paths = (
{
closed = 1;
nodes = (
"105 0 LINE",
"105 339 LINE",
"127 269 OFFCURVE",
"186 213 OFFCURVE",
"291 213 CURVE SMOOTH",
"432 213 OFFCURVE",
"514 313 OFFCURVE",
"514 477 CURVE SMOOTH",
"514 631 OFFCURVE",
"441 726 OFFCURVE",
"302 726 CURVE SMOOTH",
"161 726 OFFCURVE",
"79 629 OFFCURVE",
"79 470 CURVE SMOOTH",
"79 0 LINE"
);
},
{
closed = 1;
nodes = (
"176 238 OFFCURVE",
"105 316 OFFCURVE",
"105 467 CURVE SMOOTH",
"105 470 LINE SMOOTH",
"105 610 OFFCURVE",
"173 701 OFFCURVE",
"302 701 CURVE SMOOTH",
"423 701 OFFCURVE",
"487 620 OFFCURVE",
"487 476 CURVE SMOOTH",
"487 323 OFFCURVE",
"414 238 OFFCURVE",
"292 238 CURVE SMOOTH"
);
}
);
width = 583;
},
{
layerId = "E326D6A0-72EF-479E-B72E-1071BD8CDE1B";
paths = (
{
closed = 1;
nodes = (
"146 0 LINE",
"146 260 LINE",
"191 226 OFFCURVE",
"239 213 OFFCURVE",
"299 213 CURVE SMOOTH",
"442 213 OFFCURVE",
"533 313 OFFCURVE",
"533 472 CURVE SMOOTH",
"533 633 OFFCURVE",
"450 726 OFFCURVE",
"301 726 CURVE SMOOTH",
"150 726 OFFCURVE",
"68 636 OFFCURVE",
"68 458 CURVE SMOOTH",
"68 0 LINE"
);
},
{
closed = 1;
nodes = (
"209 284 OFFCURVE",
"146 352 OFFCURVE",
"146 440 CURVE SMOOTH",
"146 492 LINE SMOOTH",
"146 584 OFFCURVE",
"208 655 OFFCURVE",
"299 655 CURVE SMOOTH",
"398 655 OFFCURVE",
"455 588 OFFCURVE",
"455 476 CURVE SMOOTH",
"455 354 OFFCURVE",
"397 284 OFFCURVE",
"290 284 CURVE SMOOTH"
);
}
);
width = 592;
},
{
layerId = "2D9103A3-690A-4A3E-A4A3-539A9A9AB4B9";
paths = (
{
closed = 1;
nodes = (
"250 0 LINE",
"250 217 LINE",
"270 208 OFFCURVE",
"303 200 OFFCURVE",
"349 200 CURVE SMOOTH",
"527 200 OFFCURVE",
"619 320 OFFCURVE",
"619 463 CURVE SMOOTH",
"619 593 OFFCURVE",
"543 726 OFFCURVE",
"336 726 CURVE SMOOTH",
"129 726 OFFCURVE",
"59 593 OFFCURVE",
"59 457 CURVE SMOOTH",
"59 0 LINE"
);
},
{
closed = 1;
nodes = (
"268 361 OFFCURVE",
"250 412 OFFCURVE",
"250 443 CURVE SMOOTH",
"250 474 LINE SMOOTH",
"250 527 OFFCURVE",
"276 565 OFFCURVE",
"337 565 CURVE SMOOTH",
"398 565 OFFCURVE",
"425 526 OFFCURVE",
"425 465 CURVE SMOOTH",
"425 404 OFFCURVE",
"399 361 OFFCURVE",
"336 361 CURVE SMOOTH"
);
}
);
width = 668;
},
{
layerId = "FA7FA507-24BC-4772-BCBB-4BDCA0277846";
paths = (
{
closed = 1;
nodes = (
"214 0 LINE",
"214 235 LINE",
"244 215 OFFCURVE",
"283 206 OFFCURVE",
"335 206 CURVE SMOOTH",
"499 206 OFFCURVE",
"590 317 OFFCURVE",
"590 467 CURVE SMOOTH",
"590 609 OFFCURVE",
"511 726 OFFCURVE",
"328 726 CURVE SMOOTH",
"144 726 OFFCURVE",
"69 611 OFFCURVE",
"69 458 CURVE SMOOTH",
"69 0 LINE"
);
},
{
closed = 1;
nodes = (
"250 329 OFFCURVE",
"214 387 OFFCURVE",
"214 442 CURVE SMOOTH",
"214 481 LINE SMOOTH",
"214 550 OFFCURVE",
"254 602 OFFCURVE",
"328 602 CURVE SMOOTH",
"404 602 OFFCURVE",
"443 551 OFFCURVE",
"443 470 CURVE SMOOTH",
"443 383 OFFCURVE",
"404 329 OFFCURVE",
"323 329 CURVE SMOOTH"
);
}
);
width = 649;
}
);
note = uni146D;
unicode = 146D;
},
{
glyphname = uni146F;
lastChange = "2018-03-08 14:01:59 +0000";
layers = (
{
layerId = "2E7E08E9-F197-422C-8C87-7E7891F2A291";
paths = (
{
closed = 1;
nodes = (
"422 -12 OFFCURVE",
"504 85 OFFCURVE",
"504 244 CURVE SMOOTH",
"504 714 LINE",
"478 714 LINE",
"478 375 LINE",
"456 445 OFFCURVE",
"397 501 OFFCURVE",
"292 501 CURVE SMOOTH",
"151 501 OFFCURVE",
"69 401 OFFCURVE",
"69 237 CURVE SMOOTH",
"69 83 OFFCURVE",
"142 -12 OFFCURVE",
"281 -12 CURVE SMOOTH"
);
},
{
closed = 1;
nodes = (
"160 13 OFFCURVE",
"96 94 OFFCURVE",
"96 238 CURVE SMOOTH",
"96 391 OFFCURVE",
"169 476 OFFCURVE",
"291 476 CURVE SMOOTH",
"407 476 OFFCURVE",
"478 398 OFFCURVE",
"478 247 CURVE SMOOTH",
"478 244 LINE SMOOTH",
"478 104 OFFCURVE",
"410 13 OFFCURVE",
"281 13 CURVE SMOOTH"
);
}
);
width = 583;
},
{
layerId = "E326D6A0-72EF-479E-B72E-1071BD8CDE1B";
paths = (
{
closed = 1;
nodes = (
"442 -12 OFFCURVE",
"523 78 OFFCURVE",
"523 255 CURVE SMOOTH",
"523 714 LINE",
"445 714 LINE",
"445 454 LINE",
"400 488 OFFCURVE",
"353 500 OFFCURVE",
"292 500 CURVE SMOOTH",
"149 500 OFFCURVE",
"59 401 OFFCURVE",
"59 242 CURVE SMOOTH",
"59 81 OFFCURVE",
"142 -12 OFFCURVE",
"291 -12 CURVE SMOOTH"
);
},
{
closed = 1;
nodes = (
"193 59 OFFCURVE",
"137 127 OFFCURVE",
"137 238 CURVE SMOOTH",
"137 360 OFFCURVE",
"195 430 OFFCURVE",
"302 430 CURVE SMOOTH",
"382 430 OFFCURVE",
"445 362 OFFCURVE",
"445 273 CURVE SMOOTH",
"445 222 LINE SMOOTH",
"445 130 OFFCURVE",
"384 59 OFFCURVE",
"292 59 CURVE SMOOTH"
);
}
);
width = 592;
},
{
layerId = "2D9103A3-690A-4A3E-A4A3-539A9A9AB4B9";
paths = (
{
closed = 1;
nodes = (
"539 -12 OFFCURVE",
"609 121 OFFCURVE",
"609 257 CURVE SMOOTH",
"609 714 LINE",
"418 714 LINE",
"418 497 LINE",
"398 506 OFFCURVE",
"365 514 OFFCURVE",
"319 514 CURVE SMOOTH",
"141 514 OFFCURVE",
"49 394 OFFCURVE",
"49 251 CURVE SMOOTH",
"49 121 OFFCURVE",
"125 -12 OFFCURVE",
"332 -12 CURVE SMOOTH"
);
},
{
closed = 1;
nodes = (
"270 149 OFFCURVE",
"243 188 OFFCURVE",
"243 249 CURVE SMOOTH",
"243 310 OFFCURVE",
"269 353 OFFCURVE",
"332 353 CURVE SMOOTH",
"400 353 OFFCURVE",
"418 302 OFFCURVE",
"418 271 CURVE SMOOTH",
"418 240 LINE SMOOTH",
"418 187 OFFCURVE",
"392 149 OFFCURVE",
"331 149 CURVE SMOOTH"
);
}
);
width = 668;
},
{
layerId = "FA7FA507-24BC-4772-BCBB-4BDCA0277846";
paths = (
{
closed = 1;
nodes = (
"505 -12 OFFCURVE",
"580 103 OFFCURVE",
"580 256 CURVE SMOOTH",
"580 714 LINE",
"435 714 LINE",
"435 479 LINE",
"405 499 OFFCURVE",
"366 508 OFFCURVE",
"314 508 CURVE SMOOTH",
"150 508 OFFCURVE",
"59 397 OFFCURVE",
"59 247 CURVE SMOOTH",
"59 105 OFFCURVE",
"138 -12 OFFCURVE",
"321 -12 CURVE SMOOTH"
);
},
{
closed = 1;
nodes = (
"245 112 OFFCURVE",
"206 163 OFFCURVE",
"206 244 CURVE SMOOTH",
"206 331 OFFCURVE",
"245 385 OFFCURVE",
"326 385 CURVE SMOOTH",
"399 385 OFFCURVE",
"435 327 OFFCURVE",
"435 272 CURVE SMOOTH",
"435 233 LINE SMOOTH",
"435 164 OFFCURVE",
"395 112 OFFCURVE",
"321 112 CURVE SMOOTH"
);
}
);
width = 649;
}
);
leftMetricsKey = "=uni146B";
note = uni146F;
rightMetricsKey = "=uni146B";
unicode = 146F;
},
{
glyphname = uni1472;
lastChange = "2018-03-08 14:01:59 +0000";
layers = (
{
layerId = "2E7E08E9-F197-422C-8C87-7E7891F2A291";
paths = (
{
closed = 1;
nodes = (
"441 -12 OFFCURVE",
"514 83 OFFCURVE",
"514 237 CURVE SMOOTH",
"514 401 OFFCURVE",
"432 501 OFFCURVE",
"291 501 CURVE SMOOTH",
"186 501 OFFCURVE",
"127 445 OFFCURVE",
"105 375 CURVE",
"105 714 LINE",
"79 714 LINE",
"79 244 LINE SMOOTH",
"79 85 OFFCURVE",
"161 -12 OFFCURVE",
"302 -12 CURVE SMOOTH"
);
},
{
closed = 1;
nodes = (
"173 13 OFFCURVE",
"105 104 OFFCURVE",
"105 244 CURVE SMOOTH",
"105 247 LINE SMOOTH",
"105 398 OFFCURVE",
"176 476 OFFCURVE",
"292 476 CURVE SMOOTH",
"414 476 OFFCURVE",
"487 391 OFFCURVE",
"487 238 CURVE SMOOTH",
"487 94 OFFCURVE",
"423 13 OFFCURVE",
"302 13 CURVE SMOOTH"
);
}
);
width = 583;
},
{
layerId = "E326D6A0-72EF-479E-B72E-1071BD8CDE1B";
paths = (
{
closed = 1;
nodes = (
"450 -12 OFFCURVE",
"533 81 OFFCURVE",
"533 242 CURVE SMOOTH",
"533 399 OFFCURVE",
"444 500 OFFCURVE",
"299 500 CURVE SMOOTH",
"239 500 OFFCURVE",
"191 488 OFFCURVE",
"146 454 CURVE",
"146 714 LINE",
"68 714 LINE",
"68 255 LINE SMOOTH",
"68 79 OFFCURVE",
"149 -12 OFFCURVE",
"301 -12 CURVE SMOOTH"
);
},
{
closed = 1;
nodes = (
"209 59 OFFCURVE",
"146 129 OFFCURVE",
"146 222 CURVE SMOOTH",
"146 273 LINE SMOOTH",
"146 362 OFFCURVE",
"209 430 OFFCURVE",
"290 430 CURVE SMOOTH",
"397 430 OFFCURVE",
"455 360 OFFCURVE",
"455 238 CURVE SMOOTH",
"455 126 OFFCURVE",
"398 59 OFFCURVE",
"299 59 CURVE SMOOTH"
);
}
);
width = 592;
},
{
layerId = "2D9103A3-690A-4A3E-A4A3-539A9A9AB4B9";
paths = (
{
closed = 1;
nodes = (
"543 -12 OFFCURVE",
"619 121 OFFCURVE",
"619 251 CURVE SMOOTH",
"619 394 OFFCURVE",
"527 514 OFFCURVE",
"349 514 CURVE SMOOTH",
"303 514 OFFCURVE",
"270 506 OFFCURVE",
"250 497 CURVE",
"250 714 LINE",
"59 714 LINE",
"59 257 LINE SMOOTH",
"59 121 OFFCURVE",
"129 -12 OFFCURVE",
"336 -12 CURVE SMOOTH"
);
},
{
closed = 1;
nodes = (
"276 149 OFFCURVE",
"250 187 OFFCURVE",
"250 240 CURVE SMOOTH",
"250 271 LINE SMOOTH",
"250 302 OFFCURVE",
"268 353 OFFCURVE",
"336 353 CURVE SMOOTH",
"399 353 OFFCURVE",
"425 310 OFFCURVE",
"425 249 CURVE SMOOTH",
"425 188 OFFCURVE",
"398 149 OFFCURVE",
"337 149 CURVE SMOOTH"
);
}
);
width = 668;
},
{
layerId = "FA7FA507-24BC-4772-BCBB-4BDCA0277846";
paths = (
{
closed = 1;
nodes = (
"511 -12 OFFCURVE",
"590 105 OFFCURVE",
"590 247 CURVE SMOOTH",
"590 397 OFFCURVE",
"499 508 OFFCURVE",
"335 508 CURVE SMOOTH",
"283 508 OFFCURVE",
"244 499 OFFCURVE",
"214 479 CURVE",
"214 714 LINE",
"69 714 LINE",
"69 256 LINE SMOOTH",
"69 103 OFFCURVE",
"144 -12 OFFCURVE",
"328 -12 CURVE SMOOTH"
);
},
{
closed = 1;
nodes = (
"254 112 OFFCURVE",
"214 164 OFFCURVE",
"214 233 CURVE SMOOTH",
"214 272 LINE SMOOTH",
"214 327 OFFCURVE",
"250 385 OFFCURVE",
"323 385 CURVE SMOOTH",
"404 385 OFFCURVE",
"443 331 OFFCURVE",
"443 244 CURVE SMOOTH",
"443 163 OFFCURVE",
"404 112 OFFCURVE",
"328 112 CURVE SMOOTH"
);
}
);
width = 649;
}
);
leftMetricsKey = "=uni146D";
note = uni1472;
rightMetricsKey = "=uni146D";
unicode = 1472;
},
{
glyphname = uni1483;
lastChange = "2018-03-08 14:01:59 +0000";
layers = (
{
layerId = "2E7E08E9-F197-422C-8C87-7E7891F2A291";
paths = (
{
closed = 1;
nodes = (
"291 334 OFFCURVE",
"342 395 OFFCURVE",
"342 471 CURVE SMOOTH",
"342 547 OFFCURVE",
"291 607 OFFCURVE",
"205 607 CURVE SMOOTH",
"158 607 OFFCURVE",
"119 586 OFFCURVE",
"93 544 CURVE",
"93 714 LINE",
"69 714 LINE",
"69 471 LINE SMOOTH",
"69 395 OFFCURVE",
"129 334 OFFCURVE",
"205 334 CURVE SMOOTH"
);
},
{
closed = 1;
nodes = (
"142 355 OFFCURVE",
"93 405 OFFCURVE",
"93 471 CURVE SMOOTH",
"93 539 OFFCURVE",
"142 586 OFFCURVE",
"205 586 CURVE SMOOTH",
"277 586 OFFCURVE",
"318 537 OFFCURVE",
"318 471 CURVE SMOOTH",
"318 405 OFFCURVE",
"277 355 OFFCURVE",
"205 355 CURVE SMOOTH"
);
}
);
width = 391;
},
{
layerId = "E326D6A0-72EF-479E-B72E-1071BD8CDE1B";
paths = (
{
closed = 1;
nodes = (
"289 334 OFFCURVE",
"352 393 OFFCURVE",
"352 472 CURVE SMOOTH",
"352 554 OFFCURVE",
"292 609 OFFCURVE",
"206 609 CURVE SMOOTH",
"176 609 OFFCURVE",
"152 604 OFFCURVE",
"134 592 CURVE",
"134 714 LINE",
"59 714 LINE",
"59 501 LINE SMOOTH",
"59 396 OFFCURVE",
"108 334 OFFCURVE",
"205 334 CURVE SMOOTH"
);
},
{
closed = 1;
nodes = (
"158 402 OFFCURVE",
"134 423 OFFCURVE",
"134 475 CURVE SMOOTH",
"134 516 OFFCURVE",
"162 543 OFFCURVE",
"205 543 CURVE SMOOTH",
"253 543 OFFCURVE",
"277 519 OFFCURVE",
"277 471 CURVE SMOOTH",
"277 424 OFFCURVE",
"247 402 OFFCURVE",
"205 402 CURVE SMOOTH"
);
}
);
width = 391;
},
{
layerId = "2D9103A3-690A-4A3E-A4A3-539A9A9AB4B9";
paths = (
{
closed = 1;
nodes = (
"328 305 OFFCURVE",
"367 380 OFFCURVE",
"367 453 CURVE SMOOTH",
"367 528 OFFCURVE",
"321 604 OFFCURVE",
"217 604 CURVE SMOOTH",
"190 604 OFFCURVE",
"173 600 OFFCURVE",
"159 596 CURVE",
"159 714 LINE",
"50 714 LINE",
"50 453 LINE SMOOTH",
"50 380 OFFCURVE",
"88 305 OFFCURVE",
"208 305 CURVE SMOOTH"
);
},
{
closed = 1;
nodes = (
"177 396 OFFCURVE",
"158 417 OFFCURVE",
"158 451 CURVE SMOOTH",
"158 490 OFFCURVE",
"177 511 OFFCURVE",
"210 511 CURVE SMOOTH",
"243 511 OFFCURVE",
"262 490 OFFCURVE",
"262 451 CURVE SMOOTH",
"262 417 OFFCURVE",
"242 396 OFFCURVE",
"210 396 CURVE SMOOTH"
);
}
);
width = 396;
},
{
layerId = "FA7FA507-24BC-4772-BCBB-4BDCA0277846";
paths = (
{
closed = 1;
nodes = (
"315 322 OFFCURVE",
"363 389 OFFCURVE",
"363 464 CURVE SMOOTH",
"363 541 OFFCURVE",
"312 607 OFFCURVE",
"217 607 CURVE SMOOTH",
"189 607 OFFCURVE",
"169 603 OFFCURVE",
"154 596 CURVE",
"154 714 LINE",
"60 714 LINE",
"60 476 LINE SMOOTH",
"60 391 OFFCURVE",
"102 322 OFFCURVE",
"211 322 CURVE SMOOTH"
);
},
{
closed = 1;
nodes = (
"174 402 OFFCURVE",
"153 423 OFFCURVE",
"153 464 CURVE SMOOTH",
"153 503 OFFCURVE",
"176 526 OFFCURVE",
"212 526 CURVE SMOOTH",
"251 526 OFFCURVE",
"272 504 OFFCURVE",
"272 462 CURVE SMOOTH",
"272 423 OFFCURVE",
"248 402 OFFCURVE",
"212 402 CURVE SMOOTH"
);
}
);
width = 402;
}
);
note = uni1483;
unicode = 1483;
},
{
glyphname = uni1484;
lastChange = "2018-03-08 14:01:59 +0000";
layers = (
{
layerId = "2E7E08E9-F197-422C-8C87-7E7891F2A291";
paths = (
{
closed = 1;
nodes = (
"262 334 OFFCURVE",
"322 395 OFFCURVE",
"322 471 CURVE SMOOTH",
"322 714 LINE",
"298 714 LINE",
"298 544 LINE",
"272 586 OFFCURVE",
"233 607 OFFCURVE",
"186 607 CURVE SMOOTH",
"100 607 OFFCURVE",
"49 547 OFFCURVE",
"49 471 CURVE SMOOTH",
"49 395 OFFCURVE",
"100 334 OFFCURVE",
"186 334 CURVE SMOOTH"
);
},
{
closed = 1;
nodes = (
"114 355 OFFCURVE",
"73 405 OFFCURVE",
"73 471 CURVE SMOOTH",
"73 537 OFFCURVE",
"114 586 OFFCURVE",
"186 586 CURVE SMOOTH",
"249 586 OFFCURVE",
"298 539 OFFCURVE",
"298 471 CURVE SMOOTH",
"298 405 OFFCURVE",
"249 355 OFFCURVE",
"186 355 CURVE SMOOTH"
);
}
);
width = 391;
},
{
layerId = "E326D6A0-72EF-479E-B72E-1071BD8CDE1B";
paths = (
{
closed = 1;
nodes = (
"283 334 OFFCURVE",
"333 396 OFFCURVE",
"333 501 CURVE SMOOTH",
"333 714 LINE",
"257 714 LINE",
"257 592 LINE",
"239 604 OFFCURVE",
"215 609 OFFCURVE",
"185 609 CURVE SMOOTH",
"99 609 OFFCURVE",
"39 554 OFFCURVE",
"39 472 CURVE SMOOTH",
"39 392 OFFCURVE",
"102 334 OFFCURVE",
"186 334 CURVE SMOOTH"
);
},
{
closed = 1;
nodes = (
"145 402 OFFCURVE",
"114 424 OFFCURVE",
"114 471 CURVE SMOOTH",
"114 519 OFFCURVE",
"138 543 OFFCURVE",
"186 543 CURVE SMOOTH",
"229 543 OFFCURVE",
"257 516 OFFCURVE",
"257 475 CURVE SMOOTH",
"257 423 OFFCURVE",
"233 402 OFFCURVE",
"186 402 CURVE SMOOTH"
);
}
);
width = 391;
},
{
layerId = "2D9103A3-690A-4A3E-A4A3-539A9A9AB4B9";
paths = (
{
closed = 1;
nodes = (
"308 305 OFFCURVE",
"347 380 OFFCURVE",
"347 453 CURVE SMOOTH",
"347 714 LINE",
"237 714 LINE",
"237 598 LINE",
"223 602 OFFCURVE",
"206 604 OFFCURVE",
"188 604 CURVE SMOOTH",
"68 604 OFFCURVE",
"29 528 OFFCURVE",
"29 453 CURVE SMOOTH",
"29 380 OFFCURVE",
"68 305 OFFCURVE",
"188 305 CURVE SMOOTH"
);
},
{
closed = 1;
nodes = (
"154 396 OFFCURVE",
"134 417 OFFCURVE",
"134 451 CURVE SMOOTH",
"134 490 OFFCURVE",
"153 511 OFFCURVE",
"186 511 CURVE SMOOTH",
"219 511 OFFCURVE",
"238 490 OFFCURVE",
"238 451 CURVE SMOOTH",
"238 417 OFFCURVE",
"219 396 OFFCURVE",
"186 396 CURVE SMOOTH"
);
}
);
width = 396;
},
{
layerId = "FA7FA507-24BC-4772-BCBB-4BDCA0277846";
paths = (
{
closed = 1;
nodes = (
"301 322 OFFCURVE",
"344 391 OFFCURVE",
"344 476 CURVE SMOOTH",
"344 714 LINE",
"249 714 LINE",
"249 597 LINE",
"233 604 OFFCURVE",
"214 607 OFFCURVE",
"191 607 CURVE SMOOTH",
"86 607 OFFCURVE",
"39 541 OFFCURVE",
"39 464 CURVE SMOOTH",
"39 389 OFFCURVE",
"87 322 OFFCURVE",
"192 322 CURVE SMOOTH"
);
},
{
closed = 1;
nodes = (
"155 402 OFFCURVE",
"131 423 OFFCURVE",
"131 462 CURVE SMOOTH",
"131 504 OFFCURVE",
"152 526 OFFCURVE",
"190 526 CURVE SMOOTH",
"227 526 OFFCURVE",
"250 503 OFFCURVE",
"250 464 CURVE SMOOTH",
"250 423 OFFCURVE",
"228 402 OFFCURVE",
"190 402 CURVE SMOOTH"
);
}
);
width = 402;
}
);
note = uni1484;
unicode = 1484;
},
{
glyphname = uni1489;
lastChange = "2018-03-08 14:01:59 +0000";
layers = (
{
layerId = "2E7E08E9-F197-422C-8C87-7E7891F2A291";
paths = (
{
closed = 1;
nodes = (
"548 0 LINE",
"548 462 LINE SMOOTH",
"548 657 OFFCURVE",
"462 724 OFFCURVE",
"313 724 CURVE SMOOTH",
"162 724 OFFCURVE",
"69 656 OFFCURVE",
"69 460 CURVE SMOOTH",
"69 410 LINE",
"95 410 LINE",
"95 458 LINE SMOOTH",
"95 641 OFFCURVE",
"179 699 OFFCURVE",
"313 699 CURVE SMOOTH",
"450 699 OFFCURVE",
"522 639 OFFCURVE",
"522 470 CURVE SMOOTH",
"522 0 LINE"
);
}
);
width = 627;
},
{
layerId = "E326D6A0-72EF-479E-B72E-1071BD8CDE1B";
paths = (
{
closed = 1;
nodes = (
"564 0 LINE",
"564 378 LINE SMOOTH",
"564 606 OFFCURVE",
"517 726 OFFCURVE",
"313 726 CURVE SMOOTH",
"117 726 OFFCURVE",
"59 629 OFFCURVE",
"59 429 CURVE SMOOTH",
"59 411 LINE",
"137 411 LINE",
"137 429 LINE SMOOTH",
"137 606 OFFCURVE",
"185 655 OFFCURVE",
"313 655 CURVE SMOOTH",
"456 655 OFFCURVE",
"486 567 OFFCURVE",
"486 405 CURVE SMOOTH",
"486 0 LINE"
);
}
);
width = 633;
},
{
layerId = "2D9103A3-690A-4A3E-A4A3-539A9A9AB4B9";
paths = (
{
closed = 1;
nodes = (
"608 0 LINE",
"608 413 LINE SMOOTH",
"608 635 OFFCURVE",
"551 726 OFFCURVE",
"332 726 CURVE SMOOTH",
"113 726 OFFCURVE",
"49 635 OFFCURVE",
"49 413 CURVE SMOOTH",
"49 394 LINE",
"248 394 LINE",
"248 450 LINE SMOOTH",
"248 533 OFFCURVE",
"271 565 OFFCURVE",
"332 565 CURVE SMOOTH",
"393 565 OFFCURVE",
"415 533 OFFCURVE",
"415 450 CURVE SMOOTH",
"415 0 LINE"
);
}
);
width = 667;
},
{
layerId = "FA7FA507-24BC-4772-BCBB-4BDCA0277846";
paths = (
{
closed = 1;
nodes = (
"596 0 LINE",
"596 399 LINE SMOOTH",
"596 623 OFFCURVE",
"543 726 OFFCURVE",
"330 726 CURVE SMOOTH",
"121 726 OFFCURVE",
"59 633 OFFCURVE",
"59 420 CURVE SMOOTH",
"59 401 LINE",
"209 401 LINE",
"209 441 LINE SMOOTH",
"209 563 OFFCURVE",
"242 602 OFFCURVE",
"330 602 CURVE SMOOTH",
"425 602 OFFCURVE",
"450 547 OFFCURVE",
"450 432 CURVE SMOOTH",
"450 0 LINE"
);
}
);
width = 665;
}
);
note = uni1489;
unicode = 1489;
},
{
glyphname = uni148B;
lastChange = "2018-03-08 14:01:59 +0000";
layers = (
{
layerId = "2E7E08E9-F197-422C-8C87-7E7891F2A291";
paths = (
{
closed = 1;
nodes = (
"105 0 LINE",
"105 470 LINE SMOOTH",
"105 639 OFFCURVE",
"177 699 OFFCURVE",
"314 699 CURVE SMOOTH",
"448 699 OFFCURVE",
"532 641 OFFCURVE",
"532 458 CURVE SMOOTH",
"532 410 LINE",
"558 410 LINE",
"558 460 LINE SMOOTH",
"558 656 OFFCURVE",
"465 724 OFFCURVE",
"314 724 CURVE SMOOTH",
"165 724 OFFCURVE",
"79 657 OFFCURVE",
"79 462 CURVE SMOOTH",
"79 0 LINE"
);
}
);
width = 627;
},
{
layerId = "E326D6A0-72EF-479E-B72E-1071BD8CDE1B";
paths = (
{
closed = 1;
nodes = (
"147 0 LINE",
"147 405 LINE SMOOTH",
"147 567 OFFCURVE",
"177 655 OFFCURVE",
"320 655 CURVE SMOOTH",
"448 655 OFFCURVE",
"496 606 OFFCURVE",
"496 429 CURVE SMOOTH",
"496 411 LINE",
"574 411 LINE",
"574 429 LINE SMOOTH",
"574 629 OFFCURVE",
"516 726 OFFCURVE",
"320 726 CURVE SMOOTH",
"116 726 OFFCURVE",
"69 606 OFFCURVE",
"69 378 CURVE SMOOTH",
"69 0 LINE"
);
}
);
width = 633;
},
{
layerId = "2D9103A3-690A-4A3E-A4A3-539A9A9AB4B9";
paths = (
{
closed = 1;
nodes = (
"252 0 LINE",
"252 450 LINE SMOOTH",
"252 533 OFFCURVE",
"274 565 OFFCURVE",
"335 565 CURVE SMOOTH",
"396 565 OFFCURVE",
"419 533 OFFCURVE",
"419 450 CURVE SMOOTH",
"419 394 LINE",
"618 394 LINE",
"618 413 LINE SMOOTH",
"618 635 OFFCURVE",
"554 726 OFFCURVE",
"335 726 CURVE SMOOTH",
"116 726 OFFCURVE",
"59 635 OFFCURVE",
"59 413 CURVE SMOOTH",
"59 0 LINE"
);
}
);
width = 667;
},
{
layerId = "FA7FA507-24BC-4772-BCBB-4BDCA0277846";
paths = (
{
closed = 1;
nodes = (
"215 0 LINE",
"215 432 LINE SMOOTH",
"215 547 OFFCURVE",
"240 602 OFFCURVE",
"335 602 CURVE SMOOTH",
"423 602 OFFCURVE",
"457 563 OFFCURVE",
"457 441 CURVE SMOOTH",
"457 401 LINE",
"606 401 LINE",
"606 420 LINE SMOOTH",
"606 633 OFFCURVE",
"545 726 OFFCURVE",
"335 726 CURVE SMOOTH",
"122 726 OFFCURVE",
"69 623 OFFCURVE",
"69 399 CURVE SMOOTH",
"69 0 LINE"
);
}
);
width = 665;
}
);
note = uni148B;
unicode = 148B;
},
{
glyphname = uni148D;
lastChange = "2018-03-08 14:01:59 +0000";
layers = (
{
layerId = "2E7E08E9-F197-422C-8C87-7E7891F2A291";
paths = (
{
closed = 1;
nodes = (
"462 -10 OFFCURVE",
"548 57 OFFCURVE",
"548 252 CURVE SMOOTH",
"548 714 LINE",
"522 714 LINE",
"522 244 LINE SMOOTH",
"522 75 OFFCURVE",
"450 15 OFFCURVE",
"313 15 CURVE SMOOTH",
"179 15 OFFCURVE",
"95 73 OFFCURVE",
"95 256 CURVE SMOOTH",
"95 304 LINE",
"69 304 LINE",
"69 254 LINE SMOOTH",
"69 58 OFFCURVE",
"162 -10 OFFCURVE",
"313 -10 CURVE SMOOTH"
);
}
);
width = 627;
},
{
layerId = "E326D6A0-72EF-479E-B72E-1071BD8CDE1B";
paths = (
{
closed = 1;
nodes = (
"517 -12 OFFCURVE",
"564 108 OFFCURVE",
"564 336 CURVE SMOOTH",
"564 714 LINE",
"486 714 LINE",
"486 309 LINE SMOOTH",
"486 147 OFFCURVE",
"456 59 OFFCURVE",
"313 59 CURVE SMOOTH",
"185 59 OFFCURVE",
"137 108 OFFCURVE",
"137 285 CURVE SMOOTH",
"137 303 LINE",
"59 303 LINE",
"59 285 LINE SMOOTH",
"59 85 OFFCURVE",
"117 -12 OFFCURVE",
"313 -12 CURVE SMOOTH"
);
}
);
width = 633;
},
{
layerId = "2D9103A3-690A-4A3E-A4A3-539A9A9AB4B9";
paths = (
{
closed = 1;
nodes = (
"551 -12 OFFCURVE",
"608 79 OFFCURVE",
"608 301 CURVE SMOOTH",
"608 714 LINE",
"415 714 LINE",
"415 264 LINE SMOOTH",
"415 181 OFFCURVE",
"393 149 OFFCURVE",
"332 149 CURVE SMOOTH",
"271 149 OFFCURVE",
"248 181 OFFCURVE",
"248 264 CURVE SMOOTH",
"248 320 LINE",
"49 320 LINE",
"49 301 LINE SMOOTH",
"49 79 OFFCURVE",
"113 -12 OFFCURVE",
"332 -12 CURVE SMOOTH"
);
}
);
width = 667;
},
{
layerId = "FA7FA507-24BC-4772-BCBB-4BDCA0277846";
paths = (
{
closed = 1;
nodes = (
"543 -12 OFFCURVE",
"596 91 OFFCURVE",
"596 315 CURVE SMOOTH",
"596 714 LINE",
"450 714 LINE",
"450 282 LINE SMOOTH",
"450 167 OFFCURVE",
"425 112 OFFCURVE",
"330 112 CURVE SMOOTH",
"242 112 OFFCURVE",
"209 151 OFFCURVE",
"209 273 CURVE SMOOTH",
"209 313 LINE",
"59 313 LINE",
"59 294 LINE SMOOTH",
"59 81 OFFCURVE",
"121 -12 OFFCURVE",
"330 -12 CURVE SMOOTH"
);
}
);
width = 665;
}
);
leftMetricsKey = "=uni1489";
note = uni148D;
rightMetricsKey = "=uni1489";
unicode = 148D;
},
{
glyphname = uni1490;
lastChange = "2018-03-08 14:01:59 +0000";
layers = (
{
layerId = "2E7E08E9-F197-422C-8C87-7E7891F2A291";
paths = (
{
closed = 1;
nodes = (
"465 -10 OFFCURVE",
"558 58 OFFCURVE",
"558 254 CURVE SMOOTH",
"558 304 LINE",
"532 304 LINE",
"532 256 LINE SMOOTH",
"532 73 OFFCURVE",
"448 15 OFFCURVE",
"314 15 CURVE SMOOTH",
"177 15 OFFCURVE",
"105 75 OFFCURVE",
"105 244 CURVE SMOOTH",
"105 714 LINE",
"79 714 LINE",
"79 252 LINE SMOOTH",
"79 57 OFFCURVE",
"165 -10 OFFCURVE",
"314 -10 CURVE SMOOTH"
);
}
);
width = 627;
},
{
layerId = "E326D6A0-72EF-479E-B72E-1071BD8CDE1B";
paths = (
{
closed = 1;
nodes = (
"516 -12 OFFCURVE",
"574 85 OFFCURVE",
"574 285 CURVE SMOOTH",
"574 303 LINE",
"496 303 LINE",
"496 285 LINE SMOOTH",
"496 108 OFFCURVE",
"448 59 OFFCURVE",
"320 59 CURVE SMOOTH",
"177 59 OFFCURVE",
"147 147 OFFCURVE",
"147 309 CURVE SMOOTH",
"147 714 LINE",
"69 714 LINE",
"69 336 LINE SMOOTH",
"69 108 OFFCURVE",
"116 -12 OFFCURVE",
"320 -12 CURVE SMOOTH"
);
}
);
width = 633;
},
{
layerId = "2D9103A3-690A-4A3E-A4A3-539A9A9AB4B9";
paths = (
{
closed = 1;
nodes = (
"557 -12 OFFCURVE",
"618 79 OFFCURVE",
"618 301 CURVE SMOOTH",
"618 320 LINE",
"425 320 LINE",
"425 264 LINE SMOOTH",
"425 181 OFFCURVE",
"399 149 OFFCURVE",
"338 149 CURVE SMOOTH",
"277 149 OFFCURVE",
"252 181 OFFCURVE",
"252 264 CURVE SMOOTH",
"252 714 LINE",
"59 714 LINE",
"59 301 LINE SMOOTH",
"59 79 OFFCURVE",
"119 -12 OFFCURVE",
"338 -12 CURVE SMOOTH"
);
}
);
width = 667;
},
{
layerId = "FA7FA507-24BC-4772-BCBB-4BDCA0277846";
paths = (
{
closed = 1;
nodes = (
"546 -12 OFFCURVE",
"606 81 OFFCURVE",
"606 294 CURVE SMOOTH",
"606 313 LINE",
"460 313 LINE",
"460 273 LINE SMOOTH",
"460 151 OFFCURVE",
"425 112 OFFCURVE",
"337 112 CURVE SMOOTH",
"242 112 OFFCURVE",
"215 167 OFFCURVE",
"215 282 CURVE SMOOTH",
"215 714 LINE",
"69 714 LINE",
"69 315 LINE SMOOTH",
"69 91 OFFCURVE",
"124 -12 OFFCURVE",
"337 -12 CURVE SMOOTH"
);
}
);
width = 665;
}
);
leftMetricsKey = "=uni148B";
note = uni1490;
rightMetricsKey = "=uni148B";
unicode = 1490;
},
{
glyphname = uni14A1;
lastChange = "2018-03-08 14:01:59 +0000";
layers = (
{
layerId = "2E7E08E9-F197-422C-8C87-7E7891F2A291";
paths = (
{
closed = 1;
nodes = (
"279 334 OFFCURVE",
"332 392 OFFCURVE",
"332 471 CURVE SMOOTH",
"332 520 LINE",
"308 520 LINE",
"308 471 LINE SMOOTH",
"308 399 OFFCURVE",
"269 356 OFFCURVE",
"198 356 CURVE SMOOTH",
"127 356 OFFCURVE",
"83 399 OFFCURVE",
"83 471 CURVE SMOOTH",
"83 714 LINE",
"59 714 LINE",
"59 471 LINE SMOOTH",
"59 392 OFFCURVE",
"117 334 OFFCURVE",
"198 334 CURVE SMOOTH"
);
}
);
width = 381;
},
{
layerId = "E326D6A0-72EF-479E-B72E-1071BD8CDE1B";
paths = (
{
closed = 1;
nodes = (
"287 334 OFFCURVE",
"342 393 OFFCURVE",
"342 495 CURVE SMOOTH",
"342 520 LINE",
"267 520 LINE",
"267 498 LINE SMOOTH",
"267 434 OFFCURVE",
"241 402 OFFCURVE",
"195 402 CURVE SMOOTH",
"147 402 OFFCURVE",
"124 431 OFFCURVE",
"124 510 CURVE SMOOTH",
"124 714 LINE",
"49 714 LINE",
"49 501 LINE SMOOTH",
"49 396 OFFCURVE",
"98 334 OFFCURVE",
"195 334 CURVE SMOOTH"
);
}
);
width = 381;
},
{
layerId = "2D9103A3-690A-4A3E-A4A3-539A9A9AB4B9";
paths = (
{
closed = 1;
nodes = (
"300 305 OFFCURVE",
"356 366 OFFCURVE",
"356 467 CURVE SMOOTH",
"356 519 LINE",
"243 519 LINE",
"243 483 LINE SMOOTH",
"243 441 OFFCURVE",
"231 413 OFFCURVE",
"196 413 CURVE SMOOTH",
"161 413 OFFCURVE",
"148 441 OFFCURVE",
"148 483 CURVE SMOOTH",
"148 714 LINE",
"39 714 LINE",
"39 483 LINE SMOOTH",
"39 366 OFFCURVE",
"92 305 OFFCURVE",
"196 305 CURVE SMOOTH"
);
}
);
width = 385;
},
{
layerId = "FA7FA507-24BC-4772-BCBB-4BDCA0277846";
paths = (
{
closed = 1;
nodes = (
"298 322 OFFCURVE",
"353 381 OFFCURVE",
"353 481 CURVE SMOOTH",
"353 522 LINE",
"257 522 LINE",
"257 492 LINE SMOOTH",
"257 441 OFFCURVE",
"239 412 OFFCURVE",
"200 412 CURVE SMOOTH",
"160 412 OFFCURVE",
"143 440 OFFCURVE",
"143 497 CURVE SMOOTH",
"143 714 LINE",
"49 714 LINE",
"49 493 LINE SMOOTH",
"49 382 OFFCURVE",
"100 322 OFFCURVE",
"200 322 CURVE SMOOTH"
);
}
);
width = 392;
}
);
note = uni14A1;
unicode = 14A1;
},
{
glyphname = uni14A2;
lastChange = "2018-03-08 14:01:59 +0000";
layers = (
{
layerId = "2E7E08E9-F197-422C-8C87-7E7891F2A291";
paths = (
{
closed = 1;
nodes = (
"274 334 OFFCURVE",
"332 392 OFFCURVE",
"332 471 CURVE SMOOTH",
"332 714 LINE",
"308 714 LINE",
"308 471 LINE SMOOTH",
"308 399 OFFCURVE",
"264 356 OFFCURVE",
"193 356 CURVE SMOOTH",
"122 356 OFFCURVE",
"83 399 OFFCURVE",
"83 471 CURVE SMOOTH",
"83 520 LINE",
"59 520 LINE",
"59 471 LINE SMOOTH",
"59 392 OFFCURVE",
"112 334 OFFCURVE",
"193 334 CURVE SMOOTH"
);
}
);
width = 381;
},
{
layerId = "E326D6A0-72EF-479E-B72E-1071BD8CDE1B";
paths = (
{
closed = 1;
nodes = (
"293 334 OFFCURVE",
"342 396 OFFCURVE",
"342 501 CURVE SMOOTH",
"342 714 LINE",
"267 714 LINE",
"267 510 LINE SMOOTH",
"267 430 OFFCURVE",
"244 402 OFFCURVE",
"196 402 CURVE SMOOTH",
"149 402 OFFCURVE",
"124 435 OFFCURVE",
"124 498 CURVE SMOOTH",
"124 520 LINE",
"49 520 LINE",
"49 495 LINE SMOOTH",
"49 393 OFFCURVE",
"104 334 OFFCURVE",
"196 334 CURVE SMOOTH"
);
}
);
width = 381;
},
{
layerId = "2D9103A3-690A-4A3E-A4A3-539A9A9AB4B9";
paths = (
{
closed = 1;
nodes = (
"293 305 OFFCURVE",
"346 366 OFFCURVE",
"346 483 CURVE SMOOTH",
"346 714 LINE",
"237 714 LINE",
"237 483 LINE SMOOTH",
"237 441 OFFCURVE",
"224 413 OFFCURVE",
"189 413 CURVE SMOOTH",
"154 413 OFFCURVE",
"142 441 OFFCURVE",
"142 483 CURVE SMOOTH",
"142 519 LINE",
"29 519 LINE",
"29 467 LINE SMOOTH",
"29 366 OFFCURVE",
"85 305 OFFCURVE",
"189 305 CURVE SMOOTH"
);
}
);
width = 385;
},
{
layerId = "FA7FA507-24BC-4772-BCBB-4BDCA0277846";
paths = (
{
closed = 1;
nodes = (
"302 322 OFFCURVE",
"353 382 OFFCURVE",
"353 493 CURVE SMOOTH",
"353 714 LINE",
"259 714 LINE",
"259 497 LINE SMOOTH",
"259 439 OFFCURVE",
"242 412 OFFCURVE",
"202 412 CURVE SMOOTH",
"163 412 OFFCURVE",
"146 441 OFFCURVE",
"146 492 CURVE SMOOTH",
"146 522 LINE",
"49 522 LINE",
"49 481 LINE SMOOTH",
"49 381 OFFCURVE",
"104 322 OFFCURVE",
"202 322 CURVE SMOOTH"
);
}
);
width = 392;
}
);
note = uni14A2;
unicode = 14A2;
},
{
glyphname = uni14A3;
lastChange = "2018-03-08 14:01:59 +0000";
layers = (
{
layerId = "2E7E08E9-F197-422C-8C87-7E7891F2A291";
paths = (
{
closed = 1;
nodes = (
"491 0 LINE",
"491 714 LINE",
"59 714 LINE",
"59 689 LINE",
"465 689 LINE",
"465 0 LINE"
);
}
);
width = 570;
},
{
layerId = "E326D6A0-72EF-479E-B72E-1071BD8CDE1B";
paths = (
{
closed = 1;
nodes = (
"523 0 LINE",
"523 714 LINE",
"49 714 LINE",
"49 643 LINE",
"445 643 LINE",
"445 0 LINE"
);
}
);
width = 591;
},
{
layerId = "2D9103A3-690A-4A3E-A4A3-539A9A9AB4B9";
paths = (
{
closed = 1;
nodes = (
"570 0 LINE",
"570 714 LINE",
"39 714 LINE",
"39 558 LINE",
"377 558 LINE",
"377 0 LINE"
);
}
);
width = 629;
},
{
layerId = "FA7FA507-24BC-4772-BCBB-4BDCA0277846";
paths = (
{
closed = 1;
nodes = (
"557 0 LINE",
"557 714 LINE",
"49 714 LINE",
"49 593 LINE",
"411 593 LINE",
"411 0 LINE"
);
}
);
width = 625;
}
);
note = uni14A3;
unicode = 14A3;
},
{
glyphname = uni14A5;
lastChange = "2018-03-08 14:01:59 +0000";
layers = (
{
layerId = "2E7E08E9-F197-422C-8C87-7E7891F2A291";
paths = (
{
closed = 1;
nodes = (
"105 0 LINE",
"105 689 LINE",
"511 689 LINE",
"511 714 LINE",
"79 714 LINE",
"79 0 LINE"
);
}
);
width = 570;
},
{
layerId = "E326D6A0-72EF-479E-B72E-1071BD8CDE1B";
paths = (
{
closed = 1;
nodes = (
"146 0 LINE",
"146 643 LINE",
"542 643 LINE",
"542 714 LINE",
"68 714 LINE",
"68 0 LINE"
);
}
);
width = 591;
},
{
layerId = "2D9103A3-690A-4A3E-A4A3-539A9A9AB4B9";
paths = (
{
closed = 1;
nodes = (
"252 0 LINE",
"252 558 LINE",
"590 558 LINE",
"590 714 LINE",
"59 714 LINE",
"59 0 LINE"
);
}
);
width = 629;
},
{
layerId = "FA7FA507-24BC-4772-BCBB-4BDCA0277846";
paths = (
{
closed = 1;
nodes = (
"214 0 LINE",
"214 593 LINE",
"575 593 LINE",
"575 714 LINE",
"68 714 LINE",
"68 0 LINE"
);
}
);
width = 624;
}
);
note = uni14A5;
unicode = 14A5;
},
{
glyphname = uni14A7;
lastChange = "2018-03-08 14:01:59 +0000";
layers = (
{
layerId = "2E7E08E9-F197-422C-8C87-7E7891F2A291";
paths = (
{
closed = 1;
nodes = (
"491 0 LINE",
"491 714 LINE",
"465 714 LINE",
"465 25 LINE",
"59 25 LINE",
"59 0 LINE"
);
}
);
width = 570;
},
{
layerId = "E326D6A0-72EF-479E-B72E-1071BD8CDE1B";
paths = (
{
closed = 1;
nodes = (
"523 0 LINE",
"523 714 LINE",
"445 714 LINE",
"445 71 LINE",
"49 71 LINE",
"49 0 LINE"
);
}
);
width = 591;
},
{
layerId = "2D9103A3-690A-4A3E-A4A3-539A9A9AB4B9";
paths = (
{
closed = 1;
nodes = (
"570 0 LINE",
"570 714 LINE",
"377 714 LINE",
"377 156 LINE",
"39 156 LINE",
"39 0 LINE"
);
}
);
width = 629;
},
{
layerId = "FA7FA507-24BC-4772-BCBB-4BDCA0277846";
paths = (
{
closed = 1;
nodes = (
"557 0 LINE",
"557 714 LINE",
"411 714 LINE",
"411 121 LINE",
"49 121 LINE",
"49 0 LINE"
);
}
);
width = 625;
}
);
leftMetricsKey = "=uni14A3";
note = uni14A7;
rightMetricsKey = "=uni14A3";
unicode = 14A7;
},
{
glyphname = uni14AA;
lastChange = "2018-03-08 14:01:59 +0000";
layers = (
{
layerId = "2E7E08E9-F197-422C-8C87-7E7891F2A291";
paths = (
{
closed = 1;
nodes = (
"511 0 LINE",
"511 25 LINE",
"105 25 LINE",
"105 714 LINE",
"79 714 LINE",
"79 0 LINE"
);
}
);
width = 570;
},
{
layerId = "E326D6A0-72EF-479E-B72E-1071BD8CDE1B";
paths = (
{
closed = 1;
nodes = (
"542 0 LINE",
"542 71 LINE",
"146 71 LINE",
"146 714 LINE",
"68 714 LINE",
"68 0 LINE"
);
}
);
width = 591;
},
{
layerId = "2D9103A3-690A-4A3E-A4A3-539A9A9AB4B9";
paths = (
{
closed = 1;
nodes = (
"590 0 LINE",
"590 156 LINE",
"252 156 LINE",
"252 714 LINE",
"59 714 LINE",
"59 0 LINE"
);
}
);
width = 629;
},
{
layerId = "FA7FA507-24BC-4772-BCBB-4BDCA0277846";
paths = (
{
closed = 1;
nodes = (
"575 0 LINE",
"575 121 LINE",
"214 121 LINE",
"214 714 LINE",
"68 714 LINE",
"68 0 LINE"
);
}
);
width = 624;
}
);
leftMetricsKey = "=uni14A5";
note = uni14AA;
rightMetricsKey = "=uni14A5";
unicode = 14AA;
},
{
glyphname = uni14BB;
lastChange = "2018-03-08 14:01:59 +0000";
layers = (
{
layerId = "2E7E08E9-F197-422C-8C87-7E7891F2A291";
paths = (
{
closed = 1;
nodes = (
"296 342 LINE",
"296 364 LINE",
"73 364 LINE",
"73 714 LINE",
"49 714 LINE",
"49 342 LINE"
);
}
);
width = 345;
},
{
layerId = "E326D6A0-72EF-479E-B72E-1071BD8CDE1B";
paths = (
{
closed = 1;
nodes = (
"315 342 LINE",
"315 409 LINE",
"114 409 LINE",
"114 714 LINE",
"39 714 LINE",
"39 342 LINE"
);
}
);
width = 354;
},
{
layerId = "2D9103A3-690A-4A3E-A4A3-539A9A9AB4B9";
paths = (
{
closed = 1;
nodes = (
"325 317 LINE",
"325 425 LINE",
"147 425 LINE",
"147 714 LINE",
"29 714 LINE",
"29 317 LINE"
);
}
);
width = 354;
},
{
layerId = "FA7FA507-24BC-4772-BCBB-4BDCA0277846";
paths = (
{
closed = 1;
nodes = (
"323 332 LINE",
"323 422 LINE",
"138 422 LINE",
"138 714 LINE",
"39 714 LINE",
"39 332 LINE"
);
}
);
width = 362;
}
);
note = uni14BB;
unicode = 14BB;
},
{
glyphname = uni14BC;
lastChange = "2018-03-08 14:01:59 +0000";
layers = (
{
layerId = "2E7E08E9-F197-422C-8C87-7E7891F2A291";
paths = (
{
closed = 1;
nodes = (
"320 382 LINE",
"320 404 LINE",
"229 404 LINE SMOOTH",
"106 404 OFFCURVE",
"73 462 OFFCURVE",
"73 548 CURVE SMOOTH",
"73 634 OFFCURVE",
"106 692 OFFCURVE",
"229 692 CURVE SMOOTH",
"320 692 LINE",
"320 714 LINE",
"228 714 LINE SMOOTH",
"108 714 OFFCURVE",
"49 659 OFFCURVE",
"49 548 CURVE SMOOTH",
"49 437 OFFCURVE",
"108 382 OFFCURVE",
"228 382 CURVE SMOOTH"
);
}
);
width = 369;
},
{
layerId = "E326D6A0-72EF-479E-B72E-1071BD8CDE1B";
paths = (
{
closed = 1;
nodes = (
"324 342 LINE",
"324 409 LINE",
"279 409 LINE SMOOTH",
"149 409 OFFCURVE",
"114 447 OFFCURVE",
"114 537 CURVE SMOOTH",
"114 611 OFFCURVE",
"157 646 OFFCURVE",
"260 646 CURVE SMOOTH",
"324 646 LINE",
"324 714 LINE",
"262 714 LINE SMOOTH",
"114 714 OFFCURVE",
"39 659 OFFCURVE",
"39 537 CURVE SMOOTH",
"39 400 OFFCURVE",
"108 342 OFFCURVE",
"271 342 CURVE SMOOTH"
);
}
);
width = 363;
},
{
layerId = "2D9103A3-690A-4A3E-A4A3-539A9A9AB4B9";
paths = (
{
closed = 1;
nodes = (
"359 317 LINE",
"359 425 LINE",
"274 425 LINE SMOOTH",
"177 425 OFFCURVE",
"147 454 OFFCURVE",
"147 517 CURVE SMOOTH",
"147 579 OFFCURVE",
"177 606 OFFCURVE",
"258 606 CURVE SMOOTH",
"359 606 LINE",
"359 714 LINE",
"265 714 LINE SMOOTH",
"103 714 OFFCURVE",
"29 655 OFFCURVE",
"29 518 CURVE SMOOTH",
"29 379 OFFCURVE",
"105 317 OFFCURVE",
"277 317 CURVE SMOOTH"
);
}
);
width = 388;
},
{
layerId = "FA7FA507-24BC-4772-BCBB-4BDCA0277846";
paths = (
{
closed = 1;
nodes = (
"347 332 LINE",
"347 422 LINE",
"279 422 LINE SMOOTH",
"170 422 OFFCURVE",
"138 454 OFFCURVE",
"138 528 CURVE SMOOTH",
"138 594 OFFCURVE",
"173 624 OFFCURVE",
"263 624 CURVE SMOOTH",
"347 624 LINE",
"347 714 LINE",
"268 714 LINE SMOOTH",
"113 714 OFFCURVE",
"39 657 OFFCURVE",
"39 528 CURVE SMOOTH",
"39 392 OFFCURVE",
"112 332 OFFCURVE",
"278 332 CURVE SMOOTH"
);
}
);
width = 386;
}
);
note = uni14BC;
unicode = 14BC;
},
{
glyphname = uni14BD;
lastChange = "2018-03-08 14:01:59 +0000";
layers = (
{
layerId = "2E7E08E9-F197-422C-8C87-7E7891F2A291";
paths = (
{
closed = 1;
nodes = (
"283 342 LINE",
"283 714 LINE",
"259 714 LINE",
"259 364 LINE",
"49 364 LINE",
"49 342 LINE"
);
}
);
width = 332;
},
{
layerId = "E326D6A0-72EF-479E-B72E-1071BD8CDE1B";
paths = (
{
closed = 1;
nodes = (
"315 342 LINE",
"315 714 LINE",
"240 714 LINE",
"240 409 LINE",
"39 409 LINE",
"39 342 LINE"
);
}
);
width = 354;
},
{
layerId = "2D9103A3-690A-4A3E-A4A3-539A9A9AB4B9";
paths = (
{
closed = 1;
nodes = (
"325 317 LINE",
"325 714 LINE",
"207 714 LINE",
"207 425 LINE",
"29 425 LINE",
"29 317 LINE"
);
}
);
width = 354;
},
{
layerId = "FA7FA507-24BC-4772-BCBB-4BDCA0277846";
paths = (
{
closed = 1;
nodes = (
"323 332 LINE",
"323 714 LINE",
"224 714 LINE",
"224 422 LINE",
"39 422 LINE",
"39 332 LINE"
);
}
);
width = 362;
}
);
note = uni14BD;
unicode = 14BD;
},
{
glyphname = uni14BE;
lastChange = "2018-03-08 14:01:59 +0000";
layers = (
{
layerId = "2E7E08E9-F197-422C-8C87-7E7891F2A291";
paths = (
{
closed = 1;
nodes = (
"324 351 LINE",
"324 371 LINE",
"101 371 LINE",
"195 457 LINE SMOOTH",
"249 506 OFFCURVE",
"298 542 OFFCURVE",
"298 612 CURVE SMOOTH",
"298 678 OFFCURVE",
"255 726 OFFCURVE",
"175 726 CURVE SMOOTH",
"95 726 OFFCURVE",
"49 678 OFFCURVE",
"49 612 CURVE",
"73 612 LINE",
"73 664 OFFCURVE",
"110 706 OFFCURVE",
"175 706 CURVE SMOOTH",
"240 706 OFFCURVE",
"274 664 OFFCURVE",
"274 612 CURVE SMOOTH",
"274 552 OFFCURVE",
"228 516 OFFCURVE",
"183 474 CURVE SMOOTH",
"67 367 LINE",
"67 351 LINE"
);
}
);
width = 373;
},
{
layerId = "E326D6A0-72EF-479E-B72E-1071BD8CDE1B";
paths = (
{
closed = 1;
nodes = (
"331 342 LINE",
"331 409 LINE",
"173 409 LINE",
"274 501 LINE SMOOTH",
"317 540 OFFCURVE",
"330 564 OFFCURVE",
"330 609 CURVE SMOOTH",
"330 673 OFFCURVE",
"268 721 OFFCURVE",
"188 721 CURVE SMOOTH",
"100 721 OFFCURVE",
"43 675 OFFCURVE",
"39 593 CURVE",
"111 593 LINE",
"111 632 OFFCURVE",
"139 654 OFFCURVE",
"187 654 CURVE SMOOTH",
"224 654 OFFCURVE",
"254 635 OFFCURVE",
"254 606 CURVE SMOOTH",
"254 568 OFFCURVE",
"214 532 OFFCURVE",
"161 484 CURVE SMOOTH",
"48 383 LINE",
"48 342 LINE"
);
}
);
width = 370;
},
{
layerId = "2D9103A3-690A-4A3E-A4A3-539A9A9AB4B9";
paths = (
{
closed = 1;
nodes = (
"339 318 LINE",
"339 406 LINE",
"196 406 LINE",
"221 431 LINE SMOOTH",
"304 514 OFFCURVE",
"333 551 OFFCURVE",
"333 606 CURVE SMOOTH",
"333 669 OFFCURVE",
"293 726 OFFCURVE",
"185 726 CURVE SMOOTH",
"85 726 OFFCURVE",
"29 666 OFFCURVE",
"29 592 CURVE",
"140 592 LINE",
"140 621 OFFCURVE",
"157 634 OFFCURVE",
"180 634 CURVE SMOOTH",
"208 634 OFFCURVE",
"219 618 OFFCURVE",
"219 603 CURVE SMOOTH",
"219 578 OFFCURVE",
"191 547 OFFCURVE",
"152 508 CURVE SMOOTH",
"38 392 LINE",
"38 318 LINE"
);
}
);
width = 368;
},
{
layerId = "FA7FA507-24BC-4772-BCBB-4BDCA0277846";
paths = (
{
closed = 1;
nodes = (
"338 333 LINE",
"338 411 LINE",
"191 411 LINE",
"245 463 LINE SMOOTH",
"310 525 OFFCURVE",
"334 559 OFFCURVE",
"334 608 CURVE SMOOTH",
"334 671 OFFCURVE",
"286 724 OFFCURVE",
"191 724 CURVE SMOOTH",
"97 724 OFFCURVE",
"41 670 OFFCURVE",
"39 594 CURVE",
"133 594 LINE",
"133 627 OFFCURVE",
"155 643 OFFCURVE",
"187 643 CURVE SMOOTH",
"219 643 OFFCURVE",
"237 626 OFFCURVE",
"237 605 CURVE SMOOTH",
"237 576 OFFCURVE",
"203 543 OFFCURVE",
"159 500 CURVE SMOOTH",
"48 392 LINE",
"48 333 LINE"
);
}
);
width = 377;
}
);
note = uni14BE;
unicode = 14BE;
},
{
glyphname = uni14BF;
lastChange = "2018-03-08 14:01:59 +0000";
layers = (
{
layerId = "2E7E08E9-F197-422C-8C87-7E7891F2A291";
paths = (
{
closed = 1;
nodes = (
"469 0 LINE",
"469 25 LINE",
"107 25 LINE",
"304 229 LINE SMOOTH",
"424 354 OFFCURVE",
"469 440 OFFCURVE",
"469 530 CURVE SMOOTH",
"469 661 OFFCURVE",
"377 726 OFFCURVE",
"270 726 CURVE SMOOTH",
"154 726 OFFCURVE",
"69 651 OFFCURVE",
"69 539 CURVE",
"96 539 LINE",
"96 641 OFFCURVE",
"166 701 OFFCURVE",
"270 701 CURVE SMOOTH",
"371 701 OFFCURVE",
"442 644 OFFCURVE",
"442 531 CURVE SMOOTH",
"442 450 OFFCURVE",
"404 367 OFFCURVE",
"284 243 CURVE SMOOTH",
"71 23 LINE",
"71 0 LINE"
);
}
);
width = 538;
},
{
layerId = "E326D6A0-72EF-479E-B72E-1071BD8CDE1B";
paths = (
{
closed = 1;
nodes = (
"526 0 LINE",
"526 71 LINE",
"196 71 LINE",
"343 201 LINE SMOOTH",
"495 335 OFFCURVE",
"526 411 OFFCURVE",
"526 511 CURVE SMOOTH",
"526 644 OFFCURVE",
"438 726 OFFCURVE",
"290 726 CURVE SMOOTH",
"147 726 OFFCURVE",
"59 657 OFFCURVE",
"59 532 CURVE",
"137 532 LINE",
"137 612 OFFCURVE",
"193 655 OFFCURVE",
"289 655 CURVE SMOOTH",
"385 655 OFFCURVE",
"446 598 OFFCURVE",
"446 507 CURVE SMOOTH",
"446 398 OFFCURVE",
"374 324 OFFCURVE",
"263 224 CURVE SMOOTH",
"74 55 LINE",
"74 0 LINE"
);
}
);
width = 585;
},
{
layerId = "2D9103A3-690A-4A3E-A4A3-539A9A9AB4B9";
paths = (
{
closed = 1;
nodes = (
"546 0 LINE",
"546 156 LINE",
"326 156 LINE",
"367 202 LINE SMOOTH",
"501 353 OFFCURVE",
"554 413 OFFCURVE",
"554 512 CURVE SMOOTH",
"554 625 OFFCURVE",
"486 726 OFFCURVE",
"308 726 CURVE SMOOTH",
"141 726 OFFCURVE",
"49 637 OFFCURVE",
"49 506 CURVE",
"235 506 LINE",
"235 543 OFFCURVE",
"262 563 OFFCURVE",
"300 563 CURVE SMOOTH",
"346 563 OFFCURVE",
"363 534 OFFCURVE",
"363 507 CURVE SMOOTH",
"363 462 OFFCURVE",
"313 406 OFFCURVE",
"248 335 CURVE SMOOTH",
"63 132 LINE",
"63 0 LINE"
);
}
);
width = 603;
},
{
layerId = "FA7FA507-24BC-4772-BCBB-4BDCA0277846";
paths = (
{
closed = 1;
nodes = (
"544 0 LINE",
"544 121 LINE",
"279 121 LINE",
"361 200 LINE SMOOTH",
"506 340 OFFCURVE",
"549 412 OFFCURVE",
"549 512 CURVE SMOOTH",
"549 633 OFFCURVE",
"472 726 OFFCURVE",
"307 726 CURVE SMOOTH",
"150 726 OFFCURVE",
"59 645 OFFCURVE",
"59 517 CURVE",
"201 517 LINE",
"201 571 OFFCURVE",
"240 601 OFFCURVE",
"302 601 CURVE SMOOTH",
"368 601 OFFCURVE",
"403 560 OFFCURVE",
"403 507 CURVE SMOOTH",
"403 436 OFFCURVE",
"343 373 OFFCURVE",
"260 289 CURVE SMOOTH",
"74 100 LINE",
"74 0 LINE"
);
}
);
width = 608;
}
);
note = uni14BF;
unicode = 14BF;
},
{
glyphname = uni14C0;
lastChange = "2018-03-08 14:01:59 +0000";
layers = (
{
layerId = "2E7E08E9-F197-422C-8C87-7E7891F2A291";
paths = (
{
closed = 1;
nodes = (
"717 -12 OFFCURVE",
"828 98 OFFCURVE",
"828 234 CURVE SMOOTH",
"828 370 OFFCURVE",
"718 481 OFFCURVE",
"581 481 CURVE SMOOTH",
"59 481 LINE",
"59 456 LINE",
"481 456 LINE",
"395 421 OFFCURVE",
"336 333 OFFCURVE",
"336 234 CURVE SMOOTH",
"336 98 OFFCURVE",
"446 -12 OFFCURVE",
"581 -12 CURVE SMOOTH"
);
},
{
closed = 1;
nodes = (
"460 13 OFFCURVE",
"363 112 OFFCURVE",
"363 234 CURVE SMOOTH",
"363 356 OFFCURVE",
"459 456 OFFCURVE",
"581 456 CURVE SMOOTH",
"704 456 OFFCURVE",
"801 356 OFFCURVE",
"801 234 CURVE SMOOTH",
"801 112 OFFCURVE",
"703 13 OFFCURVE",
"581 13 CURVE SMOOTH"
);
}
);
width = 897;
},
{
layerId = "E326D6A0-72EF-479E-B72E-1071BD8CDE1B";
paths = (
{
closed = 1;
nodes = (
"748 -12 OFFCURVE",
"846 88 OFFCURVE",
"846 246 CURVE SMOOTH",
"846 404 OFFCURVE",
"743 500 OFFCURVE",
"584 500 CURVE SMOOTH",
"49 500 LINE",
"49 430 LINE",
"410 430 LINE",
"360 374 OFFCURVE",
"340 326 OFFCURVE",
"340 233 CURVE SMOOTH",
"340 91 OFFCURVE",
"447 -12 OFFCURVE",
"594 -12 CURVE SMOOTH"
);
},
{
closed = 1;
nodes = (
"497 59 OFFCURVE",
"418 129 OFFCURVE",
"418 235 CURVE SMOOTH",
"418 354 OFFCURVE",
"484 430 OFFCURVE",
"593 430 CURVE SMOOTH",
"692 430 OFFCURVE",
"768 359 OFFCURVE",
"768 248 CURVE SMOOTH",
"768 133 OFFCURVE",
"699 59 OFFCURVE",
"598 59 CURVE SMOOTH"
);
}
);
width = 905;
},
{
layerId = "2D9103A3-690A-4A3E-A4A3-539A9A9AB4B9";
paths = (
{
closed = 1;
nodes = (
"806 -12 OFFCURVE",
"882 121 OFFCURVE",
"882 251 CURVE SMOOTH",
"882 381 OFFCURVE",
"806 514 OFFCURVE",
"599 514 CURVE SMOOTH",
"39 514 LINE",
"39 358 LINE",
"335 358 LINE",
"322 324 OFFCURVE",
"316 287 OFFCURVE",
"316 251 CURVE SMOOTH",
"316 121 OFFCURVE",
"392 -12 OFFCURVE",
"599 -12 CURVE SMOOTH"
);
},
{
closed = 1;
nodes = (
"539 149 OFFCURVE",
"510 190 OFFCURVE",
"510 251 CURVE SMOOTH",
"510 312 OFFCURVE",
"539 353 OFFCURVE",
"599 353 CURVE SMOOTH",
"661 353 OFFCURVE",
"688 312 OFFCURVE",
"688 251 CURVE SMOOTH",
"688 190 OFFCURVE",
"661 149 OFFCURVE",
"599 149 CURVE SMOOTH"
);
}
);
width = 931;
},
{
layerId = "FA7FA507-24BC-4772-BCBB-4BDCA0277846";
paths = (
{
closed = 1;
nodes = (
"768 -12 OFFCURVE",
"873 90 OFFCURVE",
"873 250 CURVE SMOOTH",
"873 412 OFFCURVE",
"764 509 OFFCURVE",
"600 509 CURVE SMOOTH",
"49 509 LINE",
"49 389 LINE",
"385 389 LINE",
"357 347 OFFCURVE",
"346 303 OFFCURVE",
"346 243 CURVE SMOOTH",
"346 90 OFFCURVE",
"458 -12 OFFCURVE",
"611 -12 CURVE SMOOTH"
);
},
{
closed = 1;
nodes = (
"537 107 OFFCURVE",
"475 159 OFFCURVE",
"475 244 CURVE SMOOTH",
"475 332 OFFCURVE",
"526 392 OFFCURVE",
"609 392 CURVE SMOOTH",
"685 392 OFFCURVE",
"743 338 OFFCURVE",
"743 251 CURVE SMOOTH",
"743 164 OFFCURVE",
"690 107 OFFCURVE",
"612 107 CURVE SMOOTH"
);
}
);
width = 932;
}
);
note = uni14C0;
unicode = 14C0;
},
{
glyphname = uni14C2;
lastChange = "2018-03-08 14:01:59 +0000";
layers = (
{
layerId = "2E7E08E9-F197-422C-8C87-7E7891F2A291";
paths = (
{
closed = 1;
nodes = (
"451 -12 OFFCURVE",
"561 98 OFFCURVE",
"561 234 CURVE SMOOTH",
"561 333 OFFCURVE",
"502 421 OFFCURVE",
"416 456 CURVE",
"838 456 LINE",
"838 481 LINE",
"316 481 LINE SMOOTH",
"179 481 OFFCURVE",
"69 370 OFFCURVE",
"69 234 CURVE SMOOTH",
"69 98 OFFCURVE",
"180 -12 OFFCURVE",
"316 -12 CURVE SMOOTH"
);
},
{
closed = 1;
nodes = (
"194 13 OFFCURVE",
"96 112 OFFCURVE",
"96 234 CURVE SMOOTH",
"96 356 OFFCURVE",
"193 456 OFFCURVE",
"316 456 CURVE SMOOTH",
"438 456 OFFCURVE",
"534 356 OFFCURVE",
"534 234 CURVE SMOOTH",
"534 112 OFFCURVE",
"437 13 OFFCURVE",
"316 13 CURVE SMOOTH"
);
}
);
width = 897;
},
{
layerId = "E326D6A0-72EF-479E-B72E-1071BD8CDE1B";
paths = (
{
closed = 1;
nodes = (
"458 -12 OFFCURVE",
"564 91 OFFCURVE",
"564 233 CURVE SMOOTH",
"564 323 OFFCURVE",
"546 372 OFFCURVE",
"495 430 CURVE",
"855 430 LINE",
"855 500 LINE",
"320 500 LINE SMOOTH",
"161 500 OFFCURVE",
"59 404 OFFCURVE",
"59 246 CURVE SMOOTH",
"59 88 OFFCURVE",
"156 -12 OFFCURVE",
"311 -12 CURVE SMOOTH"
);
},
{
closed = 1;
nodes = (
"204 59 OFFCURVE",
"137 135 OFFCURVE",
"137 248 CURVE SMOOTH",
"137 359 OFFCURVE",
"212 430 OFFCURVE",
"311 430 CURVE SMOOTH",
"420 430 OFFCURVE",
"486 354 OFFCURVE",
"486 235 CURVE SMOOTH",
"486 129 OFFCURVE",
"408 59 OFFCURVE",
"307 59 CURVE SMOOTH"
);
}
);
width = 904;
},
{
layerId = "2D9103A3-690A-4A3E-A4A3-539A9A9AB4B9";
paths = (
{
closed = 1;
nodes = (
"539 -12 OFFCURVE",
"615 121 OFFCURVE",
"615 251 CURVE SMOOTH",
"615 287 OFFCURVE",
"609 324 OFFCURVE",
"596 358 CURVE",
"892 358 LINE",
"892 514 LINE",
"332 514 LINE SMOOTH",
"125 514 OFFCURVE",
"49 381 OFFCURVE",
"49 251 CURVE SMOOTH",
"49 121 OFFCURVE",
"125 -12 OFFCURVE",
"332 -12 CURVE SMOOTH"
);
},
{
closed = 1;
nodes = (
"270 149 OFFCURVE",
"243 190 OFFCURVE",
"243 251 CURVE SMOOTH",
"243 312 OFFCURVE",
"270 353 OFFCURVE",
"332 353 CURVE SMOOTH",
"392 353 OFFCURVE",
"421 312 OFFCURVE",
"421 251 CURVE SMOOTH",
"421 190 OFFCURVE",
"392 149 OFFCURVE",
"332 149 CURVE SMOOTH"
);
}
);
width = 931;
},
{
layerId = "FA7FA507-24BC-4772-BCBB-4BDCA0277846";
paths = (
{
closed = 1;
nodes = (
"474 -12 OFFCURVE",
"587 90 OFFCURVE",
"587 243 CURVE SMOOTH",
"587 302 OFFCURVE",
"576 346 OFFCURVE",
"548 389 CURVE",
"883 389 LINE",
"883 509 LINE",
"332 509 LINE SMOOTH",
"168 509 OFFCURVE",
"59 412 OFFCURVE",
"59 250 CURVE SMOOTH",
"59 90 OFFCURVE",
"164 -12 OFFCURVE",
"321 -12 CURVE SMOOTH"
);
},
{
closed = 1;
nodes = (
"241 107 OFFCURVE",
"189 165 OFFCURVE",
"189 251 CURVE SMOOTH",
"189 338 OFFCURVE",
"247 392 OFFCURVE",
"323 392 CURVE SMOOTH",
"406 392 OFFCURVE",
"457 332 OFFCURVE",
"457 244 CURVE SMOOTH",
"457 159 OFFCURVE",
"395 107 OFFCURVE",
"320 107 CURVE SMOOTH"
);
}
);
width = 932;
}
);
note = uni14C2;
unicode = 14C2;
},
{
glyphname = uni14C4;
lastChange = "2018-03-08 14:01:59 +0000";
layers = (
{
layerId = "2E7E08E9-F197-422C-8C87-7E7891F2A291";
paths = (
{
closed = 1;
nodes = (
"581 0 LINE SMOOTH",
"718 0 OFFCURVE",
"828 111 OFFCURVE",
"828 247 CURVE SMOOTH",
"828 383 OFFCURVE",
"717 493 OFFCURVE",
"581 493 CURVE SMOOTH",
"446 493 OFFCURVE",
"336 383 OFFCURVE",
"336 247 CURVE SMOOTH",
"336 148 OFFCURVE",
"395 60 OFFCURVE",
"481 25 CURVE",
"59 25 LINE",
"59 0 LINE"
);
},
{
closed = 1;
nodes = (
"459 25 OFFCURVE",
"363 125 OFFCURVE",
"363 247 CURVE SMOOTH",
"363 369 OFFCURVE",
"460 468 OFFCURVE",
"581 468 CURVE SMOOTH",
"703 468 OFFCURVE",
"801 369 OFFCURVE",
"801 247 CURVE SMOOTH",
"801 125 OFFCURVE",
"704 25 OFFCURVE",
"581 25 CURVE SMOOTH"
);
}
);
width = 897;
},
{
layerId = "E326D6A0-72EF-479E-B72E-1071BD8CDE1B";
paths = (
{
closed = 1;
nodes = (
"584 0 LINE SMOOTH",
"743 0 OFFCURVE",
"846 96 OFFCURVE",
"846 254 CURVE SMOOTH",
"846 412 OFFCURVE",
"748 513 OFFCURVE",
"594 513 CURVE SMOOTH",
"447 513 OFFCURVE",
"340 410 OFFCURVE",
"340 268 CURVE SMOOTH",
"340 178 OFFCURVE",
"359 129 OFFCURVE",
"410 71 CURVE",
"49 71 LINE",
"49 0 LINE"
);
},
{
closed = 1;
nodes = (
"484 71 OFFCURVE",
"418 147 OFFCURVE",
"418 266 CURVE SMOOTH",
"418 371 OFFCURVE",
"497 442 OFFCURVE",
"598 442 CURVE SMOOTH",
"701 442 OFFCURVE",
"768 366 OFFCURVE",
"768 253 CURVE SMOOTH",
"768 142 OFFCURVE",
"692 71 OFFCURVE",
"593 71 CURVE SMOOTH"
);
}
);
width = 904;
},
{
layerId = "2D9103A3-690A-4A3E-A4A3-539A9A9AB4B9";
paths = (
{
closed = 1;
nodes = (
"599 0 LINE SMOOTH",
"806 0 OFFCURVE",
"882 133 OFFCURVE",
"882 263 CURVE SMOOTH",
"882 393 OFFCURVE",
"806 526 OFFCURVE",
"599 526 CURVE SMOOTH",
"392 526 OFFCURVE",
"316 393 OFFCURVE",
"316 263 CURVE SMOOTH",
"316 227 OFFCURVE",
"322 190 OFFCURVE",
"335 156 CURVE",
"39 156 LINE",
"39 0 LINE"
);
},
{
closed = 1;
nodes = (
"539 161 OFFCURVE",
"510 202 OFFCURVE",
"510 263 CURVE SMOOTH",
"510 324 OFFCURVE",
"539 365 OFFCURVE",
"599 365 CURVE SMOOTH",
"661 365 OFFCURVE",
"688 324 OFFCURVE",
"688 263 CURVE SMOOTH",
"688 202 OFFCURVE",
"661 161 OFFCURVE",
"599 161 CURVE SMOOTH"
);
}
);
width = 931;
},
{
layerId = "FA7FA507-24BC-4772-BCBB-4BDCA0277846";
paths = (
{
closed = 1;
nodes = (
"600 0 LINE SMOOTH",
"764 0 OFFCURVE",
"873 97 OFFCURVE",
"873 259 CURVE SMOOTH",
"873 420 OFFCURVE",
"768 522 OFFCURVE",
"611 522 CURVE SMOOTH",
"458 522 OFFCURVE",
"346 420 OFFCURVE",
"346 267 CURVE SMOOTH",
"346 208 OFFCURVE",
"357 164 OFFCURVE",
"385 121 CURVE",
"49 121 LINE",
"49 0 LINE"
);
},
{
closed = 1;
nodes = (
"526 118 OFFCURVE",
"475 178 OFFCURVE",
"475 265 CURVE SMOOTH",
"475 351 OFFCURVE",
"537 402 OFFCURVE",
"612 402 CURVE SMOOTH",
"691 402 OFFCURVE",
"743 345 OFFCURVE",
"743 259 CURVE SMOOTH",
"743 172 OFFCURVE",
"685 118 OFFCURVE",
"609 118 CURVE SMOOTH"
);
}
);
width = 931;
}
);
note = uni14C4;
unicode = 14C4;
},
{
glyphname = uni14C7;
lastChange = "2018-03-08 14:01:59 +0000";
layers = (
{
layerId = "2E7E08E9-F197-422C-8C87-7E7891F2A291";
paths = (
{
closed = 1;
nodes = (
"838 0 LINE",
"838 25 LINE",
"416 25 LINE",
"502 60 OFFCURVE",
"561 148 OFFCURVE",
"561 247 CURVE SMOOTH",
"561 383 OFFCURVE",
"451 493 OFFCURVE",
"316 493 CURVE SMOOTH",
"180 493 OFFCURVE",
"69 383 OFFCURVE",
"69 247 CURVE SMOOTH",
"69 111 OFFCURVE",
"179 0 OFFCURVE",
"316 0 CURVE SMOOTH"
);
},
{
closed = 1;
nodes = (
"193 25 OFFCURVE",
"96 125 OFFCURVE",
"96 247 CURVE SMOOTH",
"96 369 OFFCURVE",
"194 468 OFFCURVE",
"316 468 CURVE SMOOTH",
"437 468 OFFCURVE",
"534 369 OFFCURVE",
"534 247 CURVE SMOOTH",
"534 125 OFFCURVE",
"438 25 OFFCURVE",
"316 25 CURVE SMOOTH"
);
}
);
width = 897;
},
{
layerId = "E326D6A0-72EF-479E-B72E-1071BD8CDE1B";
paths = (
{
closed = 1;
nodes = (
"855 0 LINE",
"855 71 LINE",
"495 71 LINE",
"545 128 OFFCURVE",
"564 175 OFFCURVE",
"564 268 CURVE SMOOTH",
"564 410 OFFCURVE",
"458 513 OFFCURVE",
"311 513 CURVE SMOOTH",
"157 513 OFFCURVE",
"59 412 OFFCURVE",
"59 254 CURVE SMOOTH",
"59 96 OFFCURVE",
"161 0 OFFCURVE",
"320 0 CURVE SMOOTH"
);
},
{
closed = 1;
nodes = (
"212 71 OFFCURVE",
"137 142 OFFCURVE",
"137 253 CURVE SMOOTH",
"137 368 OFFCURVE",
"205 442 OFFCURVE",
"307 442 CURVE SMOOTH",
"408 442 OFFCURVE",
"486 371 OFFCURVE",
"486 266 CURVE SMOOTH",
"486 147 OFFCURVE",
"420 71 OFFCURVE",
"311 71 CURVE SMOOTH"
);
}
);
width = 904;
},
{
layerId = "2D9103A3-690A-4A3E-A4A3-539A9A9AB4B9";
paths = (
{
closed = 1;
nodes = (
"892 0 LINE",
"892 156 LINE",
"596 156 LINE",
"609 190 OFFCURVE",
"615 227 OFFCURVE",
"615 263 CURVE SMOOTH",
"615 393 OFFCURVE",
"539 526 OFFCURVE",
"332 526 CURVE SMOOTH",
"125 526 OFFCURVE",
"49 393 OFFCURVE",
"49 263 CURVE SMOOTH",
"49 133 OFFCURVE",
"125 0 OFFCURVE",
"332 0 CURVE SMOOTH"
);
},
{
closed = 1;
nodes = (
"270 161 OFFCURVE",
"243 202 OFFCURVE",
"243 263 CURVE SMOOTH",
"243 324 OFFCURVE",
"270 365 OFFCURVE",
"332 365 CURVE SMOOTH",
"392 365 OFFCURVE",
"421 324 OFFCURVE",
"421 263 CURVE SMOOTH",
"421 202 OFFCURVE",
"392 161 OFFCURVE",
"332 161 CURVE SMOOTH"
);
}
);
width = 931;
},
{
layerId = "FA7FA507-24BC-4772-BCBB-4BDCA0277846";
paths = (
{
closed = 1;
nodes = (
"883 0 LINE",
"883 121 LINE",
"548 121 LINE",
"575 163 OFFCURVE",
"587 207 OFFCURVE",
"587 267 CURVE SMOOTH",
"587 420 OFFCURVE",
"474 522 OFFCURVE",
"321 522 CURVE SMOOTH",
"164 522 OFFCURVE",
"59 420 OFFCURVE",
"59 259 CURVE SMOOTH",
"59 97 OFFCURVE",
"168 0 OFFCURVE",
"332 0 CURVE SMOOTH"
);
},
{
closed = 1;
nodes = (
"247 118 OFFCURVE",
"189 172 OFFCURVE",
"189 259 CURVE SMOOTH",
"189 346 OFFCURVE",
"242 402 OFFCURVE",
"320 402 CURVE SMOOTH",
"395 402 OFFCURVE",
"457 351 OFFCURVE",
"457 265 CURVE SMOOTH",
"457 178 OFFCURVE",
"406 118 OFFCURVE",
"323 118 CURVE SMOOTH"
);
}
);
width = 932;
}
);
leftMetricsKey = "=uni14C2";
note = uni14C7;
rightMetricsKey = "=uni14C2";
unicode = 14C7;
},
{
glyphname = uni14D0;
lastChange = "2018-03-08 14:01:59 +0000";
layers = (
{
layerId = "2E7E08E9-F197-422C-8C87-7E7891F2A291";
paths = (
{
closed = 1;
nodes = (
"540 406 LINE",
"540 428 LINE",
"281 428 LINE",
"336 459 OFFCURVE",
"362 509 OFFCURVE",
"362 562 CURVE SMOOTH",
"362 650 OFFCURVE",
"291 719 OFFCURVE",
"205 719 CURVE SMOOTH",
"119 719 OFFCURVE",
"49 649 OFFCURVE",
"49 562 CURVE SMOOTH",
"49 475 OFFCURVE",
"119 406 OFFCURVE",
"205 406 CURVE SMOOTH"
);
},
{
closed = 1;
nodes = (
"132 429 OFFCURVE",
"73 488 OFFCURVE",
"73 562 CURVE SMOOTH",
"73 636 OFFCURVE",
"132 696 OFFCURVE",
"206 696 CURVE SMOOTH",
"279 696 OFFCURVE",
"338 636 OFFCURVE",
"338 562 CURVE SMOOTH",
"338 488 OFFCURVE",
"278 429 OFFCURVE",
"205 429 CURVE SMOOTH"
);
}
);
width = 569;
},
{
layerId = "E326D6A0-72EF-479E-B72E-1071BD8CDE1B";
paths = (
{
closed = 1;
nodes = (
"555 391 LINE",
"555 458 LINE",
"327 458 LINE",
"348 487 OFFCURVE",
"358 520 OFFCURVE",
"358 558 CURVE SMOOTH",
"358 647 OFFCURVE",
"289 719 OFFCURVE",
"199 719 CURVE SMOOTH",
"109 719 OFFCURVE",
"39 647 OFFCURVE",
"39 558 CURVE SMOOTH",
"39 468 OFFCURVE",
"108 391 OFFCURVE",
"194 391 CURVE SMOOTH"
);
},
{
closed = 1;
nodes = (
"152 466 OFFCURVE",
"114 507 OFFCURVE",
"114 560 CURVE SMOOTH",
"114 611 OFFCURVE",
"151 651 OFFCURVE",
"199 651 CURVE SMOOTH",
"247 651 OFFCURVE",
"283 610 OFFCURVE",
"283 560 CURVE SMOOTH",
"283 508 OFFCURVE",
"246 466 OFFCURVE",
"199 466 CURVE SMOOTH"
);
}
);
width = 579;
},
{
layerId = "2D9103A3-690A-4A3E-A4A3-539A9A9AB4B9";
paths = (
{
closed = 1;
nodes = (
"585 367 LINE",
"585 475 LINE",
"378 475 LINE",
"389 499 OFFCURVE",
"394 519 OFFCURVE",
"394 546 CURVE SMOOTH",
"394 631 OFFCURVE",
"339 720 OFFCURVE",
"211 720 CURVE SMOOTH",
"83 720 OFFCURVE",
"29 631 OFFCURVE",
"29 545 CURVE SMOOTH",
"29 456 OFFCURVE",
"83 367 OFFCURVE",
"211 367 CURVE SMOOTH"
);
},
{
closed = 1;
nodes = (
"167 473 OFFCURVE",
"147 505 OFFCURVE",
"147 543 CURVE SMOOTH",
"147 580 OFFCURVE",
"167 614 OFFCURVE",
"210 614 CURVE SMOOTH",
"253 614 OFFCURVE",
"275 581 OFFCURVE",
"275 543 CURVE SMOOTH",
"275 506 OFFCURVE",
"254 473 OFFCURVE",
"210 473 CURVE SMOOTH"
);
}
);
width = 604;
},
{
layerId = "FA7FA507-24BC-4772-BCBB-4BDCA0277846";
paths = (
{
closed = 1;
nodes = (
"573 381 LINE",
"573 471 LINE",
"360 471 LINE",
"374 496 OFFCURVE",
"381 522 OFFCURVE",
"381 553 CURVE SMOOTH",
"381 639 OFFCURVE",
"321 720 OFFCURVE",
"210 720 CURVE SMOOTH",
"99 720 OFFCURVE",
"39 639 OFFCURVE",
"39 552 CURVE SMOOTH",
"39 464 OFFCURVE",
"99 381 OFFCURVE",
"208 381 CURVE SMOOTH"
);
},
{
closed = 1;
nodes = (
"166 473 OFFCURVE",
"138 508 OFFCURVE",
"138 552 CURVE SMOOTH",
"138 594 OFFCURVE",
"165 630 OFFCURVE",
"210 630 CURVE SMOOTH",
"254 630 OFFCURVE",
"282 595 OFFCURVE",
"282 552 CURVE SMOOTH",
"282 509 OFFCURVE",
"254 473 OFFCURVE",
"210 473 CURVE SMOOTH"
);
}
);
width = 597;
}
);
note = uni14D0;
unicode = 14D0;
},
{
glyphname = uni14D1;
lastChange = "2018-03-08 14:01:59 +0000";
layers = (
{
layerId = "2E7E08E9-F197-422C-8C87-7E7891F2A291";
paths = (
{
closed = 1;
nodes = (
"279 334 OFFCURVE",
"332 392 OFFCURVE",
"332 471 CURVE SMOOTH",
"332 714 LINE",
"308 714 LINE",
"308 471 LINE SMOOTH",
"308 399 OFFCURVE",
"269 356 OFFCURVE",
"198 356 CURVE SMOOTH",
"127 356 OFFCURVE",
"83 399 OFFCURVE",
"83 471 CURVE SMOOTH",
"83 714 LINE",
"59 714 LINE",
"59 471 LINE SMOOTH",
"59 392 OFFCURVE",
"117 334 OFFCURVE",
"198 334 CURVE SMOOTH"
);
}
);
width = 391;
},
{
layerId = "E326D6A0-72EF-479E-B72E-1071BD8CDE1B";
paths = (
{
closed = 1;
nodes = (
"329 334 OFFCURVE",
"391 390 OFFCURVE",
"391 548 CURVE SMOOTH",
"391 714 LINE",
"316 714 LINE",
"316 563 LINE SMOOTH",
"316 466 OFFCURVE",
"307 402 OFFCURVE",
"220 402 CURVE SMOOTH",
"131 402 OFFCURVE",
"124 457 OFFCURVE",
"124 563 CURVE SMOOTH",
"124 714 LINE",
"49 714 LINE",
"49 548 LINE SMOOTH",
"49 392 OFFCURVE",
"97 334 OFFCURVE",
"220 334 CURVE SMOOTH"
);
}
);
width = 440;
},
{
layerId = "2D9103A3-690A-4A3E-A4A3-539A9A9AB4B9";
paths = (
{
closed = 1;
nodes = (
"363 312 OFFCURVE",
"436 378 OFFCURVE",
"436 567 CURVE SMOOTH",
"436 714 LINE",
"318 714 LINE",
"318 562 LINE SMOOTH",
"318 476 OFFCURVE",
"301 420 OFFCURVE",
"234 420 CURVE SMOOTH",
"167 420 OFFCURVE",
"147 468 OFFCURVE",
"147 562 CURVE SMOOTH",
"147 714 LINE",
"29 714 LINE",
"29 567 LINE SMOOTH",
"29 380 OFFCURVE",
"87 312 OFFCURVE",
"233 312 CURVE SMOOTH"
);
}
);
width = 465;
},
{
layerId = "FA7FA507-24BC-4772-BCBB-4BDCA0277846";
paths = (
{
closed = 1;
nodes = (
"357 326 OFFCURVE",
"425 387 OFFCURVE",
"425 561 CURVE SMOOTH",
"425 714 LINE",
"326 714 LINE",
"326 564 LINE SMOOTH",
"326 475 OFFCURVE",
"313 416 OFFCURVE",
"238 416 CURVE SMOOTH",
"163 416 OFFCURVE",
"148 466 OFFCURVE",
"148 564 CURVE SMOOTH",
"148 714 LINE",
"49 714 LINE",
"49 561 LINE SMOOTH",
"49 389 OFFCURVE",
"103 326 OFFCURVE",
"237 326 CURVE SMOOTH"
);
}
);
width = 474;
}
);
note = uni14D1;
unicode = 14D1;
},
{
glyphname = uni14D2;
lastChange = "2018-03-08 14:01:59 +0000";
layers = (
{
layerId = "2E7E08E9-F197-422C-8C87-7E7891F2A291";
paths = (
{
closed = 1;
nodes = (
"364 406 LINE SMOOTH",
"450 406 OFFCURVE",
"520 475 OFFCURVE",
"520 562 CURVE SMOOTH",
"520 649 OFFCURVE",
"450 719 OFFCURVE",
"364 719 CURVE SMOOTH",
"278 719 OFFCURVE",
"207 650 OFFCURVE",
"207 562 CURVE SMOOTH",
"207 509 OFFCURVE",
"233 459 OFFCURVE",
"288 428 CURVE",
"29 428 LINE",
"29 406 LINE"
);
},
{
closed = 1;
nodes = (
"291 429 OFFCURVE",
"231 488 OFFCURVE",
"231 562 CURVE SMOOTH",
"231 636 OFFCURVE",
"290 696 OFFCURVE",
"363 696 CURVE SMOOTH",
"437 696 OFFCURVE",
"496 636 OFFCURVE",
"496 562 CURVE SMOOTH",
"496 488 OFFCURVE",
"437 429 OFFCURVE",
"364 429 CURVE SMOOTH"
);
}
);
width = 569;
},
{
layerId = "E326D6A0-72EF-479E-B72E-1071BD8CDE1B";
paths = (
{
closed = 1;
nodes = (
"385 391 LINE SMOOTH",
"471 391 OFFCURVE",
"540 469 OFFCURVE",
"540 558 CURVE SMOOTH",
"540 646 OFFCURVE",
"470 719 OFFCURVE",
"380 719 CURVE SMOOTH",
"291 719 OFFCURVE",
"221 647 OFFCURVE",
"221 558 CURVE SMOOTH",
"221 520 OFFCURVE",
"231 487 OFFCURVE",
"252 458 CURVE",
"24 458 LINE",
"24 391 LINE"
);
},
{
closed = 1;
nodes = (
"332 466 OFFCURVE",
"296 509 OFFCURVE",
"296 560 CURVE SMOOTH",
"296 611 OFFCURVE",
"332 651 OFFCURVE",
"380 651 CURVE SMOOTH",
"428 651 OFFCURVE",
"465 611 OFFCURVE",
"465 560 CURVE SMOOTH",
"465 507 OFFCURVE",
"427 466 OFFCURVE",
"380 466 CURVE SMOOTH"
);
}
);
width = 579;
},
{
layerId = "2D9103A3-690A-4A3E-A4A3-539A9A9AB4B9";
paths = (
{
closed = 1;
nodes = (
"393 367 LINE SMOOTH",
"521 367 OFFCURVE",
"575 456 OFFCURVE",
"575 545 CURVE SMOOTH",
"575 631 OFFCURVE",
"521 720 OFFCURVE",
"393 720 CURVE SMOOTH",
"265 720 OFFCURVE",
"210 631 OFFCURVE",
"210 546 CURVE SMOOTH",
"210 519 OFFCURVE",
"215 499 OFFCURVE",
"226 475 CURVE",
"19 475 LINE",
"19 367 LINE"
);
},
{
closed = 1;
nodes = (
"350 473 OFFCURVE",
"329 506 OFFCURVE",
"329 543 CURVE SMOOTH",
"329 581 OFFCURVE",
"351 614 OFFCURVE",
"394 614 CURVE SMOOTH",
"437 614 OFFCURVE",
"457 580 OFFCURVE",
"457 543 CURVE SMOOTH",
"457 505 OFFCURVE",
"437 473 OFFCURVE",
"394 473 CURVE SMOOTH"
);
}
);
width = 604;
},
{
layerId = "FA7FA507-24BC-4772-BCBB-4BDCA0277846";
paths = (
{
closed = 1;
nodes = (
"389 381 LINE SMOOTH",
"498 381 OFFCURVE",
"558 464 OFFCURVE",
"558 552 CURVE SMOOTH",
"558 638 OFFCURVE",
"498 720 OFFCURVE",
"387 720 CURVE SMOOTH",
"276 720 OFFCURVE",
"216 639 OFFCURVE",
"216 553 CURVE SMOOTH",
"216 522 OFFCURVE",
"223 496 OFFCURVE",
"237 471 CURVE",
"24 471 LINE",
"24 381 LINE"
);
},
{
closed = 1;
nodes = (
"342 473 OFFCURVE",
"315 510 OFFCURVE",
"315 552 CURVE SMOOTH",
"315 595 OFFCURVE",
"343 630 OFFCURVE",
"387 630 CURVE SMOOTH",
"432 630 OFFCURVE",
"459 594 OFFCURVE",
"459 552 CURVE SMOOTH",
"459 508 OFFCURVE",
"431 473 OFFCURVE",
"387 473 CURVE SMOOTH"
);
}
);
width = 597;
}
);
note = uni14D2;
unicode = 14D2;
},
{
glyphname = uni14D3;
lastChange = "2018-03-08 14:01:59 +0000";
layers = (
{
layerId = "2E7E08E9-F197-422C-8C87-7E7891F2A291";
paths = (
{
closed = 1;
nodes = (
"543 0 LINE SMOOTH",
"679 0 OFFCURVE",
"790 113 OFFCURVE",
"790 249 CURVE SMOOTH",
"790 385 OFFCURVE",
"680 500 OFFCURVE",
"543 500 CURVE SMOOTH",
"59 500 LINE",
"59 475 LINE",
"543 475 LINE SMOOTH",
"666 475 OFFCURVE",
"763 371 OFFCURVE",
"763 249 CURVE SMOOTH",
"763 127 OFFCURVE",
"665 25 OFFCURVE",
"543 25 CURVE SMOOTH",
"485 25 LINE",
"485 0 LINE"
);
}
);
width = 859;
},
{
layerId = "E326D6A0-72EF-479E-B72E-1071BD8CDE1B";
paths = (
{
closed = 1;
nodes = (
"574 0 LINE SMOOTH",
"726 0 OFFCURVE",
"826 99 OFFCURVE",
"826 249 CURVE SMOOTH",
"826 417 OFFCURVE",
"734 500 OFFCURVE",
"551 500 CURVE SMOOTH",
"49 500 LINE",
"49 430 LINE",
"541 430 LINE SMOOTH",
"681 430 OFFCURVE",
"748 375 OFFCURVE",
"748 250 CURVE SMOOTH",
"748 144 OFFCURVE",
"680 71 OFFCURVE",
"578 71 CURVE SMOOTH",
"475 71 LINE",
"475 0 LINE"
);
}
);
width = 885;
},
{
layerId = "2D9103A3-690A-4A3E-A4A3-539A9A9AB4B9";
paths = (
{
closed = 1;
nodes = (
"613 0 LINE SMOOTH",
"771 0 OFFCURVE",
"874 98 OFFCURVE",
"874 266 CURVE SMOOTH",
"874 428 OFFCURVE",
"779 518 OFFCURVE",
"590 518 CURVE SMOOTH",
"39 518 LINE",
"39 360 LINE",
"595 360 LINE SMOOTH",
"673 360 OFFCURVE",
"713 329 OFFCURVE",
"713 262 CURVE SMOOTH",
"713 196 OFFCURVE",
"675 156 OFFCURVE",
"617 156 CURVE SMOOTH",
"465 156 LINE",
"465 0 LINE"
);
}
);
width = 923;
},
{
layerId = "FA7FA507-24BC-4772-BCBB-4BDCA0277846";
paths = (
{
closed = 1;
nodes = (
"603 0 LINE SMOOTH",
"759 0 OFFCURVE",
"860 98 OFFCURVE",
"860 259 CURVE SMOOTH",
"860 423 OFFCURVE",
"767 511 OFFCURVE",
"580 511 CURVE SMOOTH",
"49 511 LINE",
"49 389 LINE",
"579 389 LINE SMOOTH",
"682 389 OFFCURVE",
"733 348 OFFCURVE",
"733 257 CURVE SMOOTH",
"733 175 OFFCURVE",
"683 121 OFFCURVE",
"607 121 CURVE SMOOTH",
"475 121 LINE",
"475 0 LINE"
);
}
);
width = 919;
}
);
note = uni14D3;
unicode = 14D3;
},
{
glyphname = uni14D5;
lastChange = "2018-03-08 14:01:59 +0000";
layers = (
{
layerId = "2E7E08E9-F197-422C-8C87-7E7891F2A291";
paths = (
{
closed = 1;
nodes = (
"374 0 LINE",
"374 25 LINE",
"316 25 LINE SMOOTH",
"194 25 OFFCURVE",
"96 127 OFFCURVE",
"96 249 CURVE SMOOTH",
"96 371 OFFCURVE",
"193 475 OFFCURVE",
"316 475 CURVE SMOOTH",
"800 475 LINE",
"800 500 LINE",
"316 500 LINE SMOOTH",
"179 500 OFFCURVE",
"69 385 OFFCURVE",
"69 249 CURVE SMOOTH",
"69 113 OFFCURVE",
"180 0 OFFCURVE",
"316 0 CURVE SMOOTH"
);
}
);
width = 859;
},
{
layerId = "E326D6A0-72EF-479E-B72E-1071BD8CDE1B";
paths = (
{
closed = 1;
nodes = (
"410 0 LINE",
"410 71 LINE",
"307 71 LINE SMOOTH",
"204 71 OFFCURVE",
"137 143 OFFCURVE",
"137 250 CURVE SMOOTH",
"137 375 OFFCURVE",
"204 430 OFFCURVE",
"344 430 CURVE SMOOTH",
"836 430 LINE",
"836 500 LINE",
"333 500 LINE SMOOTH",
"150 500 OFFCURVE",
"59 417 OFFCURVE",
"59 249 CURVE SMOOTH",
"59 99 OFFCURVE",
"160 0 OFFCURVE",
"311 0 CURVE SMOOTH"
);
}
);
width = 885;
},
{
layerId = "2D9103A3-690A-4A3E-A4A3-539A9A9AB4B9";
paths = (
{
closed = 1;
nodes = (
"459 0 LINE",
"459 156 LINE",
"317 156 LINE SMOOTH",
"253 156 OFFCURVE",
"210 189 OFFCURVE",
"210 259 CURVE SMOOTH",
"210 332 OFFCURVE",
"256 361 OFFCURVE",
"320 361 CURVE SMOOTH",
"884 361 LINE",
"884 517 LINE",
"322 517 LINE SMOOTH",
"130 517 OFFCURVE",
"49 388 OFFCURVE",
"49 258 CURVE SMOOTH",
"49 128 OFFCURVE",
"130 0 OFFCURVE",
"322 0 CURVE SMOOTH"
);
}
);
width = 923;
},
{
layerId = "FA7FA507-24BC-4772-BCBB-4BDCA0277846";
paths = (
{
closed = 1;
nodes = (
"445 0 LINE",
"445 121 LINE",
"319 121 LINE SMOOTH",
"239 121 OFFCURVE",
"186 170 OFFCURVE",
"186 255 CURVE SMOOTH",
"186 350 OFFCURVE",
"241 389 OFFCURVE",
"336 389 CURVE SMOOTH",
"870 389 LINE",
"870 510 LINE",
"333 510 LINE SMOOTH",
"144 510 OFFCURVE",
"59 400 OFFCURVE",
"59 254 CURVE SMOOTH",
"59 116 OFFCURVE",
"148 0 OFFCURVE",
"324 0 CURVE SMOOTH"
);
}
);
width = 919;
}
);
note = uni14D5;
unicode = 14D5;
},
{
glyphname = uni14D7;
lastChange = "2018-03-08 14:01:59 +0000";
layers = (
{
layerId = "2E7E08E9-F197-422C-8C87-7E7891F2A291";
paths = (
{
closed = 1;
nodes = (
"543 0 LINE SMOOTH",
"680 0 OFFCURVE",
"790 115 OFFCURVE",
"790 251 CURVE SMOOTH",
"790 387 OFFCURVE",
"679 500 OFFCURVE",
"543 500 CURVE SMOOTH",
"485 500 LINE",
"485 475 LINE",
"543 475 LINE SMOOTH",
"665 475 OFFCURVE",
"763 373 OFFCURVE",
"763 251 CURVE SMOOTH",
"763 129 OFFCURVE",
"666 25 OFFCURVE",
"543 25 CURVE SMOOTH",
"59 25 LINE",
"59 0 LINE"
);
}
);
width = 859;
},
{
layerId = "E326D6A0-72EF-479E-B72E-1071BD8CDE1B";
paths = (
{
closed = 1;
nodes = (
"551 0 LINE SMOOTH",
"734 0 OFFCURVE",
"826 84 OFFCURVE",
"826 252 CURVE SMOOTH",
"826 402 OFFCURVE",
"725 500 OFFCURVE",
"574 500 CURVE SMOOTH",
"475 500 LINE",
"475 430 LINE",
"578 430 LINE SMOOTH",
"681 430 OFFCURVE",
"748 357 OFFCURVE",
"748 250 CURVE SMOOTH",
"748 126 OFFCURVE",
"681 71 OFFCURVE",
"541 71 CURVE SMOOTH",
"49 71 LINE",
"49 0 LINE"
);
}
);
width = 885;
},
{
layerId = "2D9103A3-690A-4A3E-A4A3-539A9A9AB4B9";
paths = (
{
closed = 1;
nodes = (
"601 0 LINE SMOOTH",
"793 0 OFFCURVE",
"874 129 OFFCURVE",
"874 259 CURVE SMOOTH",
"874 389 OFFCURVE",
"793 517 OFFCURVE",
"601 517 CURVE SMOOTH",
"464 517 LINE",
"464 361 LINE",
"606 361 LINE SMOOTH",
"670 361 OFFCURVE",
"713 328 OFFCURVE",
"713 258 CURVE SMOOTH",
"713 185 OFFCURVE",
"667 156 OFFCURVE",
"603 156 CURVE SMOOTH",
"39 156 LINE",
"39 0 LINE"
);
}
);
width = 923;
},
{
layerId = "FA7FA507-24BC-4772-BCBB-4BDCA0277846";
paths = (
{
closed = 1;
nodes = (
"587 0 LINE SMOOTH",
"775 0 OFFCURVE",
"860 111 OFFCURVE",
"860 256 CURVE SMOOTH",
"860 394 OFFCURVE",
"771 510 OFFCURVE",
"596 510 CURVE SMOOTH",
"475 510 LINE",
"475 389 LINE",
"601 389 LINE SMOOTH",
"681 389 OFFCURVE",
"733 340 OFFCURVE",
"733 255 CURVE SMOOTH",
"733 161 OFFCURVE",
"679 121 OFFCURVE",
"584 121 CURVE SMOOTH",
"49 121 LINE",
"49 0 LINE"
);
}
);
width = 919;
}
);
leftMetricsKey = "=uni14D3";
note = uni14D7;
rightMetricsKey = "=uni14D3";
unicode = 14D7;
},
{
glyphname = uni14DA;
lastChange = "2018-03-08 14:01:59 +0000";
layers = (
{
layerId = "2E7E08E9-F197-422C-8C87-7E7891F2A291";
paths = (
{
closed = 1;
nodes = (
"800 0 LINE",
"800 25 LINE",
"316 25 LINE SMOOTH",
"193 25 OFFCURVE",
"96 129 OFFCURVE",
"96 251 CURVE SMOOTH",
"96 373 OFFCURVE",
"194 475 OFFCURVE",
"316 475 CURVE SMOOTH",
"374 475 LINE",
"374 500 LINE",
"316 500 LINE SMOOTH",
"180 500 OFFCURVE",
"69 387 OFFCURVE",
"69 251 CURVE SMOOTH",
"69 115 OFFCURVE",
"179 0 OFFCURVE",
"316 0 CURVE SMOOTH"
);
}
);
width = 859;
},
{
layerId = "E326D6A0-72EF-479E-B72E-1071BD8CDE1B";
paths = (
{
closed = 1;
nodes = (
"836 0 LINE",
"836 71 LINE",
"344 71 LINE SMOOTH",
"204 71 OFFCURVE",
"137 126 OFFCURVE",
"137 250 CURVE SMOOTH",
"137 356 OFFCURVE",
"205 430 OFFCURVE",
"307 430 CURVE SMOOTH",
"410 430 LINE",
"410 500 LINE",
"311 500 LINE SMOOTH",
"159 500 OFFCURVE",
"59 402 OFFCURVE",
"59 252 CURVE SMOOTH",
"59 84 OFFCURVE",
"150 0 OFFCURVE",
"333 0 CURVE SMOOTH"
);
}
);
width = 885;
},
{
layerId = "2D9103A3-690A-4A3E-A4A3-539A9A9AB4B9";
paths = (
{
closed = 1;
nodes = (
"884 0 LINE",
"884 156 LINE",
"320 156 LINE SMOOTH",
"256 156 OFFCURVE",
"210 186 OFFCURVE",
"210 258 CURVE SMOOTH",
"210 328 OFFCURVE",
"253 361 OFFCURVE",
"317 361 CURVE SMOOTH",
"459 361 LINE",
"459 517 LINE",
"322 517 LINE SMOOTH",
"130 517 OFFCURVE",
"49 389 OFFCURVE",
"49 259 CURVE SMOOTH",
"49 129 OFFCURVE",
"130 0 OFFCURVE",
"322 0 CURVE SMOOTH"
);
}
);
width = 923;
},
{
layerId = "FA7FA507-24BC-4772-BCBB-4BDCA0277846";
paths = (
{
closed = 1;
nodes = (
"870 0 LINE",
"870 121 LINE",
"336 121 LINE SMOOTH",
"241 121 OFFCURVE",
"186 161 OFFCURVE",
"186 255 CURVE SMOOTH",
"186 339 OFFCURVE",
"239 389 OFFCURVE",
"319 389 CURVE SMOOTH",
"445 389 LINE",
"445 510 LINE",
"324 510 LINE SMOOTH",
"148 510 OFFCURVE",
"59 394 OFFCURVE",
"59 256 CURVE SMOOTH",
"59 111 OFFCURVE",
"144 0 OFFCURVE",
"333 0 CURVE SMOOTH"
);
}
);
width = 919;
}
);
note = uni14DA;
unicode = 14DA;
},
{
glyphname = uni14EA;
lastChange = "2018-03-08 14:01:59 +0000";
layers = (
{
layerId = "2E7E08E9-F197-422C-8C87-7E7891F2A291";
paths = (
{
closed = 1;
nodes = (
"483 401 LINE",
"483 423 LINE",
"205 423 LINE SMOOTH",
"132 423 OFFCURVE",
"73 483 OFFCURVE",
"73 557 CURVE SMOOTH",
"73 631 OFFCURVE",
"132 691 OFFCURVE",
"206 691 CURVE SMOOTH",
"230 691 LINE",
"230 714 LINE",
"205 714 LINE SMOOTH",
"119 714 OFFCURVE",
"49 644 OFFCURVE",
"49 557 CURVE SMOOTH",
"49 470 OFFCURVE",
"119 401 OFFCURVE",
"205 401 CURVE SMOOTH"
);
}
);
width = 532;
},
{
layerId = "E326D6A0-72EF-479E-B72E-1071BD8CDE1B";
paths = (
{
closed = 1;
nodes = (
"483 391 LINE",
"483 458 LINE",
"211 458 LINE SMOOTH",
"150 458 OFFCURVE",
"114 496 OFFCURVE",
"114 557 CURVE SMOOTH",
"114 609 OFFCURVE",
"152 646 OFFCURVE",
"208 646 CURVE SMOOTH",
"230 646 LINE",
"230 714 LINE",
"204 714 LINE SMOOTH",
"106 714 OFFCURVE",
"39 651 OFFCURVE",
"39 557 CURVE SMOOTH",
"39 452 OFFCURVE",
"104 391 OFFCURVE",
"210 391 CURVE SMOOTH"
);
}
);
width = 522;
},
{
layerId = "2D9103A3-690A-4A3E-A4A3-539A9A9AB4B9";
paths = (
{
closed = 1;
nodes = (
"516 361 LINE",
"516 469 LINE",
"211 469 LINE SMOOTH",
"168 469 OFFCURVE",
"148 499 OFFCURVE",
"148 537 CURVE SMOOTH",
"148 574 OFFCURVE",
"168 608 OFFCURVE",
"211 608 CURVE SMOOTH",
"255 608 LINE",
"255 714 LINE",
"212 714 LINE SMOOTH",
"83 714 OFFCURVE",
"29 625 OFFCURVE",
"29 539 CURVE SMOOTH",
"29 450 OFFCURVE",
"83 361 OFFCURVE",
"212 361 CURVE SMOOTH"
);
}
);
width = 545;
},
{
layerId = "FA7FA507-24BC-4772-BCBB-4BDCA0277846";
paths = (
{
closed = 1;
nodes = (
"503 377 LINE",
"503 467 LINE",
"215 467 LINE SMOOTH",
"165 467 OFFCURVE",
"138 500 OFFCURVE",
"138 547 CURVE SMOOTH",
"138 590 OFFCURVE",
"166 625 OFFCURVE",
"214 625 CURVE SMOOTH",
"248 625 LINE",
"248 714 LINE",
"212 714 LINE SMOOTH",
"98 714 OFFCURVE",
"39 637 OFFCURVE",
"39 548 CURVE SMOOTH",
"39 454 OFFCURVE",
"97 377 OFFCURVE",
"215 377 CURVE SMOOTH"
);
}
);
width = 542;
}
);
note = uni14EA;
unicode = 14EA;
},
{
glyphname = uni14EB;
lastChange = "2018-03-08 14:01:59 +0000";
layers = (
{
layerId = "2E7E08E9-F197-422C-8C87-7E7891F2A291";
paths = (
{
closed = 1;
nodes = (
"319 322 LINE",
"319 343 LINE",
"88 434 LINE",
"319 516 LINE",
"319 531 LINE",
"88 614 LINE",
"319 704 LINE",
"319 725 LINE",
"314 725 LINE",
"49 621 LINE",
"49 605 LINE",
"275 524 LINE",
"49 442 LINE",
"49 426 LINE",
"314 322 LINE"
);
}
);
width = 368;
},
{
layerId = "E326D6A0-72EF-479E-B72E-1071BD8CDE1B";
paths = (
{
closed = 1;
nodes = (
"319 315 LINE",
"319 373 LINE",
"128 432 LINE",
"319 499 LINE",
"319 549 LINE",
"128 611 LINE",
"319 669 LINE",
"319 726 LINE",
"304 726 LINE",
"39 637 LINE",
"39 585 LINE",
"215 523 LINE",
"39 459 LINE",
"39 408 LINE",
"305 315 LINE"
);
}
);
width = 358;
},
{
layerId = "2D9103A3-690A-4A3E-A4A3-539A9A9AB4B9";
paths = (
{
closed = 1;
nodes = (
"356 289 LINE",
"356 382 LINE",
"199 430 LINE",
"357 482 LINE",
"357 531 LINE",
"199 584 LINE",
"356 632 LINE",
"356 725 LINE",
"330 725 LINE",
"29 623 LINE",
"29 565 LINE",
"182 508 LINE",
"29 450 LINE",
"29 391 LINE",
"330 289 LINE"
);
}
);
width = 386;
},
{
layerId = "FA7FA507-24BC-4772-BCBB-4BDCA0277846";
paths = (
{
closed = 1;
nodes = (
"343 305 LINE",
"343 382 LINE",
"174 434 LINE",
"344 492 LINE",
"344 541 LINE",
"174 597 LINE",
"343 648 LINE",
"343 725 LINE",
"322 725 LINE",
"39 630 LINE",
"39 575 LINE",
"200 517 LINE",
"39 457 LINE",
"39 402 LINE",
"322 305 LINE"
);
}
);
width = 383;
}
);
note = uni14EB;
unicode = 14EB;
},
{
glyphname = uni14EC;
lastChange = "2018-03-08 14:01:59 +0000";
layers = (
{
layerId = "2E7E08E9-F197-422C-8C87-7E7891F2A291";
paths = (
{
closed = 1;
nodes = (
"550 -12 LINE",
"550 13 LINE",
"108 179 LINE",
"550 344 LINE",
"550 370 LINE",
"108 535 LINE",
"550 701 LINE",
"550 726 LINE",
"543 726 LINE",
"69 547 LINE",
"69 523 LINE",
"516 357 LINE",
"69 191 LINE",
"69 167 LINE",
"543 -12 LINE"
);
}
);
width = 619;
},
{
layerId = "E326D6A0-72EF-479E-B72E-1071BD8CDE1B";
paths = (
{
closed = 1;
nodes = (
"560 -12 LINE",
"560 64 LINE",
"161 193 LINE",
"560 335 LINE",
"560 379 LINE",
"161 521 LINE",
"560 649 LINE",
"560 726 LINE",
"550 726 LINE",
"59 561 LINE",
"59 486 LINE",
"419 357 LINE",
"59 228 LINE",
"59 153 LINE",
"550 -12 LINE"
);
}
);
width = 619;
},
{
layerId = "2D9103A3-690A-4A3E-A4A3-539A9A9AB4B9";
paths = (
{
closed = 1;
nodes = (
"603 -12 LINE",
"603 127 LINE",
"320 225 LINE",
"604 323 LINE",
"604 390 LINE",
"320 488 LINE",
"603 586 LINE",
"603 725 LINE",
"558 725 LINE",
"49 553 LINE",
"49 455 LINE",
"325 357 LINE",
"49 258 LINE",
"49 160 LINE",
"558 -12 LINE"
);
}
);
width = 653;
},
{
layerId = "FA7FA507-24BC-4772-BCBB-4BDCA0277846";
paths = (
{
closed = 1;
nodes = (
"591 -12 LINE",
"591 101 LINE",
"261 212 LINE",
"592 328 LINE",
"592 385 LINE",
"261 502 LINE",
"591 612 LINE",
"591 725 LINE",
"561 725 LINE",
"59 556 LINE",
"59 468 LINE",
"370 357 LINE",
"59 246 LINE",
"59 157 LINE",
"561 -12 LINE"
);
}
);
width = 651;
}
);
note = uni14EC;
unicode = 14EC;
},
{
glyphname = uni14ED;
lastChange = "2018-03-08 14:01:59 +0000";
layers = (
{
layerId = "2E7E08E9-F197-422C-8C87-7E7891F2A291";
paths = (
{
closed = 1;
nodes = (
"463 0 LINE",
"463 283 LINE",
"435 283 LINE SMOOTH",
"220 283 OFFCURVE",
"95 386 OFFCURVE",
"95 612 CURVE SMOOTH",
"95 714 LINE",
"69 714 LINE",
"69 604 LINE SMOOTH",
"69 360 OFFCURVE",
"212 258 OFFCURVE",
"427 258 CURVE SMOOTH",
"437 258 LINE",
"437 0 LINE"
);
}
);
width = 542;
},
{
layerId = "E326D6A0-72EF-479E-B72E-1071BD8CDE1B";
paths = (
{
closed = 1;
nodes = (
"509 0 LINE",
"509 327 LINE",
"431 327 LINE SMOOTH",
"228 327 OFFCURVE",
"137 421 OFFCURVE",
"137 647 CURVE SMOOTH",
"137 714 LINE",
"59 714 LINE",
"59 629 LINE SMOOTH",
"59 391 OFFCURVE",
"184 256 OFFCURVE",
"411 256 CURVE SMOOTH",
"431 256 LINE",
"431 0 LINE"
);
}
);
width = 578;
},
{
layerId = "2D9103A3-690A-4A3E-A4A3-539A9A9AB4B9";
paths = (
{
closed = 1;
nodes = (
"583 0 LINE",
"583 402 LINE",
"505 402 LINE SMOOTH",
"322 402 OFFCURVE",
"241 446 OFFCURVE",
"241 647 CURVE SMOOTH",
"241 714 LINE",
"49 714 LINE",
"49 629 LINE SMOOTH",
"49 391 OFFCURVE",
"174 256 OFFCURVE",
"381 256 CURVE SMOOTH",
"391 256 LINE",
"391 0 LINE"
);
}
);
width = 642;
},
{
layerId = "FA7FA507-24BC-4772-BCBB-4BDCA0277846";
paths = (
{
closed = 1;
nodes = (
"559 0 LINE",
"559 371 LINE",
"481 371 LINE SMOOTH",
"290 371 OFFCURVE",
"204 436 OFFCURVE",
"204 647 CURVE SMOOTH",
"204 714 LINE",
"59 714 LINE",
"59 629 LINE SMOOTH",
"59 391 OFFCURVE",
"184 256 OFFCURVE",
"399 256 CURVE SMOOTH",
"414 256 LINE",
"414 0 LINE"
);
}
);
width = 628;
}
);
note = uni14ED;
unicode = 14ED;
},
{
glyphname = uni14EF;
lastChange = "2018-03-08 14:01:59 +0000";
layers = (
{
layerId = "2E7E08E9-F197-422C-8C87-7E7891F2A291";
paths = (
{
closed = 1;
nodes = (
"105 0 LINE",
"105 258 LINE",
"115 258 LINE SMOOTH",
"330 258 OFFCURVE",
"473 360 OFFCURVE",
"473 604 CURVE SMOOTH",
"473 714 LINE",
"447 714 LINE",
"447 612 LINE SMOOTH",
"447 386 OFFCURVE",
"322 283 OFFCURVE",
"107 283 CURVE SMOOTH",
"79 283 LINE",
"79 0 LINE"
);
}
);
width = 542;
},
{
layerId = "E326D6A0-72EF-479E-B72E-1071BD8CDE1B";
paths = (
{
closed = 1;
nodes = (
"146 0 LINE",
"146 256 LINE",
"167 256 LINE SMOOTH",
"394 256 OFFCURVE",
"519 391 OFFCURVE",
"519 629 CURVE SMOOTH",
"519 714 LINE",
"440 714 LINE",
"440 647 LINE SMOOTH",
"440 420 OFFCURVE",
"348 327 OFFCURVE",
"146 327 CURVE SMOOTH",
"68 327 LINE",
"68 0 LINE"
);
}
);
width = 577;
},
{
layerId = "2D9103A3-690A-4A3E-A4A3-539A9A9AB4B9";
paths = (
{
closed = 1;
nodes = (
"251 0 LINE",
"251 256 LINE",
"261 256 LINE SMOOTH",
"468 256 OFFCURVE",
"593 391 OFFCURVE",
"593 629 CURVE SMOOTH",
"593 714 LINE",
"401 714 LINE",
"401 647 LINE SMOOTH",
"401 446 OFFCURVE",
"320 402 OFFCURVE",
"137 402 CURVE SMOOTH",
"59 402 LINE",
"59 0 LINE"
);
}
);
width = 642;
},
{
layerId = "FA7FA507-24BC-4772-BCBB-4BDCA0277846";
paths = (
{
closed = 1;
nodes = (
"213 0 LINE",
"213 256 LINE",
"228 256 LINE SMOOTH",
"443 256 OFFCURVE",
"568 391 OFFCURVE",
"568 629 CURVE SMOOTH",
"568 714 LINE",
"422 714 LINE",
"422 647 LINE SMOOTH",
"422 435 OFFCURVE",
"337 371 OFFCURVE",
"146 371 CURVE SMOOTH",
"68 371 LINE",
"68 0 LINE"
);
}
);
width = 627;
}
);
note = uni14EF;
unicode = 14EF;
},
{
glyphname = uni14F1;
lastChange = "2018-03-08 14:01:59 +0000";
layers = (
{
layerId = "2E7E08E9-F197-422C-8C87-7E7891F2A291";
paths = (
{
closed = 1;
nodes = (
"95 0 LINE",
"95 102 LINE SMOOTH",
"95 328 OFFCURVE",
"220 431 OFFCURVE",
"435 431 CURVE SMOOTH",
"463 431 LINE",
"463 714 LINE",
"437 714 LINE",
"437 456 LINE",
"427 456 LINE SMOOTH",
"212 456 OFFCURVE",
"69 354 OFFCURVE",
"69 110 CURVE SMOOTH",
"69 0 LINE"
);
}
);
width = 542;
},
{
layerId = "E326D6A0-72EF-479E-B72E-1071BD8CDE1B";
paths = (
{
closed = 1;
nodes = (
"137 0 LINE",
"137 67 LINE SMOOTH",
"137 293 OFFCURVE",
"229 387 OFFCURVE",
"431 387 CURVE SMOOTH",
"509 387 LINE",
"509 714 LINE",
"431 714 LINE",
"431 458 LINE",
"411 458 LINE SMOOTH",
"184 458 OFFCURVE",
"59 323 OFFCURVE",
"59 85 CURVE SMOOTH",
"59 0 LINE"
);
}
);
width = 578;
},
{
layerId = "2D9103A3-690A-4A3E-A4A3-539A9A9AB4B9";
paths = (
{
closed = 1;
nodes = (
"241 0 LINE",
"241 67 LINE SMOOTH",
"241 268 OFFCURVE",
"322 312 OFFCURVE",
"505 312 CURVE SMOOTH",
"583 312 LINE",
"583 714 LINE",
"391 714 LINE",
"391 458 LINE",
"381 458 LINE SMOOTH",
"174 458 OFFCURVE",
"49 323 OFFCURVE",
"49 85 CURVE SMOOTH",
"49 0 LINE"
);
}
);
width = 642;
},
{
layerId = "FA7FA507-24BC-4772-BCBB-4BDCA0277846";
paths = (
{
closed = 1;
nodes = (
"204 0 LINE",
"204 67 LINE SMOOTH",
"204 278 OFFCURVE",
"290 343 OFFCURVE",
"481 343 CURVE SMOOTH",
"559 343 LINE",
"559 714 LINE",
"414 714 LINE",
"414 458 LINE",
"399 458 LINE SMOOTH",
"184 458 OFFCURVE",
"59 323 OFFCURVE",
"59 85 CURVE SMOOTH",
"59 0 LINE"
);
}
);
width = 628;
}
);
note = uni14F1;
unicode = 14F1;
},
{
glyphname = uni14F4;
lastChange = "2018-03-08 14:01:59 +0000";
layers = (
{
layerId = "2E7E08E9-F197-422C-8C87-7E7891F2A291";
paths = (
{
closed = 1;
nodes = (
"473 0 LINE",
"473 110 LINE SMOOTH",
"473 354 OFFCURVE",
"330 456 OFFCURVE",
"115 456 CURVE SMOOTH",
"105 456 LINE",
"105 714 LINE",
"79 714 LINE",
"79 431 LINE",
"107 431 LINE SMOOTH",
"322 431 OFFCURVE",
"447 328 OFFCURVE",
"447 102 CURVE SMOOTH",
"447 0 LINE"
);
}
);
width = 542;
},
{
layerId = "E326D6A0-72EF-479E-B72E-1071BD8CDE1B";
paths = (
{
closed = 1;
nodes = (
"519 0 LINE",
"519 85 LINE SMOOTH",
"519 323 OFFCURVE",
"394 458 OFFCURVE",
"167 458 CURVE SMOOTH",
"146 458 LINE",
"146 714 LINE",
"68 714 LINE",
"68 387 LINE",
"146 387 LINE SMOOTH",
"349 387 OFFCURVE",
"440 293 OFFCURVE",
"440 67 CURVE SMOOTH",
"440 0 LINE"
);
}
);
width = 577;
},
{
layerId = "2D9103A3-690A-4A3E-A4A3-539A9A9AB4B9";
paths = (
{
closed = 1;
nodes = (
"593 0 LINE",
"593 85 LINE SMOOTH",
"593 323 OFFCURVE",
"468 458 OFFCURVE",
"261 458 CURVE SMOOTH",
"251 458 LINE",
"251 714 LINE",
"59 714 LINE",
"59 312 LINE",
"137 312 LINE SMOOTH",
"320 312 OFFCURVE",
"401 268 OFFCURVE",
"401 67 CURVE SMOOTH",
"401 0 LINE"
);
}
);
width = 642;
},
{
layerId = "FA7FA507-24BC-4772-BCBB-4BDCA0277846";
paths = (
{
closed = 1;
nodes = (
"569 0 LINE",
"569 85 LINE SMOOTH",
"569 323 OFFCURVE",
"444 458 OFFCURVE",
"229 458 CURVE SMOOTH",
"214 458 LINE",
"214 714 LINE",
"69 714 LINE",
"69 343 LINE",
"147 343 LINE SMOOTH",
"338 343 OFFCURVE",
"423 278 OFFCURVE",
"423 67 CURVE SMOOTH",
"423 0 LINE"
);
}
);
width = 628;
}
);
note = uni14F4;
unicode = 14F4;
},
{
glyphname = uni1505;
lastChange = "2018-03-08 14:01:59 +0000";
layers = (
{
layerId = "2E7E08E9-F197-422C-8C87-7E7891F2A291";
paths = (
{
closed = 1;
nodes = (
"292 342 LINE",
"292 387 LINE SMOOTH",
"292 523 OFFCURVE",
"229 586 OFFCURVE",
"79 586 CURVE SMOOTH",
"73 586 LINE",
"73 714 LINE",
"49 714 LINE",
"49 564 LINE",
"77 564 LINE SMOOTH",
"224 564 OFFCURVE",
"268 502 OFFCURVE",
"268 382 CURVE SMOOTH",
"268 342 LINE"
);
}
);
width = 341;
},
{
layerId = "E326D6A0-72EF-479E-B72E-1071BD8CDE1B";
paths = (
{
closed = 1;
nodes = (
"313 342 LINE",
"313 395 LINE SMOOTH",
"313 525 OFFCURVE",
"257 585 OFFCURVE",
"130 585 CURVE SMOOTH",
"114 585 LINE",
"114 714 LINE",
"39 714 LINE",
"39 518 LINE",
"96 518 LINE SMOOTH",
"202 518 OFFCURVE",
"237 496 OFFCURVE",
"237 383 CURVE SMOOTH",
"237 342 LINE"
);
}
);
width = 352;
},
{
layerId = "2D9103A3-690A-4A3E-A4A3-539A9A9AB4B9";
paths = (
{
closed = 1;
nodes = (
"349 317 LINE",
"349 405 LINE SMOOTH",
"349 539 OFFCURVE",
"292 599 OFFCURVE",
"162 599 CURVE SMOOTH",
"147 599 LINE",
"147 714 LINE",
"29 714 LINE",
"29 491 LINE",
"87 491 LINE SMOOTH",
"198 491 OFFCURVE",
"232 466 OFFCURVE",
"232 376 CURVE SMOOTH",
"232 317 LINE"
);
}
);
width = 378;
},
{
layerId = "FA7FA507-24BC-4772-BCBB-4BDCA0277846";
paths = (
{
closed = 1;
nodes = (
"337 332 LINE",
"337 404 LINE SMOOTH",
"337 535 OFFCURVE",
"281 594 OFFCURVE",
"154 594 CURVE SMOOTH",
"138 594 LINE",
"138 714 LINE",
"39 714 LINE",
"39 504 LINE",
"96 504 LINE SMOOTH",
"204 504 OFFCURVE",
"238 481 OFFCURVE",
"238 383 CURVE SMOOTH",
"238 332 LINE"
);
}
);
width = 376;
}
);
note = uni1505;
unicode = 1505;
},
{
glyphname = uni1506;
lastChange = "2018-03-08 14:01:59 +0000";
layers = (
{
layerId = "2E7E08E9-F197-422C-8C87-7E7891F2A291";
paths = (
{
closed = 1;
nodes = (
"242 335 OFFCURVE",
"294 373 OFFCURVE",
"294 435 CURVE SMOOTH",
"294 503 OFFCURVE",
"230 524 OFFCURVE",
"177 540 CURVE SMOOTH",
"127 555 OFFCURVE",
"78 570 OFFCURVE",
"78 622 CURVE SMOOTH",
"78 668 OFFCURVE",
"117 700 OFFCURVE",
"183 700 CURVE SMOOTH",
"223 700 OFFCURVE",
"254 688 OFFCURVE",
"276 663 CURVE",
"297 672 LINE",
"272 705 OFFCURVE",
"233 722 OFFCURVE",
"182 722 CURVE SMOOTH",
"105 722 OFFCURVE",
"54 683 OFFCURVE",
"54 622 CURVE SMOOTH",
"54 553 OFFCURVE",
"118 533 OFFCURVE",
"171 517 CURVE SMOOTH",
"221 502 OFFCURVE",
"270 486 OFFCURVE",
"270 434 CURVE SMOOTH",
"270 388 OFFCURVE",
"230 357 OFFCURVE",
"165 357 CURVE SMOOTH",
"122 357 OFFCURVE",
"91 370 OFFCURVE",
"70 397 CURVE",
"49 388 LINE",
"76 352 OFFCURVE",
"115 335 OFFCURVE",
"166 335 CURVE SMOOTH"
);
}
);
width = 346;
},
{
layerId = "E326D6A0-72EF-479E-B72E-1071BD8CDE1B";
paths = (
{
closed = 1;
nodes = (
"267 335 OFFCURVE",
"323 376 OFFCURVE",
"323 445 CURVE SMOOTH",
"323 521 OFFCURVE",
"255 541 OFFCURVE",
"190 561 CURVE SMOOTH",
"149 574 OFFCURVE",
"115 584 OFFCURVE",
"115 613 CURVE SMOOTH",
"115 638 OFFCURVE",
"141 654 OFFCURVE",
"183 654 CURVE SMOOTH",
"217 654 OFFCURVE",
"239 644 OFFCURVE",
"254 623 CURVE",
"323 655 LINE",
"296 697 OFFCURVE",
"251 721 OFFCURVE",
"183 721 CURVE SMOOTH",
"95 721 OFFCURVE",
"39 680 OFFCURVE",
"39 612 CURVE SMOOTH",
"39 533 OFFCURVE",
"114 514 OFFCURVE",
"177 494 CURVE SMOOTH",
"218 481 OFFCURVE",
"247 472 OFFCURVE",
"247 444 CURVE SMOOTH",
"247 418 OFFCURVE",
"221 402 OFFCURVE",
"179 402 CURVE SMOOTH",
"145 402 OFFCURVE",
"123 412 OFFCURVE",
"108 433 CURVE",
"39 401 LINE",
"66 359 OFFCURVE",
"111 335 OFFCURVE",
"179 335 CURVE SMOOTH"
);
}
);
width = 362;
},
{
layerId = "2D9103A3-690A-4A3E-A4A3-539A9A9AB4B9";
paths = (
{
closed = 1;
nodes = (
"293 311 OFFCURVE",
"355 355 OFFCURVE",
"355 424 CURVE SMOOTH",
"355 500 OFFCURVE",
"279 533 OFFCURVE",
"207 561 CURVE SMOOTH",
"163 578 OFFCURVE",
"148 584 OFFCURVE",
"148 601 CURVE SMOOTH",
"148 614 OFFCURVE",
"158 623 OFFCURVE",
"183 623 CURVE SMOOTH",
"214 623 OFFCURVE",
"238 609 OFFCURVE",
"262 582 CURVE",
"360 628 LINE",
"320 681 OFFCURVE",
"269 720 OFFCURVE",
"186 720 CURVE SMOOTH",
"97 720 OFFCURVE",
"34 676 OFFCURVE",
"34 607 CURVE SMOOTH",
"34 532 OFFCURVE",
"110 497 OFFCURVE",
"182 470 CURVE SMOOTH",
"215 458 OFFCURVE",
"241 448 OFFCURVE",
"241 430 CURVE SMOOTH",
"241 416 OFFCURVE",
"226 408 OFFCURVE",
"205 408 CURVE SMOOTH",
"176 408 OFFCURVE",
"151 422 OFFCURVE",
"127 449 CURVE",
"29 403 LINE",
"69 350 OFFCURVE",
"120 311 OFFCURVE",
"204 311 CURVE SMOOTH"
);
}
);
width = 389;
},
{
layerId = "FA7FA507-24BC-4772-BCBB-4BDCA0277846";
paths = (
{
closed = 1;
nodes = (
"280 326 OFFCURVE",
"345 364 OFFCURVE",
"345 437 CURVE SMOOTH",
"345 513 OFFCURVE",
"275 538 OFFCURVE",
"198 565 CURVE SMOOTH",
"169 575 OFFCURVE",
"135 587 OFFCURVE",
"135 610 CURVE SMOOTH",
"135 631 OFFCURVE",
"161 638 OFFCURVE",
"184 638 CURVE SMOOTH",
"219 638 OFFCURVE",
"247 622 OFFCURVE",
"264 601 CURVE",
"345 638 LINE",
"313 688 OFFCURVE",
"268 721 OFFCURVE",
"189 721 CURVE SMOOTH",
"104 721 OFFCURVE",
"39 683 OFFCURVE",
"39 610 CURVE SMOOTH",
"39 534 OFFCURVE",
"109 509 OFFCURVE",
"186 482 CURVE SMOOTH",
"215 472 OFFCURVE",
"249 460 OFFCURVE",
"249 437 CURVE SMOOTH",
"249 416 OFFCURVE",
"223 409 OFFCURVE",
"200 409 CURVE SMOOTH",
"165 409 OFFCURVE",
"137 425 OFFCURVE",
"120 446 CURVE",
"39 409 LINE",
"71 359 OFFCURVE",
"116 326 OFFCURVE",
"195 326 CURVE SMOOTH"
);
}
);
width = 384;
}
);
note = uni1506;
unicode = 1506;
},
{
glyphname = uni1507;
lastChange = "2018-03-08 14:01:59 +0000";
layers = (
{
layerId = "2E7E08E9-F197-422C-8C87-7E7891F2A291";
paths = (
{
closed = 1;
nodes = (
"73 342 LINE",
"73 382 LINE SMOOTH",
"73 502 OFFCURVE",
"117 564 OFFCURVE",
"264 564 CURVE SMOOTH",
"292 564 LINE",
"292 714 LINE",
"268 714 LINE",
"268 586 LINE",
"262 586 LINE SMOOTH",
"112 586 OFFCURVE",
"49 523 OFFCURVE",
"49 387 CURVE SMOOTH",
"49 342 LINE"
);
}
);
width = 341;
},
{
layerId = "E326D6A0-72EF-479E-B72E-1071BD8CDE1B";
paths = (
{
closed = 1;
nodes = (
"114 342 LINE",
"114 383 LINE SMOOTH",
"114 494 OFFCURVE",
"147 518 OFFCURVE",
"256 518 CURVE SMOOTH",
"313 518 LINE",
"313 714 LINE",
"237 714 LINE",
"237 585 LINE",
"222 585 LINE SMOOTH",
"95 585 OFFCURVE",
"39 526 OFFCURVE",
"39 395 CURVE SMOOTH",
"39 342 LINE"
);
}
);
width = 352;
},
{
layerId = "2D9103A3-690A-4A3E-A4A3-539A9A9AB4B9";
paths = (
{
closed = 1;
nodes = (
"146 317 LINE",
"146 376 LINE SMOOTH",
"146 466 OFFCURVE",
"180 491 OFFCURVE",
"291 491 CURVE SMOOTH",
"349 491 LINE",
"349 714 LINE",
"231 714 LINE",
"231 599 LINE",
"216 599 LINE SMOOTH",
"86 599 OFFCURVE",
"29 539 OFFCURVE",
"29 405 CURVE SMOOTH",
"29 317 LINE"
);
}
);
width = 378;
},
{
layerId = "FA7FA507-24BC-4772-BCBB-4BDCA0277846";
paths = (
{
closed = 1;
nodes = (
"138 332 LINE",
"138 383 LINE SMOOTH",
"138 480 OFFCURVE",
"171 504 OFFCURVE",
"280 504 CURVE SMOOTH",
"337 504 LINE",
"337 714 LINE",
"237 714 LINE",
"237 594 LINE",
"222 594 LINE SMOOTH",
"95 594 OFFCURVE",
"39 535 OFFCURVE",
"39 404 CURVE SMOOTH",
"39 332 LINE"
);
}
);
width = 376;
}
);
note = uni1507;
unicode = 1507;
},
{
glyphname = uni1508;
lastChange = "2018-03-08 14:01:59 +0000";
layers = (
{
layerId = "2E7E08E9-F197-422C-8C87-7E7891F2A291";
paths = (
{
closed = 1;
nodes = (
"389 342 LINE",
"389 364 LINE",
"223 364 LINE SMOOTH",
"95 364 OFFCURVE",
"73 448 OFFCURVE",
"73 513 CURVE SMOOTH",
"73 702 LINE",
"49 702 LINE",
"49 515 LINE SMOOTH",
"49 400 OFFCURVE",
"108 342 OFFCURVE",
"223 342 CURVE SMOOTH"
);
}
);
width = 438;
},
{
layerId = "E326D6A0-72EF-479E-B72E-1071BD8CDE1B";
paths = (
{
closed = 1;
nodes = (
"391 342 LINE",
"391 409 LINE",
"211 409 LINE SMOOTH",
"146 409 OFFCURVE",
"114 448 OFFCURVE",
"114 513 CURVE SMOOTH",
"114 702 LINE",
"39 702 LINE",
"39 515 LINE SMOOTH",
"39 400 OFFCURVE",
"98 342 OFFCURVE",
"213 342 CURVE SMOOTH"
);
}
);
width = 430;
},
{
layerId = "2D9103A3-690A-4A3E-A4A3-539A9A9AB4B9";
paths = (
{
closed = 1;
nodes = (
"417 317 LINE",
"417 426 LINE",
"293 426 LINE SMOOTH",
"192 426 OFFCURVE",
"148 440 OFFCURVE",
"148 562 CURVE SMOOTH",
"148 702 LINE",
"29 702 LINE",
"29 526 LINE SMOOTH",
"29 383 OFFCURVE",
"99 317 OFFCURVE",
"214 317 CURVE SMOOTH"
);
}
);
width = 446;
},
{
layerId = "FA7FA507-24BC-4772-BCBB-4BDCA0277846";
paths = (
{
closed = 1;
nodes = (
"408 332 LINE",
"408 422 LINE",
"263 422 LINE SMOOTH",
"177 422 OFFCURVE",
"138 446 OFFCURVE",
"138 544 CURVE SMOOTH",
"138 702 LINE",
"39 702 LINE",
"39 523 LINE SMOOTH",
"39 394 OFFCURVE",
"104 332 OFFCURVE",
"217 332 CURVE SMOOTH"
);
}
);
width = 447;
}
);
note = uni1508;
unicode = 1508;
},
{
glyphname = uni1509;
lastChange = "2018-03-08 14:01:59 +0000";
layers = (
{
layerId = "2E7E08E9-F197-422C-8C87-7E7891F2A291";
paths = (
{
closed = 1;
nodes = (
"229 274 OFFCURVE",
"276 313 OFFCURVE",
"276 405 CURVE SMOOTH",
"276 529 OFFCURVE",
"192 566 OFFCURVE",
"83 566 CURVE SMOOTH",
"73 566 LINE",
"73 714 LINE",
"49 714 LINE",
"49 544 LINE",
"73 544 LINE SMOOTH",
"183 544 OFFCURVE",
"252 514 OFFCURVE",
"252 405 CURVE SMOOTH",
"252 328 OFFCURVE",
"217 296 OFFCURVE",
"172 296 CURVE SMOOTH",
"131 296 OFFCURVE",
"103 322 OFFCURVE",
"103 364 CURVE SMOOTH",
"103 402 OFFCURVE",
"124 441 OFFCURVE",
"206 441 CURVE SMOOTH",
"257 441 LINE",
"257 461 LINE",
"202 461 LINE SMOOTH",
"114 461 OFFCURVE",
"79 416 OFFCURVE",
"79 364 CURVE SMOOTH",
"79 311 OFFCURVE",
"120 274 OFFCURVE",
"174 274 CURVE SMOOTH"
);
}
);
width = 325;
},
{
layerId = "E326D6A0-72EF-479E-B72E-1071BD8CDE1B";
paths = (
{
closed = 1;
nodes = (
"269 260 OFFCURVE",
"313 312 OFFCURVE",
"313 403 CURVE SMOOTH",
"313 516 OFFCURVE",
"241 585 OFFCURVE",
"122 585 CURVE SMOOTH",
"114 585 LINE",
"114 714 LINE",
"39 714 LINE",
"39 518 LINE",
"102 518 LINE SMOOTH",
"202 518 OFFCURVE",
"239 486 OFFCURVE",
"239 401 CURVE SMOOTH",
"239 355 OFFCURVE",
"223 328 OFFCURVE",
"197 328 CURVE SMOOTH",
"177 328 OFFCURVE",
"166 343 OFFCURVE",
"166 366 CURVE SMOOTH",
"166 400 OFFCURVE",
"195 419 OFFCURVE",
"254 419 CURVE SMOOTH",
"265 419 LINE",
"265 481 LINE",
"254 481 LINE SMOOTH",
"133 481 OFFCURVE",
"90 425 OFFCURVE",
"90 369 CURVE SMOOTH",
"90 307 OFFCURVE",
"133 260 OFFCURVE",
"192 260 CURVE SMOOTH"
);
}
);
width = 352;
},
{
layerId = "2D9103A3-690A-4A3E-A4A3-539A9A9AB4B9";
paths = (
{
closed = 1;
nodes = (
"294 234 OFFCURVE",
"349 305 OFFCURVE",
"349 417 CURVE SMOOTH",
"349 541 OFFCURVE",
"283 599 OFFCURVE",
"164 599 CURVE SMOOTH",
"147 599 LINE",
"147 714 LINE",
"29 714 LINE",
"29 498 LINE",
"98 498 LINE SMOOTH",
"213 498 OFFCURVE",
"236 438 OFFCURVE",
"236 375 CURVE SMOOTH",
"236 324 OFFCURVE",
"221 308 OFFCURVE",
"194 308 CURVE SMOOTH",
"168 308 OFFCURVE",
"157 328 OFFCURVE",
"157 349 CURVE SMOOTH",
"157 377 OFFCURVE",
"180 400 OFFCURVE",
"240 400 CURVE SMOOTH",
"256 400 LINE",
"256 469 LINE",
"245 469 LINE SMOOTH",
"123 469 OFFCURVE",
"49 434 OFFCURVE",
"49 345 CURVE SMOOTH",
"49 275 OFFCURVE",
"95 234 OFFCURVE",
"182 234 CURVE SMOOTH"
);
}
);
width = 378;
},
{
layerId = "FA7FA507-24BC-4772-BCBB-4BDCA0277846";
paths = (
{
closed = 1;
nodes = (
"287 250 OFFCURVE",
"337 313 OFFCURVE",
"337 415 CURVE SMOOTH",
"337 533 OFFCURVE",
"269 594 OFFCURVE",
"151 594 CURVE SMOOTH",
"138 594 LINE",
"138 714 LINE",
"39 714 LINE",
"39 509 LINE",
"105 509 LINE SMOOTH",
"213 509 OFFCURVE",
"241 464 OFFCURVE",
"241 393 CURVE SMOOTH",
"241 344 OFFCURVE",
"226 324 OFFCURVE",
"200 324 CURVE SMOOTH",
"176 324 OFFCURVE",
"166 339 OFFCURVE",
"166 360 CURVE SMOOTH",
"166 391 OFFCURVE",
"190 408 OFFCURVE",
"249 408 CURVE SMOOTH",
"263 408 LINE",
"263 480 LINE",
"252 480 LINE SMOOTH",
"132 480 OFFCURVE",
"72 433 OFFCURVE",
"72 359 CURVE SMOOTH",
"72 293 OFFCURVE",
"116 250 OFFCURVE",
"190 250 CURVE SMOOTH"
);
}
);
width = 376;
}
);
note = uni1509;
unicode = 1509;
},
{
glyphname = uni150A;
lastChange = "2018-03-08 14:01:59 +0000";
layers = (
{
layerId = "2E7E08E9-F197-422C-8C87-7E7891F2A291";
paths = (
{
closed = 1;
nodes = (
"205 274 OFFCURVE",
"246 311 OFFCURVE",
"246 364 CURVE SMOOTH",
"246 416 OFFCURVE",
"211 461 OFFCURVE",
"123 461 CURVE SMOOTH",
"68 461 LINE",
"68 441 LINE",
"119 441 LINE SMOOTH",
"201 441 OFFCURVE",
"222 402 OFFCURVE",
"222 364 CURVE SMOOTH",
"222 322 OFFCURVE",
"194 296 OFFCURVE",
"153 296 CURVE SMOOTH",
"108 296 OFFCURVE",
"73 328 OFFCURVE",
"73 405 CURVE SMOOTH",
"73 514 OFFCURVE",
"142 544 OFFCURVE",
"252 544 CURVE SMOOTH",
"276 544 LINE",
"276 714 LINE",
"252 714 LINE",
"252 566 LINE",
"242 566 LINE SMOOTH",
"133 566 OFFCURVE",
"49 529 OFFCURVE",
"49 405 CURVE SMOOTH",
"49 313 OFFCURVE",
"96 274 OFFCURVE",
"151 274 CURVE SMOOTH"
);
}
);
width = 325;
},
{
layerId = "E326D6A0-72EF-479E-B72E-1071BD8CDE1B";
paths = (
{
closed = 1;
nodes = (
"219 260 OFFCURVE",
"262 307 OFFCURVE",
"262 369 CURVE SMOOTH",
"262 425 OFFCURVE",
"219 481 OFFCURVE",
"98 481 CURVE SMOOTH",
"87 481 LINE",
"87 419 LINE",
"98 419 LINE SMOOTH",
"157 419 OFFCURVE",
"186 400 OFFCURVE",
"186 366 CURVE SMOOTH",
"186 343 OFFCURVE",
"175 328 OFFCURVE",
"155 328 CURVE SMOOTH",
"129 328 OFFCURVE",
"113 355 OFFCURVE",
"113 401 CURVE SMOOTH",
"113 486 OFFCURVE",
"150 518 OFFCURVE",
"250 518 CURVE SMOOTH",
"313 518 LINE",
"313 714 LINE",
"238 714 LINE",
"238 585 LINE",
"230 585 LINE SMOOTH",
"111 585 OFFCURVE",
"39 516 OFFCURVE",
"39 403 CURVE SMOOTH",
"39 312 OFFCURVE",
"83 260 OFFCURVE",
"160 260 CURVE SMOOTH"
);
}
);
width = 352;
},
{
layerId = "2D9103A3-690A-4A3E-A4A3-539A9A9AB4B9";
paths = (
{
closed = 1;
nodes = (
"283 234 OFFCURVE",
"329 275 OFFCURVE",
"329 345 CURVE SMOOTH",
"329 434 OFFCURVE",
"255 469 OFFCURVE",
"133 469 CURVE SMOOTH",
"122 469 LINE",
"122 400 LINE",
"138 400 LINE SMOOTH",
"198 400 OFFCURVE",
"221 377 OFFCURVE",
"221 349 CURVE SMOOTH",
"221 328 OFFCURVE",
"210 308 OFFCURVE",
"184 308 CURVE SMOOTH",
"157 308 OFFCURVE",
"142 324 OFFCURVE",
"142 375 CURVE SMOOTH",
"142 438 OFFCURVE",
"165 498 OFFCURVE",
"280 498 CURVE SMOOTH",
"349 498 LINE",
"349 714 LINE",
"231 714 LINE",
"231 599 LINE",
"214 599 LINE SMOOTH",
"95 599 OFFCURVE",
"29 541 OFFCURVE",
"29 417 CURVE SMOOTH",
"29 305 OFFCURVE",
"84 234 OFFCURVE",
"196 234 CURVE SMOOTH"
);
}
);
width = 378;
},
{
layerId = "FA7FA507-24BC-4772-BCBB-4BDCA0277846";
paths = (
{
closed = 1;
nodes = (
"260 250 OFFCURVE",
"304 293 OFFCURVE",
"304 359 CURVE SMOOTH",
"304 433 OFFCURVE",
"244 480 OFFCURVE",
"124 480 CURVE SMOOTH",
"113 480 LINE",
"113 408 LINE",
"127 408 LINE SMOOTH",
"186 408 OFFCURVE",
"210 391 OFFCURVE",
"210 360 CURVE SMOOTH",
"210 339 OFFCURVE",
"200 324 OFFCURVE",
"176 324 CURVE SMOOTH",
"150 324 OFFCURVE",
"135 344 OFFCURVE",
"135 393 CURVE SMOOTH",
"135 464 OFFCURVE",
"163 509 OFFCURVE",
"271 509 CURVE SMOOTH",
"337 509 LINE",
"337 714 LINE",
"238 714 LINE",
"238 594 LINE",
"225 594 LINE SMOOTH",
"107 594 OFFCURVE",
"39 533 OFFCURVE",
"39 415 CURVE SMOOTH",
"39 313 OFFCURVE",
"89 250 OFFCURVE",
"186 250 CURVE SMOOTH"
);
}
);
width = 376;
}
);
note = uni150A;
unicode = 150A;
},
{
glyphname = uni150B;
lastChange = "2018-03-08 14:01:59 +0000";
layers = (
{
layerId = "2E7E08E9-F197-422C-8C87-7E7891F2A291";
paths = (
{
closed = 1;
nodes = (
"274 349 LINE",
"274 384 LINE SMOOTH",
"274 510 OFFCURVE",
"231 557 OFFCURVE",
"101 557 CURVE SMOOTH",
"95 557 LINE",
"95 665 LINE",
"71 665 LINE",
"71 535 LINE",
"93 535 LINE SMOOTH",
"223 535 OFFCURVE",
"250 492 OFFCURVE",
"250 376 CURVE SMOOTH",
"250 349 LINE"
);
},
{
closed = 1;
nodes = (
"280 244 OFFCURVE",
"295 258 OFFCURVE",
"295 277 CURVE SMOOTH",
"295 295 OFFCURVE",
"280 310 OFFCURVE",
"262 310 CURVE SMOOTH",
"243 310 OFFCURVE",
"228 295 OFFCURVE",
"228 277 CURVE SMOOTH",
"228 258 OFFCURVE",
"243 244 OFFCURVE",
"262 244 CURVE SMOOTH"
);
},
{
closed = 1;
nodes = (
"101 704 OFFCURVE",
"116 718 OFFCURVE",
"116 737 CURVE SMOOTH",
"116 755 OFFCURVE",
"101 770 OFFCURVE",
"83 770 CURVE SMOOTH",
"64 770 OFFCURVE",
"49 755 OFFCURVE",
"49 737 CURVE SMOOTH",
"49 718 OFFCURVE",
"64 704 OFFCURVE",
"83 704 CURVE SMOOTH"
);
}
);
width = 344;
},
{
layerId = "E326D6A0-72EF-479E-B72E-1071BD8CDE1B";
paths = (
{
closed = 1;
nodes = (
"287 349 LINE",
"287 382 LINE SMOOTH",
"287 503 OFFCURVE",
"245 556 OFFCURVE",
"163 556 CURVE SMOOTH",
"137 556 LINE",
"137 665 LINE",
"62 665 LINE",
"62 488 LINE",
"138 488 LINE SMOOTH",
"192 488 OFFCURVE",
"211 465 OFFCURVE",
"211 383 CURVE SMOOTH",
"211 349 LINE"
);
},
{
closed = 1;
nodes = (
"281 192 OFFCURVE",
"308 218 OFFCURVE",
"308 251 CURVE SMOOTH",
"308 284 OFFCURVE",
"281 310 OFFCURVE",
"249 310 CURVE SMOOTH",
"216 310 OFFCURVE",
"189 284 OFFCURVE",
"189 251 CURVE SMOOTH",
"189 218 OFFCURVE",
"216 192 OFFCURVE",
"249 192 CURVE SMOOTH"
);
},
{
closed = 1;
nodes = (
"131 704 OFFCURVE",
"157 730 OFFCURVE",
"157 763 CURVE SMOOTH",
"157 796 OFFCURVE",
"131 822 OFFCURVE",
"98 822 CURVE SMOOTH",
"65 822 OFFCURVE",
"39 796 OFFCURVE",
"39 763 CURVE SMOOTH",
"39 730 OFFCURVE",
"65 704 OFFCURVE",
"98 704 CURVE SMOOTH"
);
}
);
width = 347;
},
{
layerId = "2D9103A3-690A-4A3E-A4A3-539A9A9AB4B9";
paths = (
{
closed = 1;
nodes = (
"372 322 LINE",
"372 384 LINE SMOOTH",
"372 517 OFFCURVE",
"315 578 OFFCURVE",
"185 578 CURVE SMOOTH",
"170 578 LINE",
"170 667 LINE",
"52 667 LINE",
"52 470 LINE",
"110 470 LINE SMOOTH",
"221 470 OFFCURVE",
"255 445 OFFCURVE",
"255 355 CURVE SMOOTH",
"255 322 LINE"
);
},
{
closed = 1;
nodes = (
"357 125 OFFCURVE",
"395 162 OFFCURVE",
"395 209 CURVE SMOOTH",
"395 255 OFFCURVE",
"357 293 OFFCURVE",
"311 293 CURVE SMOOTH",
"264 293 OFFCURVE",
"227 255 OFFCURVE",
"227 209 CURVE SMOOTH",
"227 162 OFFCURVE",
"264 125 OFFCURVE",
"311 125 CURVE SMOOTH"
);
},
{
closed = 1;
nodes = (
"159 696 OFFCURVE",
"197 733 OFFCURVE",
"197 780 CURVE SMOOTH",
"197 826 OFFCURVE",
"159 864 OFFCURVE",
"113 864 CURVE SMOOTH",
"66 864 OFFCURVE",
"29 826 OFFCURVE",
"29 780 CURVE SMOOTH",
"29 733 OFFCURVE",
"66 696 OFFCURVE",
"113 696 CURVE SMOOTH"
);
}
);
width = 424;
},
{
layerId = "FA7FA507-24BC-4772-BCBB-4BDCA0277846";
paths = (
{
closed = 1;
nodes = (
"341 335 LINE",
"341 384 LINE SMOOTH",
"341 511 OFFCURVE",
"291 568 OFFCURVE",
"183 568 CURVE SMOOTH",
"163 568 LINE",
"163 664 LINE",
"64 664 LINE",
"64 477 LINE",
"129 477 LINE SMOOTH",
"215 477 OFFCURVE",
"242 454 OFFCURVE",
"242 368 CURVE SMOOTH",
"242 335 LINE"
);
},
{
closed = 1;
nodes = (
"332 152 OFFCURVE",
"365 185 OFFCURVE",
"365 226 CURVE SMOOTH",
"365 267 OFFCURVE",
"332 300 OFFCURVE",
"292 300 CURVE SMOOTH",
"250 300 OFFCURVE",
"217 267 OFFCURVE",
"217 226 CURVE SMOOTH",
"217 185 OFFCURVE",
"250 152 OFFCURVE",
"292 152 CURVE SMOOTH"
);
},
{
closed = 1;
nodes = (
"154 699 OFFCURVE",
"187 732 OFFCURVE",
"187 773 CURVE SMOOTH",
"187 814 OFFCURVE",
"154 847 OFFCURVE",
"113 847 CURVE SMOOTH",
"72 847 OFFCURVE",
"39 814 OFFCURVE",
"39 773 CURVE SMOOTH",
"39 732 OFFCURVE",
"72 699 OFFCURVE",
"113 699 CURVE SMOOTH"
);
}
);
width = 404;
}
);
note = uni150B;
unicode = 150B;
},
{
glyphname = uni150C;
lastChange = "2018-03-08 14:01:59 +0000";
layers = (
{
layerId = "2E7E08E9-F197-422C-8C87-7E7891F2A291";
paths = (
{
closed = 1;
nodes = (
"673 -10 LINE",
"673 14 LINE",
"83 358 LINE",
"673 703 LINE",
"673 726 LINE",
"663 726 LINE",
"49 367 LINE",
"49 349 LINE",
"663 -10 LINE"
);
},
{
closed = 1;
nodes = (
"137 500 OFFCURVE",
"152 514 OFFCURVE",
"152 533 CURVE SMOOTH",
"152 551 OFFCURVE",
"137 566 OFFCURVE",
"119 566 CURVE SMOOTH",
"100 566 OFFCURVE",
"85 551 OFFCURVE",
"85 533 CURVE SMOOTH",
"85 514 OFFCURVE",
"100 500 OFFCURVE",
"119 500 CURVE SMOOTH"
);
},
{
closed = 1;
nodes = (
"366 614 LINE",
"366 649 LINE SMOOTH",
"366 775 OFFCURVE",
"323 822 OFFCURVE",
"193 822 CURVE SMOOTH",
"187 822 LINE",
"187 930 LINE",
"167 930 LINE",
"167 803 LINE",
"185 803 LINE SMOOTH",
"315 803 OFFCURVE",
"346 757 OFFCURVE",
"346 641 CURVE SMOOTH",
"346 614 LINE"
);
},
{
closed = 1;
nodes = (
"540 733 OFFCURVE",
"555 747 OFFCURVE",
"555 766 CURVE SMOOTH",
"555 784 OFFCURVE",
"540 799 OFFCURVE",
"522 799 CURVE SMOOTH",
"503 799 OFFCURVE",
"488 784 OFFCURVE",
"488 766 CURVE SMOOTH",
"488 747 OFFCURVE",
"503 733 OFFCURVE",
"522 733 CURVE SMOOTH"
);
}
);
width = 732;
},
{
layerId = "E326D6A0-72EF-479E-B72E-1071BD8CDE1B";
paths = (
{
closed = 1;
nodes = (
"663 -10 LINE",
"663 74 LINE",
"165 357 LINE",
"663 641 LINE",
"663 725 LINE",
"653 725 LINE",
"39 364 LINE",
"39 350 LINE",
"653 -10 LINE"
);
},
{
closed = 1;
nodes = (
"140 500 OFFCURVE",
"167 526 OFFCURVE",
"167 559 CURVE SMOOTH",
"167 592 OFFCURVE",
"140 618 OFFCURVE",
"107 618 CURVE SMOOTH",
"75 618 OFFCURVE",
"48 592 OFFCURVE",
"48 559 CURVE SMOOTH",
"48 526 OFFCURVE",
"75 500 OFFCURVE",
"107 500 CURVE SMOOTH"
);
},
{
closed = 1;
nodes = (
"369 613 LINE",
"369 646 LINE SMOOTH",
"369 767 OFFCURVE",
"327 819 OFFCURVE",
"245 819 CURVE SMOOTH",
"220 819 LINE",
"220 929 LINE",
"145 929 LINE",
"145 752 LINE",
"221 752 LINE SMOOTH",
"275 752 OFFCURVE",
"294 729 OFFCURVE",
"294 647 CURVE SMOOTH",
"294 613 LINE"
);
},
{
closed = 1;
nodes = (
"543 732 OFFCURVE",
"570 759 OFFCURVE",
"570 792 CURVE SMOOTH",
"570 824 OFFCURVE",
"543 851 OFFCURVE",
"511 851 CURVE SMOOTH",
"478 851 OFFCURVE",
"452 824 OFFCURVE",
"452 792 CURVE SMOOTH",
"452 759 OFFCURVE",
"478 732 OFFCURVE",
"511 732 CURVE SMOOTH"
);
}
);
width = 712;
},
{
layerId = "2D9103A3-690A-4A3E-A4A3-539A9A9AB4B9";
paths = (
{
closed = 1;
nodes = (
"693 -10 LINE",
"693 160 LINE",
"340 358 LINE",
"693 556 LINE",
"693 725 LINE",
"648 725 LINE",
"29 380 LINE",
"29 335 LINE",
"648 -10 LINE"
);
},
{
closed = 1;
nodes = (
"163 500 OFFCURVE",
"201 537 OFFCURVE",
"201 584 CURVE SMOOTH",
"201 630 OFFCURVE",
"163 668 OFFCURVE",
"117 668 CURVE SMOOTH",
"70 668 OFFCURVE",
"33 630 OFFCURVE",
"33 584 CURVE SMOOTH",
"33 537 OFFCURVE",
"70 500 OFFCURVE",
"117 500 CURVE SMOOTH"
);
},
{
closed = 1;
nodes = (
"400 610 LINE",
"400 677 LINE SMOOTH",
"400 810 OFFCURVE",
"343 871 OFFCURVE",
"213 871 CURVE SMOOTH",
"198 871 LINE",
"198 960 LINE",
"80 960 LINE",
"80 763 LINE",
"138 763 LINE SMOOTH",
"249 763 OFFCURVE",
"283 738 OFFCURVE",
"283 648 CURVE SMOOTH",
"283 610 LINE"
);
},
{
closed = 1;
nodes = (
"567 732 OFFCURVE",
"605 769 OFFCURVE",
"605 816 CURVE SMOOTH",
"605 862 OFFCURVE",
"567 900 OFFCURVE",
"521 900 CURVE SMOOTH",
"474 900 OFFCURVE",
"437 862 OFFCURVE",
"437 816 CURVE SMOOTH",
"437 769 OFFCURVE",
"474 732 OFFCURVE",
"521 732 CURVE SMOOTH"
);
}
);
width = 732;
},
{
layerId = "FA7FA507-24BC-4772-BCBB-4BDCA0277846";
paths = (
{
closed = 1;
nodes = (
"687 -10 LINE",
"687 125 LINE",
"274 358 LINE",
"687 591 LINE",
"687 725 LINE",
"656 725 LINE",
"39 373 LINE",
"39 341 LINE",
"656 -10 LINE"
);
},
{
closed = 1;
nodes = (
"160 500 OFFCURVE",
"193 532 OFFCURVE",
"193 574 CURVE SMOOTH",
"193 614 OFFCURVE",
"160 648 OFFCURVE",
"119 648 CURVE SMOOTH",
"78 648 OFFCURVE",
"45 614 OFFCURVE",
"45 574 CURVE SMOOTH",
"45 532 OFFCURVE",
"78 500 OFFCURVE",
"119 500 CURVE SMOOTH"
);
},
{
closed = 1;
nodes = (
"392 613 LINE",
"392 665 LINE SMOOTH",
"392 792 OFFCURVE",
"341 849 OFFCURVE",
"233 849 CURVE SMOOTH",
"214 849 LINE",
"214 946 LINE",
"115 946 LINE",
"115 758 LINE",
"179 758 LINE SMOOTH",
"266 758 OFFCURVE",
"293 735 OFFCURVE",
"293 649 CURVE SMOOTH",
"293 613 LINE"
);
},
{
closed = 1;
nodes = (
"563 732 OFFCURVE",
"597 765 OFFCURVE",
"597 806 CURVE SMOOTH",
"597 846 OFFCURVE",
"563 880 OFFCURVE",
"523 880 CURVE SMOOTH",
"482 880 OFFCURVE",
"449 846 OFFCURVE",
"449 806 CURVE SMOOTH",
"449 765 OFFCURVE",
"482 732 OFFCURVE",
"523 732 CURVE SMOOTH"
);
}
);
width = 736;
}
);
note = uni150C;
unicode = 150C;
},
{
glyphname = uni1510;
lastChange = "2018-03-08 14:01:59 +0000";
layers = (
{
layerId = "2E7E08E9-F197-422C-8C87-7E7891F2A291";
paths = (
{
closed = 1;
nodes = (
"737 -12 OFFCURVE",
"787 83 OFFCURVE",
"787 237 CURVE SMOOTH",
"787 282 LINE",
"761 282 LINE",
"761 238 LINE SMOOTH",
"761 94 OFFCURVE",
"719 13 OFFCURVE",
"601 13 CURVE SMOOTH",
"483 13 OFFCURVE",
"441 94 OFFCURVE",
"441 238 CURVE SMOOTH",
"441 477 LINE SMOOTH",
"441 631 OFFCURVE",
"391 726 OFFCURVE",
"255 726 CURVE SMOOTH",
"119 726 OFFCURVE",
"69 631 OFFCURVE",
"69 477 CURVE SMOOTH",
"69 432 LINE",
"95 432 LINE",
"95 476 LINE SMOOTH",
"95 620 OFFCURVE",
"137 701 OFFCURVE",
"255 701 CURVE SMOOTH",
"373 701 OFFCURVE",
"415 620 OFFCURVE",
"415 476 CURVE SMOOTH",
"415 237 LINE SMOOTH",
"415 83 OFFCURVE",
"465 -12 OFFCURVE",
"601 -12 CURVE SMOOTH"
);
}
);
width = 856;
},
{
layerId = "E326D6A0-72EF-479E-B72E-1071BD8CDE1B";
paths = (
{
closed = 1;
nodes = (
"718 -12 OFFCURVE",
"786 66 OFFCURVE",
"786 236 CURVE SMOOTH",
"786 282 LINE",
"708 282 LINE",
"708 233 LINE SMOOTH",
"708 108 OFFCURVE",
"667 59 OFFCURVE",
"577 59 CURVE SMOOTH",
"497 59 OFFCURVE",
"461 107 OFFCURVE",
"461 235 CURVE SMOOTH",
"461 481 LINE SMOOTH",
"461 647 OFFCURVE",
"397 726 OFFCURVE",
"266 726 CURVE SMOOTH",
"127 726 OFFCURVE",
"59 648 OFFCURVE",
"59 478 CURVE SMOOTH",
"59 432 LINE",
"137 432 LINE",
"137 481 LINE SMOOTH",
"137 606 OFFCURVE",
"178 655 OFFCURVE",
"268 655 CURVE SMOOTH",
"348 655 OFFCURVE",
"383 606 OFFCURVE",
"383 479 CURVE SMOOTH",
"383 233 LINE SMOOTH",
"383 66 OFFCURVE",
"447 -12 OFFCURVE",
"579 -12 CURVE SMOOTH"
);
}
);
width = 845;
},
{
layerId = "2D9103A3-690A-4A3E-A4A3-539A9A9AB4B9";
paths = (
{
closed = 1;
nodes = (
"741 -12 OFFCURVE",
"818 70 OFFCURVE",
"818 249 CURVE SMOOTH",
"818 299 LINE",
"628 299 LINE",
"628 230 LINE SMOOTH",
"628 167 OFFCURVE",
"614 141 OFFCURVE",
"578 141 CURVE SMOOTH",
"542 141 OFFCURVE",
"528 166 OFFCURVE",
"528 230 CURVE SMOOTH",
"528 484 LINE SMOOTH",
"528 644 OFFCURVE",
"443 726 OFFCURVE",
"285 726 CURVE SMOOTH",
"126 726 OFFCURVE",
"49 644 OFFCURVE",
"49 465 CURVE SMOOTH",
"49 415 LINE",
"239 415 LINE",
"239 484 LINE SMOOTH",
"239 543 OFFCURVE",
"252 573 OFFCURVE",
"290 573 CURVE SMOOTH",
"324 573 OFFCURVE",
"339 550 OFFCURVE",
"339 484 CURVE SMOOTH",
"339 230 LINE SMOOTH",
"339 70 OFFCURVE",
"424 -12 OFFCURVE",
"583 -12 CURVE SMOOTH"
);
}
);
width = 867;
},
{
layerId = "FA7FA507-24BC-4772-BCBB-4BDCA0277846";
paths = (
{
closed = 1;
nodes = (
"738 -12 OFFCURVE",
"811 68 OFFCURVE",
"811 244 CURVE SMOOTH",
"811 292 LINE",
"667 292 LINE",
"667 231 LINE SMOOTH",
"667 143 OFFCURVE",
"642 107 OFFCURVE",
"584 107 CURVE SMOOTH",
"530 107 OFFCURVE",
"507 142 OFFCURVE",
"507 232 CURVE SMOOTH",
"507 483 LINE SMOOTH",
"507 645 OFFCURVE",
"430 726 OFFCURVE",
"283 726 CURVE SMOOTH",
"133 726 OFFCURVE",
"59 646 OFFCURVE",
"59 470 CURVE SMOOTH",
"59 422 LINE",
"203 422 LINE",
"203 483 LINE SMOOTH",
"203 569 OFFCURVE",
"228 607 OFFCURVE",
"287 607 CURVE SMOOTH",
"340 607 OFFCURVE",
"363 573 OFFCURVE",
"363 482 CURVE SMOOTH",
"363 231 LINE SMOOTH",
"363 68 OFFCURVE",
"440 -12 OFFCURVE",
"587 -12 CURVE SMOOTH"
);
}
);
width = 870;
}
);
note = uni1510;
unicode = 1510;
},
{
glyphname = uni1511;
lastChange = "2018-03-08 14:01:59 +0000";
layers = (
{
layerId = "2E7E08E9-F197-422C-8C87-7E7891F2A291";
paths = (
{
closed = 1;
nodes = (
"391 -12 OFFCURVE",
"441 83 OFFCURVE",
"441 237 CURVE SMOOTH",
"441 476 LINE SMOOTH",
"441 620 OFFCURVE",
"483 701 OFFCURVE",
"601 701 CURVE SMOOTH",
"719 701 OFFCURVE",
"761 620 OFFCURVE",
"761 476 CURVE SMOOTH",
"761 432 LINE",
"787 432 LINE",
"787 477 LINE SMOOTH",
"787 631 OFFCURVE",
"737 726 OFFCURVE",
"601 726 CURVE SMOOTH",
"465 726 OFFCURVE",
"415 631 OFFCURVE",
"415 477 CURVE SMOOTH",
"415 238 LINE SMOOTH",
"415 94 OFFCURVE",
"373 13 OFFCURVE",
"255 13 CURVE SMOOTH",
"137 13 OFFCURVE",
"95 94 OFFCURVE",
"95 238 CURVE SMOOTH",
"95 282 LINE",
"69 282 LINE",
"69 237 LINE SMOOTH",
"69 83 OFFCURVE",
"119 -12 OFFCURVE",
"255 -12 CURVE SMOOTH"
);
}
);
width = 856;
},
{
layerId = "E326D6A0-72EF-479E-B72E-1071BD8CDE1B";
paths = (
{
closed = 1;
nodes = (
"397 -12 OFFCURVE",
"461 66 OFFCURVE",
"461 233 CURVE SMOOTH",
"461 479 LINE SMOOTH",
"461 606 OFFCURVE",
"496 655 OFFCURVE",
"577 655 CURVE SMOOTH",
"667 655 OFFCURVE",
"708 606 OFFCURVE",
"708 481 CURVE SMOOTH",
"708 432 LINE",
"786 432 LINE",
"786 478 LINE SMOOTH",
"786 648 OFFCURVE",
"718 726 OFFCURVE",
"579 726 CURVE SMOOTH",
"447 726 OFFCURVE",
"383 647 OFFCURVE",
"383 481 CURVE SMOOTH",
"383 235 LINE SMOOTH",
"383 108 OFFCURVE",
"349 59 OFFCURVE",
"268 59 CURVE SMOOTH",
"178 59 OFFCURVE",
"137 108 OFFCURVE",
"137 233 CURVE SMOOTH",
"137 282 LINE",
"59 282 LINE",
"59 236 LINE SMOOTH",
"59 66 OFFCURVE",
"127 -12 OFFCURVE",
"266 -12 CURVE SMOOTH"
);
}
);
width = 845;
},
{
layerId = "2D9103A3-690A-4A3E-A4A3-539A9A9AB4B9";
paths = (
{
closed = 1;
nodes = (
"443 -12 OFFCURVE",
"528 70 OFFCURVE",
"528 230 CURVE SMOOTH",
"528 484 LINE",
"528 550 OFFCURVE",
"543 573 OFFCURVE",
"577 573 CURVE SMOOTH",
"615 573 OFFCURVE",
"628 543 OFFCURVE",
"628 484 CURVE SMOOTH",
"628 415 LINE",
"818 415 LINE",
"818 465 LINE SMOOTH",
"818 644 OFFCURVE",
"741 726 OFFCURVE",
"582 726 CURVE SMOOTH",
"424 726 OFFCURVE",
"339 644 OFFCURVE",
"339 484 CURVE SMOOTH",
"339 230 LINE SMOOTH",
"339 166 OFFCURVE",
"325 141 OFFCURVE",
"289 141 CURVE SMOOTH",
"253 141 OFFCURVE",
"239 167 OFFCURVE",
"239 230 CURVE SMOOTH",
"239 299 LINE",
"49 299 LINE",
"49 249 LINE SMOOTH",
"49 70 OFFCURVE",
"126 -12 OFFCURVE",
"284 -12 CURVE SMOOTH"
);
}
);
width = 867;
},
{
layerId = "FA7FA507-24BC-4772-BCBB-4BDCA0277846";
paths = (
{
closed = 1;
nodes = (
"430 -12 OFFCURVE",
"507 68 OFFCURVE",
"507 231 CURVE SMOOTH",
"507 482 LINE SMOOTH",
"507 573 OFFCURVE",
"530 607 OFFCURVE",
"583 607 CURVE SMOOTH",
"642 607 OFFCURVE",
"667 569 OFFCURVE",
"667 483 CURVE SMOOTH",
"667 422 LINE",
"811 422 LINE",
"811 470 LINE SMOOTH",
"811 646 OFFCURVE",
"738 726 OFFCURVE",
"587 726 CURVE SMOOTH",
"440 726 OFFCURVE",
"363 645 OFFCURVE",
"363 483 CURVE SMOOTH",
"363 232 LINE SMOOTH",
"363 142 OFFCURVE",
"341 107 OFFCURVE",
"286 107 CURVE SMOOTH",
"228 107 OFFCURVE",
"203 143 OFFCURVE",
"203 231 CURVE SMOOTH",
"203 292 LINE",
"59 292 LINE",
"59 244 LINE SMOOTH",
"59 68 OFFCURVE",
"133 -12 OFFCURVE",
"283 -12 CURVE SMOOTH"
);
}
);
width = 870;
}
);
leftMetricsKey = "=uni1510";
note = uni1511;
rightMetricsKey = "=uni1510";
unicode = 1511;
},
{
glyphname = uni1513;
lastChange = "2018-03-08 14:01:59 +0000";
layers = (
{
layerId = "2E7E08E9-F197-422C-8C87-7E7891F2A291";
paths = (
{
closed = 1;
nodes = (
"253 1 LINE",
"153 44 OFFCURVE",
"95 122 OFFCURVE",
"95 227 CURVE SMOOTH",
"95 336 OFFCURVE",
"158 399 OFFCURVE",
"262 399 CURVE SMOOTH",
"372 399 OFFCURVE",
"416 329 OFFCURVE",
"492 199 CURVE SMOOTH",
"566 73 OFFCURVE",
"616 -12 OFFCURVE",
"746 -12 CURVE SMOOTH",
"868 -12 OFFCURVE",
"939 62 OFFCURVE",
"939 185 CURVE SMOOTH",
"939 296 OFFCURVE",
"881 375 OFFCURVE",
"766 425 CURVE",
"753 403 LINE",
"858 358 OFFCURVE",
"913 287 OFFCURVE",
"913 184 CURVE SMOOTH",
"913 76 OFFCURVE",
"852 13 OFFCURVE",
"747 13 CURVE SMOOTH",
"634 13 OFFCURVE",
"591 85 OFFCURVE",
"516 213 CURVE SMOOTH",
"438 346 OFFCURVE",
"388 424 OFFCURVE",
"264 424 CURVE SMOOTH",
"142 424 OFFCURVE",
"69 350 OFFCURVE",
"69 226 CURVE SMOOTH",
"69 112 OFFCURVE",
"132 26 OFFCURVE",
"240 -21 CURVE"
);
}
);
width = 1008;
},
{
layerId = "E326D6A0-72EF-479E-B72E-1071BD8CDE1B";
paths = (
{
closed = 1;
nodes = (
"235 45 LINE",
"178 89 OFFCURVE",
"139 153 OFFCURVE",
"139 233 CURVE SMOOTH",
"139 308 OFFCURVE",
"173 354 OFFCURVE",
"240 354 CURVE SMOOTH",
"325 354 OFFCURVE",
"385 281 OFFCURVE",
"466 179 CURVE SMOOTH",
"556 66 OFFCURVE",
"635 -12 OFFCURVE",
"745 -12 CURVE SMOOTH",
"853 -12 OFFCURVE",
"926 63 OFFCURVE",
"926 179 CURVE SMOOTH",
"926 282 OFFCURVE",
"868 376 OFFCURVE",
"785 429 CURVE",
"749 368 LINE",
"801 335 OFFCURVE",
"846 262 OFFCURVE",
"846 179 CURVE SMOOTH",
"846 106 OFFCURVE",
"812 59 OFFCURVE",
"745 59 CURVE SMOOTH",
"658 59 OFFCURVE",
"595 138 OFFCURVE",
"521 231 CURVE SMOOTH",
"412 368 OFFCURVE",
"335 425 OFFCURVE",
"240 425 CURVE SMOOTH",
"130 425 OFFCURVE",
"59 350 OFFCURVE",
"59 232 CURVE SMOOTH",
"59 134 OFFCURVE",
"107 48 OFFCURVE",
"199 -17 CURVE"
);
}
);
width = 985;
},
{
layerId = "2D9103A3-690A-4A3E-A4A3-539A9A9AB4B9";
paths = (
{
closed = 1;
nodes = (
"315 105 LINE",
"268 139 OFFCURVE",
"239 172 OFFCURVE",
"239 216 CURVE SMOOTH",
"239 252 OFFCURVE",
"260 279 OFFCURVE",
"297 279 CURVE SMOOTH",
"362 279 OFFCURVE",
"416 199 OFFCURVE",
"469 137 CURVE SMOOTH",
"557 34 OFFCURVE",
"630 -12 OFFCURVE",
"736 -12 CURVE SMOOTH",
"889 -12 OFFCURVE",
"979 85 OFFCURVE",
"979 205 CURVE SMOOTH",
"979 307 OFFCURVE",
"914 401 OFFCURVE",
"843 447 CURVE",
"713 325 LINE",
"756 294 OFFCURVE",
"789 260 OFFCURVE",
"789 214 CURVE SMOOTH",
"789 177 OFFCURVE",
"768 151 OFFCURVE",
"732 151 CURVE SMOOTH",
"683 151 OFFCURVE",
"642 198 OFFCURVE",
"579 269 CURVE SMOOTH",
"495 364 OFFCURVE",
"425 442 OFFCURVE",
"292 442 CURVE SMOOTH",
"143 442 OFFCURVE",
"49 345 OFFCURVE",
"49 225 CURVE SMOOTH",
"49 124 OFFCURVE",
"116 30 OFFCURVE",
"188 -17 CURVE"
);
}
);
width = 1028;
},
{
layerId = "FA7FA507-24BC-4772-BCBB-4BDCA0277846";
paths = (
{
closed = 1;
nodes = (
"288 80 LINE",
"237 119 OFFCURVE",
"204 164 OFFCURVE",
"204 223 CURVE SMOOTH",
"204 275 OFFCURVE",
"230 310 OFFCURVE",
"280 310 CURVE SMOOTH",
"353 310 OFFCURVE",
"409 233 OFFCURVE",
"474 154 CURVE SMOOTH",
"563 47 OFFCURVE",
"638 -12 OFFCURVE",
"746 -12 CURVE SMOOTH",
"880 -12 OFFCURVE",
"963 76 OFFCURVE",
"963 194 CURVE SMOOTH",
"963 297 OFFCURVE",
"901 391 OFFCURVE",
"825 440 CURVE",
"734 343 LINE",
"781 311 OFFCURVE",
"818 261 OFFCURVE",
"818 200 CURVE SMOOTH",
"818 148 OFFCURVE",
"792 113 OFFCURVE",
"743 113 CURVE SMOOTH",
"679 113 OFFCURVE",
"629 173 OFFCURVE",
"561 253 CURVE SMOOTH",
"467 366 OFFCURVE",
"394 435 OFFCURVE",
"277 435 CURVE SMOOTH",
"144 435 OFFCURVE",
"59 347 OFFCURVE",
"59 228 CURVE SMOOTH",
"59 128 OFFCURVE",
"118 37 OFFCURVE",
"199 -17 CURVE"
);
}
);
width = 1022;
}
);
note = uni1513;
unicode = 1513;
},
{
glyphname = uni1515;
lastChange = "2018-03-08 14:01:59 +0000";
layers = (
{
layerId = "2E7E08E9-F197-422C-8C87-7E7891F2A291";
paths = (
{
closed = 1;
nodes = (
"876 26 OFFCURVE",
"939 112 OFFCURVE",
"939 226 CURVE SMOOTH",
"939 350 OFFCURVE",
"866 424 OFFCURVE",
"744 424 CURVE SMOOTH",
"620 424 OFFCURVE",
"571 347 OFFCURVE",
"492 213 CURVE SMOOTH",
"415 82 OFFCURVE",
"373 13 OFFCURVE",
"262 13 CURVE SMOOTH",
"156 13 OFFCURVE",
"95 76 OFFCURVE",
"95 184 CURVE SMOOTH",
"95 287 OFFCURVE",
"150 358 OFFCURVE",
"255 403 CURVE",
"242 425 LINE",
"127 375 OFFCURVE",
"69 296 OFFCURVE",
"69 185 CURVE SMOOTH",
"69 62 OFFCURVE",
"140 -12 OFFCURVE",
"262 -12 CURVE SMOOTH",
"392 -12 OFFCURVE",
"442 73 OFFCURVE",
"516 199 CURVE SMOOTH",
"592 329 OFFCURVE",
"636 399 OFFCURVE",
"746 399 CURVE SMOOTH",
"850 399 OFFCURVE",
"913 336 OFFCURVE",
"913 227 CURVE SMOOTH",
"913 122 OFFCURVE",
"855 44 OFFCURVE",
"755 1 CURVE",
"768 -21 LINE"
);
}
);
width = 1008;
},
{
layerId = "E326D6A0-72EF-479E-B72E-1071BD8CDE1B";
paths = (
{
closed = 1;
nodes = (
"879 49 OFFCURVE",
"926 135 OFFCURVE",
"926 232 CURVE SMOOTH",
"926 350 OFFCURVE",
"855 425 OFFCURVE",
"745 425 CURVE SMOOTH",
"651 425 OFFCURVE",
"577 371 OFFCURVE",
"466 233 CURVE SMOOTH",
"387 135 OFFCURVE",
"324 59 OFFCURVE",
"240 59 CURVE SMOOTH",
"175 59 OFFCURVE",
"139 105 OFFCURVE",
"139 179 CURVE SMOOTH",
"139 261 OFFCURVE",
"184 334 OFFCURVE",
"236 368 CURVE",
"200 429 LINE",
"117 376 OFFCURVE",
"59 281 OFFCURVE",
"59 178 CURVE SMOOTH",
"59 63 OFFCURVE",
"132 -12 OFFCURVE",
"240 -12 CURVE SMOOTH",
"356 -12 OFFCURVE",
"437 74 OFFCURVE",
"520 179 CURVE SMOOTH",
"588 264 OFFCURVE",
"654 354 OFFCURVE",
"746 354 CURVE SMOOTH",
"810 354 OFFCURVE",
"846 310 OFFCURVE",
"846 233 CURVE SMOOTH",
"846 153 OFFCURVE",
"807 88 OFFCURVE",
"750 45 CURVE",
"786 -17 LINE"
);
}
);
width = 985;
},
{
layerId = "2D9103A3-690A-4A3E-A4A3-539A9A9AB4B9";
paths = (
{
closed = 1;
nodes = (
"914 29 OFFCURVE",
"979 123 OFFCURVE",
"979 225 CURVE SMOOTH",
"979 345 OFFCURVE",
"889 442 OFFCURVE",
"736 442 CURVE SMOOTH",
"630 442 OFFCURVE",
"557 396 OFFCURVE",
"469 293 CURVE SMOOTH",
"416 231 OFFCURVE",
"362 151 OFFCURVE",
"297 151 CURVE SMOOTH",
"260 151 OFFCURVE",
"239 178 OFFCURVE",
"239 214 CURVE SMOOTH",
"239 258 OFFCURVE",
"268 291 OFFCURVE",
"315 325 CURVE",
"188 447 LINE",
"116 400 OFFCURVE",
"49 306 OFFCURVE",
"49 205 CURVE SMOOTH",
"49 85 OFFCURVE",
"143 -12 OFFCURVE",
"292 -12 CURVE SMOOTH",
"425 -12 OFFCURVE",
"495 66 OFFCURVE",
"579 161 CURVE SMOOTH",
"642 232 OFFCURVE",
"683 279 OFFCURVE",
"732 279 CURVE SMOOTH",
"768 279 OFFCURVE",
"789 253 OFFCURVE",
"789 216 CURVE SMOOTH",
"789 170 OFFCURVE",
"756 136 OFFCURVE",
"713 105 CURVE",
"843 -17 LINE"
);
}
);
width = 1028;
},
{
layerId = "FA7FA507-24BC-4772-BCBB-4BDCA0277846";
paths = (
{
closed = 1;
nodes = (
"906 37 OFFCURVE",
"963 128 OFFCURVE",
"963 228 CURVE SMOOTH",
"963 347 OFFCURVE",
"881 435 OFFCURVE",
"746 435 CURVE SMOOTH",
"645 435 OFFCURVE",
"571 386 OFFCURVE",
"474 268 CURVE SMOOTH",
"411 191 OFFCURVE",
"353 113 OFFCURVE",
"280 113 CURVE SMOOTH",
"231 113 OFFCURVE",
"204 148 OFFCURVE",
"204 200 CURVE SMOOTH",
"204 259 OFFCURVE",
"240 309 OFFCURVE",
"289 343 CURVE",
"199 440 LINE",
"123 390 OFFCURVE",
"59 296 OFFCURVE",
"59 194 CURVE SMOOTH",
"59 76 OFFCURVE",
"145 -12 OFFCURVE",
"277 -12 CURVE SMOOTH",
"403 -12 OFFCURVE",
"477 69 OFFCURVE",
"561 168 CURVE SMOOTH",
"626 245 OFFCURVE",
"677 310 OFFCURVE",
"744 310 CURVE SMOOTH",
"791 310 OFFCURVE",
"818 276 OFFCURVE",
"818 223 CURVE SMOOTH",
"818 163 OFFCURVE",
"783 116 OFFCURVE",
"734 80 CURVE",
"826 -17 LINE"
);
}
);
width = 1022;
}
);
leftMetricsKey = "=uni1513";
note = uni1515;
rightMetricsKey = "=uni1513";
unicode = 1515;
},
{
glyphname = uni1525;
lastChange = "2018-03-08 14:01:59 +0000";
layers = (
{
layerId = "2E7E08E9-F197-422C-8C87-7E7891F2A291";
paths = (
{
closed = 1;
nodes = (
"561 435 OFFCURVE",
"605 496 OFFCURVE",
"605 578 CURVE SMOOTH",
"605 664 OFFCURVE",
"554 720 OFFCURVE",
"476 720 CURVE SMOOTH",
"393 720 OFFCURVE",
"366 656 OFFCURVE",
"317 563 CURVE SMOOTH",
"277 487 OFFCURVE",
"244 430 OFFCURVE",
"176 430 CURVE SMOOTH",
"114 430 OFFCURVE",
"73 477 OFFCURVE",
"73 552 CURVE SMOOTH",
"73 631 OFFCURVE",
"117 674 OFFCURVE",
"185 705 CURVE",
"176 726 LINE",
"93 692 OFFCURVE",
"49 631 OFFCURVE",
"49 549 CURVE SMOOTH",
"49 463 OFFCURVE",
"101 407 OFFCURVE",
"179 407 CURVE SMOOTH",
"260 407 OFFCURVE",
"292 466 OFFCURVE",
"339 554 CURVE SMOOTH",
"380 631 OFFCURVE",
"407 697 OFFCURVE",
"479 697 CURVE SMOOTH",
"540 697 OFFCURVE",
"581 650 OFFCURVE",
"581 578 CURVE SMOOTH",
"581 507 OFFCURVE",
"542 453 OFFCURVE",
"469 423 CURVE",
"478 401 LINE"
);
}
);
width = 654;
},
{
layerId = "E326D6A0-72EF-479E-B72E-1071BD8CDE1B";
paths = (
{
closed = 1;
nodes = (
"551 420 OFFCURVE",
"586 494 OFFCURVE",
"586 572 CURVE SMOOTH",
"586 661 OFFCURVE",
"539 721 OFFCURVE",
"464 721 CURVE SMOOTH",
"400 721 OFFCURVE",
"354 677 OFFCURVE",
"292 583 CURVE SMOOTH",
"247 515 OFFCURVE",
"204 451 OFFCURVE",
"161 451 CURVE SMOOTH",
"133 451 OFFCURVE",
"114 478 OFFCURVE",
"114 533 CURVE SMOOTH",
"114 594 OFFCURVE",
"137 642 OFFCURVE",
"168 673 CURVE",
"130 732 LINE",
"76 689 OFFCURVE",
"39 613 OFFCURVE",
"39 535 CURVE SMOOTH",
"39 445 OFFCURVE",
"89 383 OFFCURVE",
"160 383 CURVE SMOOTH",
"242 383 OFFCURVE",
"297 464 OFFCURVE",
"339 528 CURVE SMOOTH",
"383 595 OFFCURVE",
"423 654 OFFCURVE",
"465 654 CURVE SMOOTH",
"496 654 OFFCURVE",
"511 623 OFFCURVE",
"511 574 CURVE SMOOTH",
"511 514 OFFCURVE",
"489 463 OFFCURVE",
"457 433 CURVE",
"495 373 LINE"
);
}
);
width = 625;
},
{
layerId = "2D9103A3-690A-4A3E-A4A3-539A9A9AB4B9";
paths = (
{
closed = 1;
nodes = (
"606 402 OFFCURVE",
"658 465 OFFCURVE",
"658 563 CURVE SMOOTH",
"658 660 OFFCURVE",
"606 725 OFFCURVE",
"504 725 CURVE SMOOTH",
"434 725 OFFCURVE",
"397 694 OFFCURVE",
"307 584 CURVE SMOOTH",
"246 509 OFFCURVE",
"218 467 OFFCURVE",
"182 467 CURVE SMOOTH",
"160 467 OFFCURVE",
"147 487 OFFCURVE",
"147 518 CURVE SMOOTH",
"147 567 OFFCURVE",
"172 604 OFFCURVE",
"213 645 CURVE",
"140 725 LINE",
"79 675 OFFCURVE",
"29 608 OFFCURVE",
"29 517 CURVE SMOOTH",
"29 420 OFFCURVE",
"86 359 OFFCURVE",
"179 359 CURVE SMOOTH",
"273 359 OFFCURVE",
"315 421 OFFCURVE",
"375 496 CURVE SMOOTH",
"459 601 OFFCURVE",
"479 617 OFFCURVE",
"501 617 CURVE SMOOTH",
"528 617 OFFCURVE",
"540 595 OFFCURVE",
"540 559 CURVE SMOOTH",
"540 508 OFFCURVE",
"516 471 OFFCURVE",
"478 440 CURVE",
"546 358 LINE"
);
}
);
width = 687;
},
{
layerId = "FA7FA507-24BC-4772-BCBB-4BDCA0277846";
paths = (
{
closed = 1;
nodes = (
"583 413 OFFCURVE",
"628 480 OFFCURVE",
"628 568 CURVE SMOOTH",
"628 661 OFFCURVE",
"578 723 OFFCURVE",
"488 723 CURVE SMOOTH",
"421 723 OFFCURVE",
"381 688 OFFCURVE",
"304 585 CURVE SMOOTH",
"250 513 OFFCURVE",
"216 463 OFFCURVE",
"178 463 CURVE SMOOTH",
"151 463 OFFCURVE",
"138 486 OFFCURVE",
"138 527 CURVE SMOOTH",
"138 580 OFFCURVE",
"162 621 OFFCURVE",
"199 658 CURVE",
"141 728 LINE",
"83 681 OFFCURVE",
"39 611 OFFCURVE",
"39 527 CURVE SMOOTH",
"39 434 OFFCURVE",
"93 373 OFFCURVE",
"176 373 CURVE SMOOTH",
"263 373 OFFCURVE",
"311 442 OFFCURVE",
"362 511 CURVE SMOOTH",
"428 600 OFFCURVE",
"457 633 OFFCURVE",
"487 633 CURVE SMOOTH",
"515 633 OFFCURVE",
"528 608 OFFCURVE",
"528 567 CURVE SMOOTH",
"528 513 OFFCURVE",
"506 471 OFFCURVE",
"470 441 CURVE",
"525 368 LINE"
);
}
);
width = 667;
}
);
note = uni1525;
unicode = 1525;
},
{
glyphname = uni1526;
lastChange = "2018-03-08 14:01:59 +0000";
layers = (
{
layerId = "2E7E08E9-F197-422C-8C87-7E7891F2A291";
paths = (
{
closed = 1;
nodes = (
"490 0 LINE",
"490 297 LINE",
"88 297 LINE",
"424 711 LINE",
"403 726 LINE",
"49 290 LINE",
"49 272 LINE",
"464 272 LINE",
"464 0 LINE"
);
}
);
width = 559;
},
{
layerId = "E326D6A0-72EF-479E-B72E-1071BD8CDE1B";
paths = (
{
closed = 1;
nodes = (
"503 0 LINE",
"503 335 LINE",
"165 335 LINE",
"448 682 LINE",
"392 726 LINE",
"39 292 LINE",
"39 265 LINE",
"425 265 LINE",
"425 0 LINE"
);
}
);
width = 562;
},
{
layerId = "2D9103A3-690A-4A3E-A4A3-539A9A9AB4B9";
paths = (
{
closed = 1;
nodes = (
"569 0 LINE",
"569 376 LINE",
"321 376 LINE",
"499 628 LINE",
"354 726 LINE",
"29 265 LINE",
"29 220 LINE",
"376 220 LINE",
"376 0 LINE"
);
}
);
width = 618;
},
{
layerId = "FA7FA507-24BC-4772-BCBB-4BDCA0277846";
paths = (
{
closed = 1;
nodes = (
"548 0 LINE",
"548 359 LINE",
"263 359 LINE",
"484 650 LINE",
"376 726 LINE",
"39 276 LINE",
"39 238 LINE",
"402 238 LINE",
"402 0 LINE"
);
}
);
width = 607;
}
);
note = uni1526;
unicode = 1526;
},
{
glyphname = uni1528;
lastChange = "2018-03-08 14:01:59 +0000";
layers = (
{
layerId = "2E7E08E9-F197-422C-8C87-7E7891F2A291";
paths = (
{
closed = 1;
nodes = (
"95 0 LINE",
"95 272 LINE",
"510 272 LINE",
"510 290 LINE",
"156 726 LINE",
"135 711 LINE",
"471 297 LINE",
"69 297 LINE",
"69 0 LINE"
);
}
);
width = 559;
},
{
layerId = "E326D6A0-72EF-479E-B72E-1071BD8CDE1B";
paths = (
{
closed = 1;
nodes = (
"137 0 LINE",
"137 265 LINE",
"523 265 LINE",
"523 292 LINE",
"170 726 LINE",
"114 682 LINE",
"397 335 LINE",
"59 335 LINE",
"59 0 LINE"
);
}
);
width = 562;
},
{
layerId = "2D9103A3-690A-4A3E-A4A3-539A9A9AB4B9";
paths = (
{
closed = 1;
nodes = (
"242 0 LINE",
"242 220 LINE",
"589 220 LINE",
"589 265 LINE",
"264 726 LINE",
"119 628 LINE",
"297 376 LINE",
"49 376 LINE",
"49 0 LINE"
);
}
);
width = 618;
},
{
layerId = "FA7FA507-24BC-4772-BCBB-4BDCA0277846";
paths = (
{
closed = 1;
nodes = (
"205 0 LINE",
"205 238 LINE",
"568 238 LINE",
"568 276 LINE",
"232 726 LINE",
"123 650 LINE",
"344 359 LINE",
"59 359 LINE",
"59 0 LINE"
);
}
);
width = 607;
}
);
note = uni1528;
unicode = 1528;
},
{
glyphname = uni152A;
lastChange = "2018-03-08 14:01:59 +0000";
layers = (
{
layerId = "2E7E08E9-F197-422C-8C87-7E7891F2A291";
paths = (
{
closed = 1;
nodes = (
"424 3 LINE",
"88 417 LINE",
"490 417 LINE",
"490 714 LINE",
"464 714 LINE",
"464 442 LINE",
"49 442 LINE",
"49 424 LINE",
"403 -12 LINE"
);
}
);
width = 559;
},
{
layerId = "E326D6A0-72EF-479E-B72E-1071BD8CDE1B";
paths = (
{
closed = 1;
nodes = (
"448 32 LINE",
"165 378 LINE",
"503 378 LINE",
"503 714 LINE",
"425 714 LINE",
"425 449 LINE",
"39 449 LINE",
"39 422 LINE",
"392 -12 LINE"
);
}
);
width = 562;
},
{
layerId = "2D9103A3-690A-4A3E-A4A3-539A9A9AB4B9";
paths = (
{
closed = 1;
nodes = (
"499 86 LINE",
"321 338 LINE",
"569 338 LINE",
"569 714 LINE",
"376 714 LINE",
"376 494 LINE",
"29 494 LINE",
"29 449 LINE",
"354 -12 LINE"
);
}
);
width = 618;
},
{
layerId = "FA7FA507-24BC-4772-BCBB-4BDCA0277846";
paths = (
{
closed = 1;
nodes = (
"484 64 LINE",
"263 354 LINE",
"548 354 LINE",
"548 714 LINE",
"402 714 LINE",
"402 476 LINE",
"39 476 LINE",
"39 438 LINE",
"376 -12 LINE"
);
}
);
width = 607;
}
);
leftMetricsKey = "=uni1526";
note = uni152A;
rightMetricsKey = "=uni1526";
unicode = 152A;
},
{
glyphname = uni152D;
lastChange = "2018-03-08 14:01:59 +0000";
layers = (
{
layerId = "2E7E08E9-F197-422C-8C87-7E7891F2A291";
paths = (
{
closed = 1;
nodes = (
"510 424 LINE",
"510 442 LINE",
"95 442 LINE",
"95 714 LINE",
"69 714 LINE",
"69 417 LINE",
"471 417 LINE",
"135 3 LINE",
"156 -12 LINE"
);
}
);
width = 559;
},
{
layerId = "E326D6A0-72EF-479E-B72E-1071BD8CDE1B";
paths = (
{
closed = 1;
nodes = (
"523 422 LINE",
"523 449 LINE",
"137 449 LINE",
"137 714 LINE",
"59 714 LINE",
"59 378 LINE",
"397 378 LINE",
"114 32 LINE",
"170 -12 LINE"
);
}
);
width = 562;
},
{
layerId = "2D9103A3-690A-4A3E-A4A3-539A9A9AB4B9";
paths = (
{
closed = 1;
nodes = (
"589 449 LINE",
"589 494 LINE",
"242 494 LINE",
"242 714 LINE",
"49 714 LINE",
"49 338 LINE",
"297 338 LINE",
"119 86 LINE",
"264 -12 LINE"
);
}
);
width = 618;
},
{
layerId = "FA7FA507-24BC-4772-BCBB-4BDCA0277846";
paths = (
{
closed = 1;
nodes = (
"568 438 LINE",
"568 476 LINE",
"205 476 LINE",
"205 714 LINE",
"59 714 LINE",
"59 354 LINE",
"344 354 LINE",
"123 64 LINE",
"232 -12 LINE"
);
}
);
width = 607;
}
);
leftMetricsKey = "=uni1528";
note = uni152D;
rightMetricsKey = "=uni1528";
unicode = 152D;
},
{
glyphname = uni153E;
lastChange = "2018-03-08 14:01:59 +0000";
layers = (
{
layerId = "2E7E08E9-F197-422C-8C87-7E7891F2A291";
paths = (
{
closed = 1;
nodes = (
"304 570 LINE",
"304 582 LINE",
"83 582 LINE",
"83 714 LINE",
"59 714 LINE",
"59 560 LINE",
"266 560 LINE",
"82 340 LINE",
"100 326 LINE"
);
}
);
width = 353;
},
{
layerId = "E326D6A0-72EF-479E-B72E-1071BD8CDE1B";
paths = (
{
closed = 1;
nodes = (
"305 552 LINE",
"305 582 LINE",
"124 582 LINE",
"124 714 LINE",
"49 714 LINE",
"49 514 LINE",
"179 514 LINE",
"60 370 LINE",
"117 326 LINE"
);
}
);
width = 344;
},
{
layerId = "2D9103A3-690A-4A3E-A4A3-539A9A9AB4B9";
paths = (
{
closed = 1;
nodes = (
"369 561 LINE",
"369 589 LINE",
"157 589 LINE",
"157 714 LINE",
"39 714 LINE",
"39 480 LINE",
"182 480 LINE",
"82 340 LINE",
"170 279 LINE"
);
}
);
width = 398;
},
{
layerId = "FA7FA507-24BC-4772-BCBB-4BDCA0277846";
paths = (
{
closed = 1;
nodes = (
"345 559 LINE",
"345 587 LINE",
"148 587 LINE",
"148 714 LINE",
"49 714 LINE",
"49 497 LINE",
"185 497 LINE",
"78 356 LINE",
"153 304 LINE"
);
}
);
width = 384;
}
);
note = uni153E;
unicode = 153E;
},
{
glyphname = uni153F;
lastChange = "2018-03-08 14:01:59 +0000";
layers = (
{
layerId = "2E7E08E9-F197-422C-8C87-7E7891F2A291";
paths = (
{
closed = 1;
nodes = (
"69 342 LINE",
"141 662 LINE",
"259 342 LINE",
"264 342 LINE",
"381 662 LINE",
"453 342 LINE",
"473 342 LINE",
"473 350 LINE",
"392 714 LINE",
"377 714 LINE",
"261 400 LINE",
"145 714 LINE",
"130 714 LINE",
"49 350 LINE",
"49 342 LINE"
);
}
);
width = 522;
},
{
layerId = "E326D6A0-72EF-479E-B72E-1071BD8CDE1B";
paths = (
{
closed = 1;
nodes = (
"104 342 LINE",
"152 594 LINE",
"260 342 LINE",
"292 342 LINE",
"397 597 LINE",
"447 342 LINE",
"511 342 LINE",
"511 361 LINE",
"438 714 LINE",
"377 714 LINE",
"277 458 LINE",
"171 714 LINE",
"110 714 LINE",
"39 359 LINE",
"39 342 LINE"
);
}
);
width = 550;
},
{
layerId = "2D9103A3-690A-4A3E-A4A3-539A9A9AB4B9";
paths = (
{
closed = 1;
nodes = (
"133 317 LINE",
"172 525 LINE",
"260 316 LINE",
"321 316 LINE",
"409 525 LINE",
"448 317 LINE",
"552 317 LINE",
"552 350 LINE",
"479 714 LINE",
"389 714 LINE",
"294 486 LINE",
"192 714 LINE",
"102 714 LINE",
"29 350 LINE",
"29 317 LINE"
);
}
);
width = 581;
},
{
layerId = "FA7FA507-24BC-4772-BCBB-4BDCA0277846";
paths = (
{
closed = 1;
nodes = (
"126 332 LINE",
"168 556 LINE",
"264 331 LINE",
"312 331 LINE",
"406 557 LINE",
"449 332 LINE",
"535 332 LINE",
"535 359 LINE",
"463 714 LINE",
"386 714 LINE",
"290 477 LINE",
"188 714 LINE",
"111 714 LINE",
"39 358 LINE",
"39 332 LINE"
);
}
);
width = 574;
}
);
note = uni153F;
unicode = 153F;
},
{
glyphname = uni1540;
lastChange = "2018-03-08 14:01:59 +0000";
layers = (
{
layerId = "2E7E08E9-F197-422C-8C87-7E7891F2A291";
paths = (
{
closed = 1;
nodes = (
"211 205 LINE",
"211 356 LINE",
"352 356 LINE",
"352 378 LINE",
"211 378 LINE",
"211 528 LINE",
"189 528 LINE",
"189 378 LINE",
"49 378 LINE",
"49 356 LINE",
"189 356 LINE",
"189 205 LINE"
);
}
);
width = 401;
},
{
layerId = "E326D6A0-72EF-479E-B72E-1071BD8CDE1B";
paths = (
{
closed = 1;
nodes = (
"227 205 LINE",
"227 333 LINE",
"339 333 LINE",
"339 400 LINE",
"227 400 LINE",
"227 529 LINE",
"151 529 LINE",
"151 400 LINE",
"39 400 LINE",
"39 333 LINE",
"151 333 LINE",
"151 205 LINE"
);
}
);
width = 378;
},
{
layerId = "2D9103A3-690A-4A3E-A4A3-539A9A9AB4B9";
paths = (
{
closed = 1;
nodes = (
"255 202 LINE",
"255 315 LINE",
"365 315 LINE",
"365 421 LINE",
"255 421 LINE",
"255 534 LINE",
"139 534 LINE",
"139 421 LINE",
"29 421 LINE",
"29 315 LINE",
"139 315 LINE",
"139 202 LINE"
);
}
);
width = 394;
},
{
layerId = "FA7FA507-24BC-4772-BCBB-4BDCA0277846";
paths = (
{
closed = 1;
nodes = (
"250 203 LINE",
"250 322 LINE",
"360 322 LINE",
"360 412 LINE",
"250 412 LINE",
"250 532 LINE",
"150 532 LINE",
"150 412 LINE",
"39 412 LINE",
"39 322 LINE",
"150 322 LINE",
"150 203 LINE"
);
}
);
width = 399;
}
);
note = uni1540;
unicode = 1540;
},
{
glyphname = uni1541;
lastChange = "2018-03-08 14:01:59 +0000";
layers = (
{
layerId = "2E7E08E9-F197-422C-8C87-7E7891F2A291";
paths = (
{
closed = 1;
nodes = (
"337 206 LINE",
"85 528 LINE",
"56 528 LINE",
"307 206 LINE"
);
},
{
closed = 1;
nodes = (
"79 206 LINE",
"330 528 LINE",
"301 528 LINE",
"49 206 LINE"
);
}
);
width = 386;
},
{
layerId = "E326D6A0-72EF-479E-B72E-1071BD8CDE1B";
paths = (
{
closed = 1;
nodes = (
"359 213 LINE",
"123 536 LINE",
"39 536 LINE",
"276 213 LINE"
);
},
{
closed = 1;
nodes = (
"122 213 LINE",
"359 536 LINE",
"275 536 LINE",
"39 213 LINE"
);
}
);
width = 398;
},
{
layerId = "2D9103A3-690A-4A3E-A4A3-539A9A9AB4B9";
paths = (
{
closed = 1;
nodes = (
"412 206 LINE",
"160 553 LINE",
"29 553 LINE",
"281 206 LINE"
);
},
{
closed = 1;
nodes = (
"160 206 LINE",
"412 553 LINE",
"281 553 LINE",
"29 206 LINE"
);
}
);
width = 441;
},
{
layerId = "FA7FA507-24BC-4772-BCBB-4BDCA0277846";
paths = (
{
closed = 1;
nodes = (
"392 213 LINE",
"149 546 LINE",
"39 546 LINE",
"282 213 LINE"
);
},
{
closed = 1;
nodes = (
"149 213 LINE",
"392 546 LINE",
"282 546 LINE",
"39 213 LINE"
);
}
);
width = 431;
}
);
note = uni1541;
unicode = 1541;
},
{
glyphname = uni1542;
lastChange = "2018-03-08 14:01:59 +0000";
layers = (
{
layerId = "2E7E08E9-F197-422C-8C87-7E7891F2A291";
paths = (
{
closed = 1;
nodes = (
"484 -10 OFFCURVE",
"592 74 OFFCURVE",
"592 252 CURVE SMOOTH",
"592 475 LINE",
"838 475 LINE",
"838 500 LINE",
"566 500 LINE",
"566 244 LINE SMOOTH",
"566 92 OFFCURVE",
"472 15 OFFCURVE",
"330 15 CURVE SMOOTH",
"181 15 OFFCURVE",
"95 96 OFFCURVE",
"95 256 CURVE SMOOTH",
"95 500 LINE",
"69 500 LINE",
"69 254 LINE SMOOTH",
"69 81 OFFCURVE",
"164 -10 OFFCURVE",
"329 -10 CURVE SMOOTH"
);
}
);
width = 897;
},
{
layerId = "E326D6A0-72EF-479E-B72E-1071BD8CDE1B";
paths = (
{
closed = 1;
nodes = (
"490 -12 OFFCURVE",
"588 84 OFFCURVE",
"588 243 CURVE SMOOTH",
"588 430 LINE",
"846 430 LINE",
"846 500 LINE",
"510 500 LINE",
"510 245 LINE SMOOTH",
"510 126 OFFCURVE",
"443 59 OFFCURVE",
"324 59 CURVE SMOOTH",
"205 59 OFFCURVE",
"137 126 OFFCURVE",
"137 245 CURVE SMOOTH",
"137 500 LINE",
"59 500 LINE",
"59 243 LINE SMOOTH",
"59 83 OFFCURVE",
"159 -12 OFFCURVE",
"324 -12 CURVE SMOOTH"
);
}
);
width = 895;
},
{
layerId = "2D9103A3-690A-4A3E-A4A3-539A9A9AB4B9";
paths = (
{
closed = 1;
nodes = (
"595 -12 OFFCURVE",
"719 110 OFFCURVE",
"719 311 CURVE SMOOTH",
"719 361 LINE",
"937 361 LINE",
"937 517 LINE",
"526 517 LINE",
"526 293 LINE SMOOTH",
"526 202 OFFCURVE",
"475 151 OFFCURVE",
"384 151 CURVE SMOOTH",
"294 151 OFFCURVE",
"242 202 OFFCURVE",
"242 293 CURVE SMOOTH",
"242 517 LINE",
"49 517 LINE",
"49 311 LINE SMOOTH",
"49 109 OFFCURVE",
"176 -12 OFFCURVE",
"385 -12 CURVE SMOOTH"
);
}
);
width = 976;
},
{
layerId = "FA7FA507-24BC-4772-BCBB-4BDCA0277846";
paths = (
{
closed = 1;
nodes = (
"558 -12 OFFCURVE",
"671 99 OFFCURVE",
"671 283 CURVE SMOOTH",
"671 389 LINE",
"906 389 LINE",
"906 510 LINE",
"526 510 LINE",
"526 273 LINE SMOOTH",
"526 171 OFFCURVE",
"468 113 OFFCURVE",
"366 113 CURVE SMOOTH",
"264 113 OFFCURVE",
"205 171 OFFCURVE",
"205 273 CURVE SMOOTH",
"205 510 LINE",
"59 510 LINE",
"59 283 LINE SMOOTH",
"59 98 OFFCURVE",
"175 -12 OFFCURVE",
"366 -12 CURVE SMOOTH"
);
}
);
width = 955;
}
);
note = uni1542;
unicode = 1542;
},
{
glyphname = uni1543;
lastChange = "2018-03-08 14:01:59 +0000";
layers = (
{
layerId = "2E7E08E9-F197-422C-8C87-7E7891F2A291";
paths = (
{
closed = 1;
nodes = (
"733 -10 OFFCURVE",
"828 81 OFFCURVE",
"828 254 CURVE SMOOTH",
"828 500 LINE",
"802 500 LINE",
"802 256 LINE SMOOTH",
"802 96 OFFCURVE",
"716 15 OFFCURVE",
"567 15 CURVE SMOOTH",
"425 15 OFFCURVE",
"331 92 OFFCURVE",
"331 244 CURVE SMOOTH",
"331 500 LINE",
"59 500 LINE",
"59 475 LINE",
"305 475 LINE",
"305 252 LINE SMOOTH",
"305 74 OFFCURVE",
"413 -10 OFFCURVE",
"568 -10 CURVE SMOOTH"
);
}
);
width = 897;
},
{
layerId = "E326D6A0-72EF-479E-B72E-1071BD8CDE1B";
paths = (
{
closed = 1;
nodes = (
"737 -12 OFFCURVE",
"836 83 OFFCURVE",
"836 243 CURVE SMOOTH",
"836 500 LINE",
"758 500 LINE",
"758 245 LINE SMOOTH",
"758 126 OFFCURVE",
"690 59 OFFCURVE",
"571 59 CURVE SMOOTH",
"452 59 OFFCURVE",
"384 126 OFFCURVE",
"384 245 CURVE SMOOTH",
"384 500 LINE",
"49 500 LINE",
"49 430 LINE",
"306 430 LINE",
"306 243 LINE SMOOTH",
"306 84 OFFCURVE",
"405 -12 OFFCURVE",
"571 -12 CURVE SMOOTH"
);
}
);
width = 895;
},
{
layerId = "2D9103A3-690A-4A3E-A4A3-539A9A9AB4B9";
paths = (
{
closed = 1;
nodes = (
"800 -12 OFFCURVE",
"927 109 OFFCURVE",
"927 311 CURVE SMOOTH",
"927 517 LINE",
"734 517 LINE",
"734 293 LINE SMOOTH",
"734 202 OFFCURVE",
"682 151 OFFCURVE",
"592 151 CURVE SMOOTH",
"501 151 OFFCURVE",
"450 202 OFFCURVE",
"450 293 CURVE SMOOTH",
"450 517 LINE",
"39 517 LINE",
"39 361 LINE",
"257 361 LINE",
"257 311 LINE SMOOTH",
"257 110 OFFCURVE",
"381 -12 OFFCURVE",
"591 -12 CURVE SMOOTH"
);
}
);
width = 976;
},
{
layerId = "FA7FA507-24BC-4772-BCBB-4BDCA0277846";
paths = (
{
closed = 1;
nodes = (
"780 -12 OFFCURVE",
"896 98 OFFCURVE",
"896 283 CURVE SMOOTH",
"896 510 LINE",
"750 510 LINE",
"750 273 LINE SMOOTH",
"750 171 OFFCURVE",
"691 113 OFFCURVE",
"589 113 CURVE SMOOTH",
"487 113 OFFCURVE",
"429 171 OFFCURVE",
"429 273 CURVE SMOOTH",
"429 510 LINE",
"49 510 LINE",
"49 389 LINE",
"283 389 LINE",
"283 283 LINE SMOOTH",
"283 99 OFFCURVE",
"397 -12 OFFCURVE",
"589 -12 CURVE SMOOTH"
);
}
);
width = 955;
}
);
note = uni1543;
unicode = 1543;
},
